<svg width="22" height="22" viewBox="0 0 22 22" fill="currentColor" xmlns="http://www.w3.org/2000/svg">
  <path fill-rule="evenodd" clip-rule="evenodd" d="M20.1155 1.88893C19.5191 1.28841 18.8094 0.812227 18.0276 0.487965C17.2458 0.163702 16.4075 -0.00219024 15.5611 -9.94856e-05C14.7152 -0.00234664 13.8772 0.16312 13.0956 0.486732C12.3141 0.810345 11.6044 1.28568 11.0076 1.88526L8.01325 4.87599C7.84127 5.04786 7.7446 5.281 7.74451 5.52414C7.74443 5.76727 7.84093 6.00048 8.01279 6.17247C8.18465 6.34445 8.4178 6.44112 8.66093 6.4412C8.90407 6.44129 9.13728 6.34479 9.30926 6.17293L12.3018 3.18311C12.7285 2.75384 13.2362 2.41348 13.7953 2.18173C14.3544 1.94999 14.954 1.83146 15.5593 1.83302C16.4706 1.83332 17.3613 2.1038 18.1189 2.61026C18.8765 3.11672 19.467 3.83643 19.8156 4.6784C20.1643 5.52038 20.2554 6.44681 20.0777 7.3406C19.8999 8.23439 19.4611 9.0554 18.8167 9.69985L15.8269 12.6897C15.6549 12.8616 15.5583 13.0949 15.5583 13.3381C15.5583 13.5813 15.6549 13.8146 15.8269 13.9866C15.9989 14.1586 16.2322 14.2552 16.4754 14.2552C16.7186 14.2552 16.9519 14.1586 17.1238 13.9866L20.1137 10.9986C21.3199 9.78976 21.9975 8.15187 21.9978 6.44415C21.9982 4.73642 21.3212 3.09827 20.1155 1.88893ZM12.6911 15.8263L9.70125 18.8161C8.83319 19.6609 7.66741 20.1301 6.45612 20.1219C5.24483 20.1138 4.08544 19.6291 3.22879 18.7727C2.37214 17.9163 1.88711 16.757 1.87866 15.5458C1.8702 14.3345 2.33899 13.1686 3.18359 12.3003L6.17341 9.3077C6.34527 9.13572 6.44177 8.9025 6.44169 8.65937C6.4416 8.41623 6.34493 8.18309 6.17295 8.01123C6.00097 7.83937 5.76776 7.74286 5.52462 7.74295C5.28148 7.74303 5.04834 7.8397 4.87648 8.01169L1.88758 11.0043C0.679804 12.2126 0.0015238 13.8513 0.00195333 15.5598C0.00238327 17.2683 0.681488 18.9066 1.88987 20.1144C3.09825 21.3222 4.73693 22.0004 6.44542 22C8.1539 21.9996 9.79223 21.3205 11 20.1121L13.9898 17.1223C14.1568 16.9494 14.2492 16.7179 14.2471 16.4776C14.245 16.2373 14.1486 16.0074 13.9787 15.8374C13.8087 15.6675 13.5788 15.5711 13.3385 15.569C13.0982 15.5669 12.8667 15.6593 12.6938 15.8263H12.6911ZM7.60282 13.1006L13.1022 7.60124C13.275 7.43428 13.5066 7.3419 13.7469 7.34399C13.9872 7.34608 14.2171 7.44247 14.387 7.61241C14.557 7.78234 14.6534 8.01223 14.6554 8.25255C14.6575 8.49287 14.5652 8.72439 14.3982 8.89726L8.89884 14.3966C8.81429 14.4842 8.71315 14.554 8.60133 14.602C8.4895 14.65 8.36923 14.6753 8.24753 14.6764C8.12583 14.6774 8.00514 14.6543 7.8925 14.6082C7.77986 14.5621 7.67752 14.494 7.59146 14.408C7.5054 14.3219 7.43735 14.2196 7.39126 14.1069C7.34518 13.9943 7.32199 13.8736 7.32304 13.7519C7.3241 13.6302 7.34939 13.5099 7.39742 13.3981C7.44546 13.2863 7.51528 13.1851 7.60282 13.1006Z" />
</svg>
