<svg width="28" height="28" viewBox="0 0 28 28" fill="#21759B" xmlns="http://www.w3.org/2000/svg">
  <path d="M1.40429 13.9996C1.40429 18.9852 4.3016 23.2936 8.50292 25.3353L2.49476 8.87368C1.7959 10.4401 1.40429 12.1736 1.40429 13.9996Z" />
  <path d="M22.5025 13.364C22.5025 11.8074 21.9433 10.7294 21.4638 9.89034C20.8253 8.85283 20.2269 7.97422 20.2269 6.93671C20.2269 5.77889 21.105 4.70111 22.3419 4.70111C22.3977 4.70111 22.4507 4.70806 22.5051 4.71118C20.2642 2.65821 17.2787 1.40476 13.9996 1.40476C9.59939 1.40476 5.72808 3.6624 3.47595 7.08195C3.77146 7.09081 4.04995 7.09704 4.2865 7.09704C5.60394 7.09704 7.64325 6.93719 7.64325 6.93719C8.32222 6.89716 8.40227 7.89441 7.72401 7.9747C7.72401 7.9747 7.04169 8.05499 6.28243 8.09477L10.8691 21.7377L13.6255 13.4709L11.6631 8.09429C10.9849 8.05451 10.3424 7.97422 10.3424 7.97422C9.66362 7.93443 9.74319 6.89668 10.4219 6.93671C10.4219 6.93671 12.502 7.09657 13.7396 7.09657C15.0568 7.09657 17.0964 6.93671 17.0964 6.93671C17.7758 6.89668 17.8556 7.89393 17.1771 7.97422C17.1771 7.97422 16.4934 8.05451 15.7355 8.09429L20.2873 21.6339L21.5436 17.4357C22.0881 15.6936 22.5025 14.4423 22.5025 13.364Z" />
  <path d="M14.2206 15.1014L10.4416 26.0826C11.5699 26.4143 12.7632 26.5957 13.9996 26.5957C15.4664 26.5957 16.873 26.3422 18.1823 25.8818C18.1485 25.8278 18.1178 25.7705 18.0926 25.7082L14.2206 15.1014Z" />
  <path d="M25.0516 7.95672C25.1057 8.35792 25.1364 8.7886 25.1364 9.25187C25.1364 10.53 24.8977 11.9668 24.1787 13.7633L20.3314 24.8869C24.0759 22.7033 26.5945 18.6465 26.5945 13.9999C26.5948 11.8101 26.0354 9.75086 25.0516 7.95672Z" />
  <path d="M13.9997 0C6.28019 0 -0.000457764 6.28019 -0.000457764 13.9997C-0.000457764 21.72 6.28019 28 13.9997 28C21.7189 28 28.0004 21.72 28.0004 13.9997C28.0002 6.28019 21.7189 0 13.9997 0ZM13.9997 27.3583C6.63418 27.3583 0.641479 21.3656 0.641479 13.9997C0.641479 6.63418 6.63395 0.641936 13.9997 0.641936C21.3649 0.641936 27.3571 6.63418 27.3571 13.9997C27.3571 21.3656 21.3649 27.3583 13.9997 27.3583Z" />
</svg>
