<svg width="28" height="28" viewBox="0 0 28 28" fill="none" xmlns="http://www.w3.org/2000/svg">
<path d="M9.55824 27.2472C12.0101 27.2472 14 25.2689 14 22.8314V18.4157H9.55824C7.10639 18.4157 5.11648 20.394 5.11648 22.8314C5.11648 25.2689 7.10639 27.2472 9.55824 27.2472Z" fill="#0ACF83"/>
<path d="M5.11648 14C5.11648 11.5625 7.10639 9.58427 9.55824 9.58427H14V18.4157H9.55824C7.10639 18.4157 5.11648 16.4375 5.11648 14Z" fill="#A259FF"/>
<path d="M5.11648 5.16855C5.11648 2.73107 7.10639 0.752823 9.55824 0.752823H14V9.58427H9.55824C7.10639 9.58427 5.11648 7.60603 5.11648 5.16855Z" fill="#F24E1E"/>
<path d="M14 0.752823H18.4418C20.8936 0.752823 22.8835 2.73107 22.8835 5.16855C22.8835 7.60603 20.8936 9.58427 18.4418 9.58427H14V0.752823Z" fill="#FF7262"/>
<path d="M22.8835 14C22.8835 16.4375 20.8936 18.4157 18.4418 18.4157C15.9899 18.4157 14 16.4375 14 14C14 11.5625 15.9899 9.58427 18.4418 9.58427C20.8936 9.58427 22.8835 11.5625 22.8835 14Z" fill="#1ABCFE"/>
</svg>
