<svg width="28" height="28" fill="#DC4F3D" viewBox="0 0 28 28" xmlns="http://www.w3.org/2000/svg">
<path fill-rule="evenodd" clip-rule="evenodd" d="M27.5841 6.33433C27.5942 6.37166 27.5994 6.41015 27.5995 6.44882V12.4589C27.5995 12.5361 27.5791 12.6119 27.5404 12.6786C27.5018 12.7454 27.4462 12.8007 27.3793 12.8391L22.3349 15.7434V21.4999C22.3349 21.6565 22.2516 21.8011 22.1157 21.88L11.586 27.9416C11.5619 27.9553 11.5356 27.9641 11.5093 27.9734C11.4994 27.9767 11.4901 27.9827 11.4797 27.9855C11.4061 28.0048 11.3287 28.0048 11.2551 27.9855C11.2431 27.9822 11.2321 27.9756 11.2206 27.9712C11.1965 27.9625 11.1713 27.9548 11.1483 27.9416L0.620731 21.88C0.553853 21.8416 0.498283 21.7862 0.459624 21.7195C0.420964 21.6528 0.400581 21.577 0.400528 21.4999L0.400528 3.4695C0.400528 3.43006 0.406006 3.39172 0.415865 3.35447C0.419152 3.34187 0.426821 3.33037 0.431203 3.31777C0.43942 3.29476 0.447088 3.27121 0.459139 3.24984C0.467356 3.2356 0.479407 3.2241 0.489267 3.21095C0.501865 3.19342 0.513368 3.17535 0.528158 3.16001C0.540757 3.14741 0.55719 3.1381 0.571432 3.12714C0.587317 3.114 0.601559 3.09976 0.619636 3.08935L5.88425 0.0585408C5.9509 0.0201863 6.02645 0 6.10335 0C6.18025 0 6.25581 0.0201863 6.32246 0.0585408L11.5865 3.08935H11.5876C11.6051 3.1003 11.6199 3.114 11.6358 3.1266C11.6501 3.13755 11.666 3.14741 11.6785 3.15946C11.6939 3.17535 11.7048 3.19342 11.718 3.21095C11.7273 3.2241 11.7399 3.2356 11.7476 3.24984C11.7602 3.27176 11.7673 3.29476 11.7761 3.31777C11.7804 3.33037 11.7881 3.34187 11.7914 3.35502C11.8015 3.39234 11.8066 3.43083 11.8067 3.4695V14.7311L16.1933 12.2053V6.44827C16.1933 6.40993 16.1987 6.37103 16.2086 6.33433C16.2124 6.32119 16.2196 6.30968 16.2239 6.29708C16.2327 6.27408 16.2404 6.25052 16.2524 6.22916C16.2606 6.21492 16.2727 6.20342 16.282 6.19027C16.2951 6.17274 16.3061 6.15466 16.3214 6.13933C16.334 6.12673 16.3499 6.11742 16.3642 6.10646C16.3806 6.09331 16.3948 6.07907 16.4124 6.06867L21.6775 3.03786C21.7442 2.99945 21.8197 2.97923 21.8966 2.97923C21.9735 2.97923 22.0491 2.99945 22.1157 3.03786L27.3798 6.06867C27.3984 6.07962 27.4127 6.09331 27.4291 6.10591C27.4428 6.11687 27.4587 6.12673 27.4713 6.13878C27.4866 6.15466 27.4976 6.17274 27.5107 6.19027C27.5206 6.20342 27.5326 6.21492 27.5403 6.22916C27.5529 6.25052 27.56 6.27408 27.5688 6.29708C27.5737 6.30968 27.5808 6.32119 27.5841 6.33433ZM26.7219 12.2053V7.20748L24.8798 8.26796L22.3349 9.73324V14.7311L26.7225 12.2053H26.7219ZM21.4579 21.2463V16.2451L18.9546 17.6748L11.8062 21.7546V26.8028L21.4579 21.2463ZM1.27805 4.22816V21.2463L10.9287 26.8023V21.7551L5.88698 18.9018L5.88534 18.9007L5.88315 18.8996C5.86617 18.8898 5.85193 18.8755 5.83604 18.8635C5.82235 18.8525 5.80646 18.8437 5.79441 18.8317L5.79332 18.83C5.77907 18.8164 5.76921 18.7994 5.75716 18.784C5.74621 18.7692 5.73306 18.7566 5.7243 18.7413L5.72375 18.7397C5.71389 18.7232 5.70786 18.7035 5.70074 18.6849C5.69362 18.6685 5.68431 18.6531 5.67993 18.6356C5.67445 18.6148 5.67335 18.5923 5.67116 18.5709C5.66897 18.5545 5.66459 18.5381 5.66459 18.5217V18.5206V6.75392L3.1202 5.28809L1.27805 4.22816ZM6.1039 0.944831L1.71791 3.4695L6.10281 5.99417L10.4882 3.46895L6.10281 0.944831H6.1039ZM8.38481 16.7009L10.9292 15.2361V4.22816L9.08705 5.28864L6.54212 6.75392V17.7619L8.38481 16.7009ZM21.8966 3.92415L17.5112 6.44882L21.8966 8.97348L26.2815 6.44827L21.8966 3.92415ZM21.4579 9.73324L18.9129 8.26796L17.0708 7.20748V12.2053L19.6152 13.6701L21.4579 14.7311V9.73324ZM11.3669 20.9959L17.7993 17.3237L21.0147 15.4887L16.6326 12.9656L11.5871 15.8704L6.98855 18.5178L11.3669 20.9959Z" />
</svg>
