<svg width="28" height="28" viewBox="0 0 28 28" xmlns="http://www.w3.org/2000/svg">
<path fill="currentColor" d="M14.0061 0C21.7235 0 28 6.26437 28 13.9725C28 17.6928 26.525 21.2608 23.8995 23.8914C21.274 26.5221 17.713 28 14 28C10.287 28 6.72601 26.5221 4.10051 23.8914C1.475 21.2608 0 17.6928 0 13.9725C0 6.26437 6.27649 0 14.0061 0ZM14.2259 15.0736L10.4405 26.024C12.9783 26.7696 15.6853 26.7012 18.1823 25.8283C18.1482 25.7699 18.1196 25.7084 18.0968 25.6447L14.2259 15.0736ZM2.50327 8.8582C1.17322 11.8418 1.05674 15.2276 2.1786 18.2959C3.30045 21.3642 5.57221 23.8733 8.51112 25.2899L2.50327 8.8582ZM25.0449 7.94057C25.106 8.34433 25.1304 8.77256 25.1304 9.23749C25.1304 10.5099 24.8862 11.9414 24.1779 13.74L20.3314 24.825C23.1604 23.1832 25.2368 20.4985 26.1174 17.3439C26.9981 14.1893 26.6132 10.8147 25.0449 7.94057ZM14.0061 1.43151C9.61012 1.43151 5.73921 3.68276 3.48016 7.09635C4.87016 7.14273 6.26169 7.08957 7.64413 6.9373C8.32795 6.90059 8.40122 7.89163 7.72961 7.97728C7.72961 7.97728 7.04579 8.05069 6.2887 8.09963L10.8679 21.6928L13.6276 13.4464L11.6738 8.07516C10.99 8.03845 10.3428 7.95281 10.3428 7.95281C9.67117 7.9161 9.74444 6.88835 10.4283 6.92506C10.4283 6.92506 12.5041 7.08412 13.7375 7.08412C15.0563 7.09635 17.0955 6.9373 17.0955 6.9373C17.7671 6.90059 17.8526 7.89163 17.181 7.97728C17.181 7.97728 16.4972 8.05069 15.7401 8.09963L20.2826 21.6072L21.5403 17.4105C22.104 16.126 22.4308 14.7497 22.505 13.3485C22.4871 12.1201 22.1276 10.921 21.4671 9.88595C20.8199 8.84597 20.2215 7.97728 20.2215 6.94953C20.2215 5.7872 21.1007 4.71051 22.3463 4.71051H22.505C20.1834 2.58561 17.1505 1.41109 14.0061 1.41927V1.43151Z" />
</svg>
