<svg width="22" height="22" viewBox="0 0 22 22" fill="currentColor" xmlns="http://www.w3.org/2000/svg">
  <path fill-rule="evenodd" clip-rule="evenodd" d="M4.67492 0.000123454H17.3247C18.5521 -0.0108752 19.7337 0.46555 20.6101 1.32483C21.4866 2.18411 21.9863 3.35603 21.9996 4.58338V17.4165C21.9863 18.6438 21.4866 19.8158 20.6101 20.675C19.7337 21.5343 18.5521 22.0107 17.3247 21.9998H4.67492C3.44755 22.0107 2.26596 21.5343 1.3895 20.675C0.513033 19.8158 0.0133054 18.6438 0 17.4165V14.6665C0 14.4234 0.0965755 14.1903 0.268481 14.0184C0.440386 13.8465 0.67354 13.7499 0.916651 13.7499C1.15976 13.7499 1.39292 13.8465 1.56482 14.0184C1.73673 14.1903 1.8333 14.4234 1.8333 14.6665V17.4165C1.84632 18.1577 2.15281 18.8635 2.68552 19.379C3.21824 19.8945 3.93369 20.1777 4.67492 20.1664H17.3247C18.0659 20.1777 18.7814 19.8945 19.3141 19.379C19.8468 18.8635 20.1533 18.1577 20.1663 17.4165V4.58338C20.1533 3.84217 19.8468 3.13639 19.3141 2.62086C18.7814 2.10533 18.0659 1.82215 17.3247 1.83343H4.67492C3.93369 1.82215 3.21824 2.10533 2.68552 2.62086C2.15281 3.13639 1.84632 3.84217 1.8333 4.58338V7.33333C1.8333 7.57644 1.73673 7.8096 1.56482 7.9815C1.39292 8.15341 1.15976 8.24998 0.916651 8.24998C0.67354 8.24998 0.440386 8.15341 0.268481 7.9815C0.0965755 7.8096 0 7.57644 0 7.33333V4.58338C0.0133054 3.35603 0.513033 2.18411 1.3895 1.32483C2.26596 0.46555 3.44755 -0.0108752 4.67492 0.000123454ZM3.01843 11.648C2.84653 11.4761 2.74995 11.2429 2.74995 10.9998C2.74995 10.7567 2.84653 10.5235 3.01843 10.3516C3.19034 10.1797 3.42349 10.0832 3.6666 10.0832L15.7013 10.0557L11.7946 6.14797C11.6276 5.97509 11.5352 5.74354 11.5373 5.5032C11.5394 5.26286 11.6358 5.03295 11.8057 4.863C11.9757 4.69304 12.2056 4.59664 12.4459 4.59455C12.6863 4.59246 12.9178 4.68485 13.0907 4.85183L17.2926 9.05559C17.8082 9.57128 18.0978 10.2706 18.0978 10.9998C18.0978 11.729 17.8082 12.4283 17.2926 12.944L13.0889 17.1478C13.0043 17.2353 12.9032 17.3052 12.7913 17.3532C12.6795 17.4013 12.5592 17.4265 12.4375 17.4276C12.3158 17.4287 12.1951 17.4055 12.0824 17.3594C11.9698 17.3133 11.8674 17.2452 11.7814 17.1591C11.6953 17.0731 11.6272 16.9707 11.5811 16.8581C11.535 16.7454 11.5119 16.6247 11.5129 16.503C11.514 16.3813 11.5393 16.261 11.5873 16.1492C11.6353 16.0373 11.7052 15.9362 11.7927 15.8516L15.7554 11.889L3.6666 11.9165C3.42349 11.9165 3.19034 11.8199 3.01843 11.648Z" />
</svg>
