<svg width="22" height="22" viewBox="0 0 22 22" fill="currentColor" xmlns="http://www.w3.org/2000/svg">
  <path fill-rule="evenodd" clip-rule="evenodd" d="M0.916647 4.35431H3.42459C3.62134 5.07822 4.05082 5.71727 4.64678 6.17288C5.24275 6.62848 5.97207 6.87533 6.72223 6.87533C7.4724 6.87533 8.20172 6.62848 8.79768 6.17288C9.39364 5.71727 9.82313 5.07822 10.0199 4.35431H21.0829C21.326 4.35431 21.5592 4.25774 21.7311 4.08583C21.903 3.91393 21.9995 3.68077 21.9995 3.43766C21.9995 3.19455 21.903 2.9614 21.7311 2.7895C21.5592 2.61759 21.326 2.52102 21.0829 2.52102H10.0199C9.82313 1.79711 9.39364 1.15806 8.79768 0.702452C8.20172 0.246845 7.4724 0 6.72223 0C5.97207 0 5.24275 0.246845 4.64678 0.702452C4.05082 1.15806 3.62134 1.79711 3.42459 2.52102H0.916647C0.673537 2.52102 0.440385 2.61759 0.26848 2.7895C0.0965751 2.9614 0 3.19455 0 3.43766C0 3.68077 0.0965751 3.91393 0.26848 4.08583C0.440385 4.25774 0.673537 4.35431 0.916647 4.35431ZM6.72178 1.83353C7.03904 1.83353 7.34919 1.92761 7.61298 2.10388C7.87678 2.28014 8.08239 2.53067 8.2038 2.82379C8.32521 3.11691 8.35698 3.43944 8.29509 3.75062C8.23319 4.06179 8.08041 4.34762 7.85607 4.57196C7.63173 4.7963 7.3459 4.94908 7.03473 5.01097C6.72355 5.07287 6.40102 5.0411 6.1079 4.91969C5.81478 4.79828 5.56425 4.59267 5.38799 4.32887C5.21172 4.06507 5.11764 3.75493 5.11764 3.43766C5.11813 3.01237 5.28729 2.60464 5.58802 2.30391C5.88875 2.00318 6.29648 1.83402 6.72178 1.83353ZM21.0829 10.0833H18.5749C18.3785 9.35928 17.9492 8.71999 17.3533 8.2642C16.7574 7.8084 16.028 7.56144 15.2778 7.56144C14.5275 7.56144 13.7981 7.8084 13.2022 8.2642C12.6063 8.71999 12.177 9.35928 11.9806 10.0833H0.916647C0.673537 10.0833 0.440385 10.1799 0.26848 10.3518C0.0965751 10.5237 0 10.7569 0 11C0 11.2431 0.0965751 11.4763 0.26848 11.6482C0.440385 11.8201 0.673537 11.9166 0.916647 11.9166H11.9806C12.177 12.6407 12.6063 13.28 13.2022 13.7358C13.7981 14.1916 14.5275 14.4386 15.2778 14.4386C16.028 14.4386 16.7574 14.1916 17.3533 13.7358C17.9492 13.28 18.3785 12.6407 18.5749 11.9166H21.0829C21.326 11.9166 21.5592 11.8201 21.7311 11.6482C21.903 11.4763 21.9995 11.2431 21.9995 11C21.9995 10.7569 21.903 10.5237 21.7311 10.3518C21.5592 10.1799 21.326 10.0833 21.0829 10.0833ZM15.2778 12.6041C14.9605 12.6041 14.6504 12.51 14.3866 12.3338C14.1228 12.1575 13.9171 11.907 13.7957 11.6139C13.6743 11.3208 13.6426 10.9982 13.7045 10.687C13.7663 10.3759 13.9191 10.09 14.1435 9.8657C14.3678 9.64136 14.6536 9.48858 14.9648 9.42669C15.276 9.36479 15.5985 9.39656 15.8916 9.51797C16.1848 9.63938 16.4353 9.84499 16.6115 10.1088C16.7878 10.3726 16.8819 10.6827 16.8819 11C16.8814 11.4253 16.7122 11.833 16.4115 12.1338C16.1108 12.4345 15.7031 12.6036 15.2778 12.6041ZM10.0199 17.6457H21.0829C21.326 17.6457 21.5592 17.7423 21.7311 17.9142C21.903 18.0861 21.9995 18.3192 21.9995 18.5623C21.9995 18.8054 21.903 19.0386 21.7311 19.2105C21.5592 19.3824 21.326 19.479 21.0829 19.479H10.0199C9.82313 20.2029 9.39364 20.8419 8.79768 21.2975C8.20172 21.7532 7.4724 22 6.72223 22C5.97207 22 5.24275 21.7532 4.64678 21.2975C4.05082 20.8419 3.62134 20.2029 3.42459 19.479H0.916647C0.673537 19.479 0.440385 19.3824 0.26848 19.2105C0.0965751 19.0386 0 18.8054 0 18.5623C0 18.3192 0.0965751 18.0861 0.26848 17.9142C0.440385 17.7423 0.673537 17.6457 0.916647 17.6457H3.42459C3.62134 16.9218 4.05082 16.2827 4.64678 15.8271C5.24275 15.3715 5.97207 15.1247 6.72223 15.1247C7.4724 15.1247 8.20172 15.3715 8.79768 15.8271C9.39364 16.2827 9.82313 16.9218 10.0199 17.6457ZM5.83057 19.8961C6.09437 20.0724 6.40451 20.1665 6.72178 20.1665C7.14699 20.1657 7.55459 19.9965 7.85527 19.6958C8.15594 19.3951 8.32518 18.9876 8.32591 18.5623C8.32591 18.2451 8.23183 17.9349 8.05556 17.6711C7.8793 17.4073 7.62877 17.2017 7.33565 17.0803C7.04253 16.9589 6.72 16.9271 6.40882 16.989C6.09765 17.0509 5.81182 17.2037 5.58748 17.428C5.36314 17.6524 5.21036 17.9382 5.14847 18.2494C5.08657 18.5606 5.11834 18.8831 5.23975 19.1762C5.36116 19.4693 5.56677 19.7199 5.83057 19.8961Z" />
</svg>
