<svg width="22" height="22" viewBox="0 0 22 22" fill="currentColor" xmlns="http://www.w3.org/2000/svg">
  <path d="M11 19.25C11 19.7569 10.5893 20.1667 10.0833 20.1667H4.58333C2.05608 20.1667 0 18.1106 0 15.5833V4.58333C0 2.05608 2.05608 0 4.58333 0H15.5833C18.1106 0 20.1667 2.05608 20.1667 4.58333V10.0833C20.1667 10.5903 19.756 11 19.25 11C18.744 11 18.3333 10.5903 18.3333 10.0833V4.58333C18.3333 3.06717 17.0995 1.83333 15.5833 1.83333H4.58333C3.06717 1.83333 1.83333 3.06717 1.83333 4.58333V10.9624L4.40733 8.38842C5.81167 6.98317 8.09692 6.98317 9.50217 8.38842L14.3981 13.2843C14.7565 13.6427 14.7565 14.2221 14.3981 14.5805C14.2193 14.7593 13.9847 14.8491 13.75 14.8491C13.5153 14.8491 13.2807 14.7593 13.1019 14.5805L8.206 9.68458C7.51667 8.99617 6.39467 8.99525 5.7035 9.68458L1.83333 13.5548V15.5833C1.83333 17.0995 3.06717 18.3333 4.58333 18.3333H10.0833C10.5893 18.3333 11 18.7431 11 19.25ZM13.75 3.20833C15.2662 3.20833 16.5 4.44217 16.5 5.95833C16.5 7.4745 15.2662 8.70833 13.75 8.70833C12.2338 8.70833 11 7.4745 11 5.95833C11 4.44217 12.2338 3.20833 13.75 3.20833ZM13.75 5.04167C13.2449 5.04167 12.8333 5.45233 12.8333 5.95833C12.8333 6.46433 13.2449 6.875 13.75 6.875C14.2551 6.875 14.6667 6.46433 14.6667 5.95833C14.6667 5.45233 14.2551 5.04167 13.75 5.04167ZM21.0833 16.5H18.3333V13.75C18.3333 13.2431 17.9227 12.8333 17.4167 12.8333C16.9107 12.8333 16.5 13.2431 16.5 13.75V16.5H13.75C13.244 16.5 12.8333 16.9097 12.8333 17.4167C12.8333 17.9236 13.244 18.3333 13.75 18.3333H16.5V21.0833C16.5 21.5903 16.9107 22 17.4167 22C17.9227 22 18.3333 21.5903 18.3333 21.0833V18.3333H21.0833C21.5893 18.3333 22 17.9236 22 17.4167C22 16.9097 21.5893 16.5 21.0833 16.5Z" />
</svg>
