<svg width="22" height="22" viewBox="0 0 22 22" fill="currentColor" xmlns="http://www.w3.org/2000/svg">
  <path d="M22 9.16674C22 9.09983 21.9927 9.03312 21.978 8.96783L20.7863 3.58883C20.5649 2.56788 19.9992 1.65409 19.1841 1.00069C18.369 0.347293 17.354 -0.00599168 16.3093 7.68981e-05H5.69067C4.64663 -0.00514838 3.6325 0.348522 2.81814 1.00185C2.00377 1.65518 1.43861 2.5685 1.21733 3.58883L0.0220013 8.96783C0.00734202 9.03312 -3.63549e-05 9.09983 1.25528e-06 9.16674V10.0834C-0.000738318 10.9759 0.325346 11.8377 0.916668 12.5062V17.4167C0.918123 18.6319 1.40148 19.7968 2.2607 20.656C3.11993 21.5153 4.28487 21.9986 5.5 22.0001H16.5C17.7151 21.9986 18.8801 21.5153 19.7393 20.656C20.5985 19.7968 21.0819 18.6319 21.0833 17.4167V12.5062C21.6747 11.8377 22.0007 10.9759 22 10.0834V9.16674ZM1.83333 9.26666L3.00667 3.98666C3.13962 3.37456 3.47877 2.82669 3.96735 2.43472C4.45593 2.04276 5.0643 1.83048 5.69067 1.83341H6.41667V4.58341C6.41667 4.82653 6.51325 5.05968 6.68515 5.23159C6.85706 5.4035 7.09022 5.50008 7.33333 5.50008C7.57645 5.50008 7.80961 5.4035 7.98152 5.23159C8.15342 5.05968 8.25 4.82653 8.25 4.58341V1.83341H13.75V4.58341C13.75 4.82653 13.8466 5.05968 14.0185 5.23159C14.1904 5.4035 14.4236 5.50008 14.6667 5.50008C14.9098 5.50008 15.1429 5.4035 15.3149 5.23159C15.4868 5.05968 15.5833 4.82653 15.5833 4.58341V1.83341H16.3093C16.9357 1.83048 17.5441 2.04276 18.0327 2.43472C18.5212 2.82669 18.8604 3.37456 18.9933 3.98666L20.1667 9.26666V10.0834C20.1667 10.5696 19.9735 11.036 19.6297 11.3798C19.2859 11.7236 18.8196 11.9167 18.3333 11.9167H17.4167C16.9304 11.9167 16.4641 11.7236 16.1203 11.3798C15.7765 11.036 15.5833 10.5696 15.5833 10.0834C15.5833 9.8403 15.4868 9.60714 15.3149 9.43523C15.1429 9.26332 14.9098 9.16674 14.6667 9.16674C14.4236 9.16674 14.1904 9.26332 14.0185 9.43523C13.8466 9.60714 13.75 9.8403 13.75 10.0834C13.75 10.5696 13.5568 11.036 13.213 11.3798C12.8692 11.7236 12.4029 11.9167 11.9167 11.9167H10.0833C9.59711 11.9167 9.13079 11.7236 8.78697 11.3798C8.44316 11.036 8.25 10.5696 8.25 10.0834C8.25 9.8403 8.15342 9.60714 7.98152 9.43523C7.80961 9.26332 7.57645 9.16674 7.33333 9.16674C7.09022 9.16674 6.85706 9.26332 6.68515 9.43523C6.51325 9.60714 6.41667 9.8403 6.41667 10.0834C6.41667 10.5696 6.22351 11.036 5.8797 11.3798C5.53588 11.7236 5.06957 11.9167 4.58333 11.9167H3.66667C3.18044 11.9167 2.71412 11.7236 2.37031 11.3798C2.02649 11.036 1.83333 10.5696 1.83333 10.0834V9.26666ZM16.5 20.1667H5.5C4.77066 20.1667 4.07118 19.877 3.55546 19.3613C3.03973 18.8456 2.75 18.1461 2.75 17.4167V13.6337C3.04938 13.7112 3.35741 13.7503 3.66667 13.7501H4.58333C5.10383 13.7504 5.61839 13.6395 6.09263 13.425C6.56687 13.2105 6.98986 12.8972 7.33333 12.5062C7.67681 12.8972 8.0998 13.2105 8.57404 13.425C9.04828 13.6395 9.56284 13.7504 10.0833 13.7501H11.9167C12.4372 13.7504 12.9517 13.6395 13.426 13.425C13.9002 13.2105 14.3232 12.8972 14.6667 12.5062C15.0101 12.8972 15.4331 13.2105 15.9074 13.425C16.3816 13.6395 16.8962 13.7504 17.4167 13.7501H18.3333C18.6426 13.7503 18.9506 13.7112 19.25 13.6337V17.4167C19.25 18.1461 18.9603 18.8456 18.4445 19.3613C17.9288 19.877 17.2293 20.1667 16.5 20.1667Z" />
</svg>
