<svg width="22" height="22" viewBox="0 0 22 22" fill="currentColor" xmlns="http://www.w3.org/2000/svg">
  <path d="M15.5688 13.7504C16.0749 13.7504 16.4852 13.3401 16.4852 12.8339C16.4852 12.3278 16.0749 11.9175 15.5688 11.9175C15.0627 11.9175 14.6523 12.3278 14.6523 12.8339C14.6523 13.3401 15.0627 13.7504 15.5688 13.7504Z" />
  <path d="M15.6031 17.4121C11.0457 13.9594 10.6848 8.02247 14.8632 4.20198C15.4682 3.63441 15.7144 2.78155 15.5047 1.97938C15.2967 1.16949 14.6647 0.537465 13.8548 0.329513C12.3454 -0.033115 10.7789 -0.0971335 9.24464 0.140895C4.36549 0.964541 0.618904 4.91564 0.0556273 9.83217C0.0208253 10.178 0.00235019 10.5252 0.000201921 10.8732C-0.0363187 16.9816 4.8858 21.9634 10.9942 22C12.3416 22.0017 13.6804 21.7894 14.9612 21.3714C15.3668 21.2257 15.723 20.9688 15.9893 20.6302C16.7713 19.6352 16.5982 18.1941 15.6031 17.4121ZM14.3537 19.6476C10.7669 20.8975 6.781 19.9149 4.18589 17.1414C2.4299 15.2076 1.58949 12.6129 1.87865 10.0169C2.35084 5.92704 5.46755 2.63976 9.52692 1.95103C10.0348 1.8724 10.5482 1.8333 11.0621 1.83459C11.8501 1.83072 12.6359 1.92224 13.402 2.10699C13.5639 2.14824 13.6894 2.27627 13.7281 2.43868C13.7732 2.59121 13.7281 2.7562 13.6116 2.8649C8.6182 7.41408 9.04528 14.7586 14.4795 18.8631C14.5427 18.9142 14.5908 18.9812 14.6196 19.0568C14.709 19.2936 14.5904 19.5582 14.3537 19.6476Z" />
  <path d="M21.0688 17.4169C21.5749 17.4169 21.9852 17.0066 21.9852 16.5004C21.9852 15.9943 21.5749 15.584 21.0688 15.584C20.5627 15.584 20.1523 15.9943 20.1523 16.5004C20.1523 17.0066 20.5627 17.4169 21.0688 17.4169Z" />
  <path d="M21.9914 7.79259C21.9914 7.28259 21.5777 6.86884 21.0677 6.86884H19.5953V5.39641C19.5953 4.88641 19.1815 4.47266 18.6715 4.47266C18.1615 4.47266 17.7477 4.88641 17.7477 5.39641V6.86884H16.2753C15.7653 6.86884 15.3516 7.28259 15.3516 7.79259C15.3516 8.30259 15.7653 8.71635 16.2753 8.71635H17.7477V10.1888C17.7477 10.6988 18.1615 11.1125 18.6715 11.1125C19.1815 11.1125 19.5953 10.6988 19.5953 10.1888V8.71635H21.0677C21.5777 8.71635 21.9914 8.30259 21.9914 7.79259Z" />
</svg>
