<svg width="22" height="22" viewBox="0 0 22 22" fill="currentColor" xmlns="http://www.w3.org/2000/svg">
<path d="M0.978083 11.5482L2.88017 12.9021C3.85367 13.5942 5.00408 13.9471 6.1545 13.9471C6.97308 13.9471 7.79258 13.7683 8.54883 13.4063L20.4224 8.18309C21.7846 7.53226 22.3777 5.88776 21.7433 4.51642C21.1072 3.14417 19.4746 2.54376 18.0987 3.17351L15.2176 4.45867L9.15017 0.713173C8.34167 0.111839 7.271 0.00367239 6.3525 0.428089L5.63658 0.763589C5.0765 1.02667 4.68967 1.54917 4.60167 2.16151C4.51367 2.77476 4.73733 3.38526 5.20117 3.79592L9.05483 7.20592L5.76308 8.67442L2.96083 7.64592C2.05883 7.31684 1.0505 7.60834 0.45375 8.37101C0.0944167 8.83026 -0.0559167 9.40867 0.03025 9.99901C0.121 10.6196 0.465667 11.1833 0.977167 11.5463L0.978083 11.5482ZM6.41667 2.42367L7.128 2.09001C7.43233 1.94884 7.78892 1.98642 8.12258 2.22842L13.1927 5.36159L10.8955 6.38642L6.41667 2.42367ZM1.89842 9.50217C1.98825 9.38759 2.10375 9.34726 2.20458 9.34726C2.25042 9.34726 5.48075 10.5252 5.48075 10.5252C5.70533 10.6077 5.95283 10.5994 6.17008 10.5023L18.8503 4.84551L18.8623 4.84001C19.3215 4.62826 19.8669 4.82901 20.0796 5.28642C20.2941 5.75117 20.0942 6.30759 19.6579 6.51659L7.78433 11.7398C6.54042 12.3328 5.06733 12.2073 3.94258 11.4079L2.0405 10.0549C1.936 9.98067 1.86358 9.86151 1.84525 9.73592C1.8315 9.64242 1.84983 9.56451 1.89842 9.50217ZM22 21.0829C22 21.5898 21.5893 21.9995 21.0833 21.9995H0.916667C0.410667 21.9995 0 21.5898 0 21.0829C0 20.576 0.410667 20.1662 0.916667 20.1662H21.0833C21.5893 20.1662 22 20.576 22 21.0829Z" />
</svg>
