<svg width="22" height="22" viewBox="0 0 22 22" fill="currentColor" xmlns="http://www.w3.org/2000/svg">
<path d="M19.9806 5.07719L13.5639 0.746859C12.0065 -0.303641 9.9935 -0.303641 8.43608 0.746859L2.01942 5.07719C0.754417 5.93153 0 7.35144 0 8.87769V17.4164C0 19.9437 2.05608 21.9998 4.58333 21.9998H17.4167C19.9439 21.9998 22 19.9437 22 17.4164V8.87769C22 7.35236 21.2456 5.93153 19.9806 5.07719ZM7.33333 20.1664C7.33333 18.1443 8.97783 16.4998 11 16.4998C13.0222 16.4998 14.6667 18.1443 14.6667 20.1664H7.33333ZM20.1667 17.4164C20.1667 18.9326 18.9328 20.1664 17.4167 20.1664H16.5C16.5 17.1332 14.0332 14.6664 11 14.6664C7.96675 14.6664 5.5 17.1332 5.5 20.1664H4.58333C3.06717 20.1664 1.83333 18.9326 1.83333 17.4164V8.87769C1.83333 7.96194 2.28617 7.10944 3.04517 6.59794L9.46183 2.26761C9.92933 1.95228 10.4647 1.79461 11 1.79461C11.5353 1.79461 12.0707 1.95228 12.5382 2.26761L18.9548 6.59794C19.7138 7.11036 20.1667 7.96194 20.1667 8.87769V17.4164ZM11 6.41644C8.97783 6.41644 7.33333 8.06094 7.33333 10.0831C7.33333 12.1053 8.97783 13.7498 11 13.7498C13.0222 13.7498 14.6667 12.1053 14.6667 10.0831C14.6667 8.06094 13.0222 6.41644 11 6.41644ZM11 11.9164C9.98892 11.9164 9.16667 11.0942 9.16667 10.0831C9.16667 9.07203 9.98892 8.24978 11 8.24978C12.0111 8.24978 12.8333 9.07203 12.8333 10.0831C12.8333 11.0942 12.0111 11.9164 11 11.9164Z" />
</svg>
