<svg width="22" height="22" viewBox="0 0 22 22" fill="currentColor" xmlns="http://www.w3.org/2000/svg">
  <path d="M9.79625 22C9.40517 21.9998 9.01974 21.9065 8.67182 21.7277C8.32391 21.549 8.02351 21.2899 7.79546 20.9719C7.56741 20.6539 7.41826 20.2861 7.36034 19.899C7.30242 19.5119 7.3374 19.1166 7.46238 18.7457L9.24074 13.7426H5.64277L4.65275 15.2528C4.40285 15.635 4.06165 15.9487 3.66005 16.1656C3.25845 16.3825 2.80914 16.4958 2.35279 16.4951C1.97585 16.495 1.60448 16.4039 1.27022 16.2295C0.93596 16.0551 0.648669 15.8026 0.432734 15.4934C0.216799 15.1841 0.0785963 14.8273 0.0298553 14.4532C-0.0188856 14.0791 0.0232747 13.6987 0.152758 13.3444L1.00619 10.9901L0.143591 8.64136C0.013798 8.28766 -0.0288914 7.90785 0.01914 7.53412C0.0671714 7.16039 0.204508 6.80375 0.419512 6.49444C0.674943 6.1678 1.00532 5.90764 1.38262 5.73603C1.75992 5.56442 2.17301 5.48643 2.58684 5.50867C3.00068 5.53091 3.40305 5.65273 3.75982 5.86379C4.11659 6.07485 4.41723 6.36892 4.63625 6.72106L5.64002 8.23767H9.24074L7.46605 3.24928C7.339 2.87653 7.30259 2.47884 7.35982 2.08919C7.41705 1.69954 7.56628 1.32916 7.79513 1.00878C8.06775 0.662241 8.42261 0.389436 8.82743 0.215184C9.23226 0.0409321 9.67419 -0.0292354 10.113 0.0110663C10.5518 0.051368 10.9736 0.200859 11.34 0.445938C11.7064 0.691017 12.0057 1.0239 12.2108 1.41431L16.1131 8.23767H19.1501C19.813 8.22933 20.4579 8.45448 20.9718 8.87376C21.4857 9.29304 21.836 9.87978 21.9615 10.5314C22.0282 10.9262 22.008 11.3309 21.9024 11.7171C21.7967 12.1033 21.6081 12.4618 21.3498 12.7675C21.0914 13.0733 20.7695 13.3189 20.4065 13.4873C20.0436 13.6557 19.6482 13.7429 19.2482 13.7426H16.1131L12.2016 20.5816C11.9645 21.0121 11.6161 21.3709 11.193 21.6204C10.7698 21.8699 10.2874 22.001 9.79625 22ZM5.14776 11.9076H10.5397C10.686 11.9089 10.83 11.945 10.9596 12.0129C11.0892 12.0809 11.2008 12.1788 11.2852 12.2984C11.3696 12.4181 11.4243 12.5562 11.4448 12.7012C11.4653 12.8462 11.4511 12.9941 11.4032 13.1325L9.19399 19.3466C9.16447 19.4398 9.15739 19.5387 9.17332 19.6352C9.18925 19.7316 9.22775 19.823 9.28566 19.9017C9.37812 19.9934 9.49094 20.0619 9.6149 20.1016C9.73887 20.1413 9.87046 20.1511 9.99892 20.1301C10.1274 20.1092 10.2491 20.0581 10.3541 19.9811C10.459 19.9041 10.5443 19.8033 10.6029 19.687L14.7858 12.3664C14.8664 12.2266 14.9824 12.1106 15.1221 12.0301C15.2618 11.9495 15.4202 11.9073 15.5814 11.9076H19.2482C19.3822 11.9077 19.5145 11.8783 19.636 11.8217C19.7574 11.765 19.865 11.6823 19.9511 11.5796C20.0371 11.4768 20.0997 11.3564 20.1342 11.2268C20.1688 11.0972 20.1745 10.9616 20.1511 10.8296C20.0968 10.6074 19.9676 10.4107 19.7852 10.2728C19.6028 10.1349 19.3785 10.0642 19.1501 10.0726H15.5814C15.4202 10.073 15.2618 10.0307 15.1221 9.95018C14.9824 9.86964 14.8664 9.75364 14.7858 9.6139L10.6103 2.30977C10.5546 2.18965 10.4707 2.08481 10.3657 2.0042C10.2607 1.9236 10.1378 1.86963 10.0075 1.84691C9.87712 1.82419 9.74322 1.83339 9.6172 1.87373C9.49119 1.91408 9.3768 1.98436 9.28383 2.07857C9.22519 2.15982 9.18685 2.25395 9.17202 2.35308C9.15718 2.4522 9.16629 2.55345 9.19857 2.64833L11.3986 8.8478C11.4464 8.98585 11.4607 9.13327 11.4404 9.27795C11.4201 9.42262 11.3658 9.56041 11.282 9.67999C11.1981 9.79956 11.0871 9.89751 10.9581 9.96577C10.829 10.034 10.6856 10.0707 10.5397 10.0726H5.14776C4.99632 10.0727 4.84723 10.0351 4.71382 9.96341C4.58042 9.89169 4.46684 9.788 4.38324 9.66161L3.10631 7.73488C2.8973 7.34862 2.15846 7.15044 1.92379 7.54221C1.87586 7.60914 1.84531 7.68695 1.83491 7.76863C1.82451 7.85032 1.83458 7.93331 1.8642 8.01013L2.84689 10.6764C2.92193 10.8807 2.92193 11.1051 2.84689 11.3094L1.8697 13.9793C1.84246 14.0561 1.834 14.1384 1.84504 14.2191C1.85608 14.2999 1.8863 14.3768 1.93316 14.4435C1.98002 14.5102 2.04216 14.5646 2.11437 14.6023C2.18658 14.64 2.26677 14.6598 2.34821 14.6601C2.50045 14.6602 2.65031 14.6223 2.78426 14.5499C2.91822 14.4775 3.03205 14.3728 3.11547 14.2454L4.37683 12.3187C4.46102 12.1914 4.57562 12.0871 4.71023 12.0153C4.84485 11.9436 4.99523 11.9065 5.14776 11.9076Z" />
</svg>
