<svg width="22" height="22" viewBox="0 0 22 22" fill="currentColor" xmlns="http://www.w3.org/2000/svg">
<path d="M16.4999 11C16.4999 11.506 16.0892 11.9167 15.5832 11.9167C15.0772 11.9167 14.6665 11.506 14.6665 11C14.6665 10.494 15.0772 10.0833 15.5832 10.0833C16.0892 10.0833 16.4999 10.494 16.4999 11ZM6.41655 4.58333C6.92255 4.58333 7.33321 4.17358 7.33321 3.66667C7.33321 2.65558 8.15546 1.83333 9.16655 1.83333C10.1776 1.83333 10.9999 2.65558 10.9999 3.66667C10.9999 4.17358 11.4105 4.58333 11.9165 4.58333C12.4225 4.58333 12.8332 4.17358 12.8332 3.66667C12.8332 1.6445 11.1887 0 9.16655 0C7.14438 0 5.49988 1.6445 5.49988 3.66667C5.49988 4.17358 5.91055 4.58333 6.41655 4.58333ZM21.9999 11.9167V13.75C21.9999 14.7638 21.3142 15.3808 20.5625 15.5412C19.9566 17.0573 18.8465 18.3379 17.4165 19.1657V19.25C17.4165 20.7662 16.1827 22 14.6665 22C13.4712 22 12.4519 21.2337 12.0733 20.1667H9.92555C9.54696 21.2337 8.52763 22 7.3323 22C5.81613 22 4.5823 20.7662 4.5823 19.25V19.1776C2.16688 17.7852 0.748797 15.1653 0.931214 12.3475C0.988964 11.451 1.21538 10.5994 1.57746 9.82117C0.645214 9.38025 -0.00195312 8.4315 -0.00195312 7.33333C-0.00195312 5.81717 1.23188 4.58333 2.74805 4.58333C3.25405 4.58333 3.66471 4.99308 3.66471 5.5C3.66471 6.00692 3.25405 6.41667 2.74805 6.41667C2.24205 6.41667 1.83138 6.82733 1.83138 7.33333C1.83138 7.78342 2.15771 8.15833 2.5858 8.23533C3.98005 6.56425 6.11771 5.5 8.49188 5.5H13.408C14.0799 4.14517 15.3348 3.19733 17.0077 2.7995C17.5495 2.67208 18.1105 2.79675 18.5486 3.14233C18.9932 3.49433 19.249 4.0205 19.249 4.587V7.99242C19.8063 8.62583 20.2518 9.35 20.5616 10.1255C21.3142 10.2859 21.9999 10.9028 21.9999 11.9167ZM20.1665 11.9167H19.897C19.4919 11.9167 19.1344 11.6499 19.0189 11.2613C18.7677 10.4179 18.3039 9.63325 17.6778 8.99067C17.51 8.81925 17.4165 8.58917 17.4165 8.35083V4.587C16.5228 4.79967 15.3403 5.34783 14.8829 6.72742C14.7536 7.11517 14.376 7.38192 13.9754 7.35442C13.913 7.35167 8.49371 7.33425 8.49371 7.33425C5.46596 7.33425 2.94788 9.58833 2.7618 12.4667C2.61513 14.7299 3.84438 16.8227 5.89405 17.7971C6.21396 17.9493 6.41655 18.2719 6.41655 18.6248V19.2509C6.41655 19.7569 6.82813 20.1676 7.33321 20.1676C7.8383 20.1676 8.24988 19.7569 8.24988 19.2509C8.24988 18.7449 8.66055 18.3342 9.16655 18.3342H12.8332C13.3392 18.3342 13.7499 18.744 13.7499 19.2509C13.7499 19.7578 14.1615 20.1676 14.6665 20.1676C15.1716 20.1676 15.5832 19.7569 15.5832 19.2509V18.6147C15.5832 18.2618 15.7858 17.9401 16.1048 17.7879C17.5183 17.1133 18.5798 15.8803 19.0189 14.4073C19.1344 14.0186 19.4919 13.7518 19.897 13.7518H20.1665V11.9185V11.9167Z" />
</svg>
