<svg width="22" height="22" viewBox="0 0 22 22" fill="currentColor" xmlns="http://www.w3.org/2000/svg">
<path d="M9.16667 14.6667H9.08783L8.43975 14.0186C8.26742 13.8463 8.03458 13.75 7.79167 13.75H3.66667V7.33333C3.66667 5.81717 4.9005 4.58333 6.41667 4.58333H15.5833C17.0995 4.58333 18.3333 5.81717 18.3333 7.33333C18.3333 7.83933 18.744 8.25 19.25 8.25C19.756 8.25 20.1667 7.83933 20.1667 7.33333C20.1667 4.80608 18.1106 2.75 15.5833 2.75H6.41667C3.88942 2.75 1.83333 4.80608 1.83333 7.33333V13.9187C0.769083 14.2982 0 15.3065 0 16.5C0 18.0162 1.23383 19.25 2.75 19.25H7.33333C7.83933 19.25 8.25 18.8403 8.25 18.3333C8.25 17.8264 7.83933 17.4167 7.33333 17.4167H2.75C2.24492 17.4167 1.83333 17.006 1.83333 16.5C1.83333 15.994 2.24492 15.5833 2.75 15.5833H7.41217L8.06025 16.2314C8.23258 16.4038 8.46542 16.5 8.70833 16.5H9.16667C9.67267 16.5 10.0833 16.0903 10.0833 15.5833C10.0833 15.0764 9.67267 14.6667 9.16667 14.6667ZM21.1943 14.7776L15.0462 20.9257C14.3541 21.6187 13.4328 22 12.4538 22H11C10.494 22 10.0833 21.5903 10.0833 21.0833V19.6295C10.0833 18.6505 10.4656 17.7293 11.1577 17.0372L17.3057 10.8891C18.3443 9.84958 20.1557 9.84958 21.1952 10.8891C22.2667 11.9616 22.2658 13.7051 21.1943 14.7776ZM19.8981 12.1853C19.5516 11.8378 18.9475 11.8378 18.6019 12.1853L12.4529 18.3333C12.1064 18.6798 11.9157 19.14 11.9157 19.6295V20.1667H12.4529C12.9351 20.1667 13.4081 19.9705 13.7491 19.6295L19.8972 13.4814C20.2547 13.1239 20.2556 12.5428 19.8981 12.1853Z" />
</svg>
