<svg width="22" height="22" viewBox="0 0 22 22" fill="currentColor" xmlns="http://www.w3.org/2000/svg">
  <path d="M18.3346 14.6662C18.3346 15.4252 17.7185 16.0413 16.9595 16.0413C16.2004 16.0413 15.5844 15.4252 15.5844 14.6662C15.5844 13.9071 16.2004 13.2911 16.9595 13.2911C17.7185 13.2911 18.3346 13.9071 18.3346 14.6662ZM21.0848 7.33234C20.5778 7.33234 20.168 7.74304 20.168 8.24907V19.2498C20.168 19.7549 19.7573 20.1665 19.2513 20.1665H4.58364C3.06737 20.1665 1.83346 18.9326 1.83346 17.4164V8.24907V8.24449C2.61634 8.83119 3.57799 9.1658 4.58273 9.1658H13.75C14.257 9.1658 14.6667 8.7551 14.6667 8.24907C14.6667 7.74304 14.257 7.33234 13.75 7.33234H4.58364C3.79892 7.33234 3.06829 6.98307 2.55126 6.41194C3.05454 5.85549 3.77509 5.49888 4.58364 5.49888H11.0007C11.5077 5.49888 11.9175 5.08819 11.9175 4.58215C11.9175 4.07612 11.5077 3.66543 11.0007 3.66543H4.58364C1.83346 3.66543 0 5.95725 0 8.24907V17.4164C0 19.9438 2.05622 22 4.58364 22H19.2513C20.7676 22 22.0015 20.7661 22.0015 19.2498V8.24907C22.0015 7.74304 21.5917 7.33234 21.0848 7.33234ZM15.3121 3.85886L16.5011 2.68453V8.24907C16.5011 8.7551 16.9109 9.1658 17.4178 9.1658C17.9248 9.1658 18.3346 8.7551 18.3346 8.24907V2.70103L19.5291 3.86344C19.7069 4.0367 19.937 4.12379 20.168 4.12379C20.4073 4.12379 20.6456 4.0312 20.8253 3.84694C21.1783 3.48391 21.1709 2.90362 20.807 2.55068L18.7654 0.563216C18.0128 -0.187585 16.7926 -0.186668 16.0428 0.559549L14.0223 2.55527C13.662 2.91096 13.6593 3.49125 14.014 3.85152C14.3716 4.21271 14.95 4.21455 15.3112 3.85977L15.3121 3.85886Z" />
</svg>
