<svg width="24" height="23" viewBox="0 0 24 23" xmlns="http://www.w3.org/2000/svg">
<path d="M11.1319 3.71801L5.09935 9.75052C2.14111 12.7088 2.28612 17.6682 5.5924 20.3944C8.49264 22.8306 12.814 22.4536 15.4822 19.7854L18.7885 16.4791C19.1655 16.102 19.1655 15.464 18.7885 15.087C18.4115 14.7099 17.7734 14.7099 17.3964 15.087L14.0611 18.4222C12.1469 20.3364 8.75366 20.5974 6.72349 18.7993C4.4613 16.7691 4.37429 13.2598 6.49147 11.1426L12.408 5.22614C13.6261 4.00804 15.6272 3.80502 16.9613 4.90711C18.4405 6.15422 18.5275 8.3874 17.1644 9.75052L11.1319 15.783C10.5808 16.3341 9.62373 16.3051 9.13069 15.638C8.75366 15.087 8.86967 14.3329 9.33371 13.8689L14.6121 8.59042C14.9892 8.21339 14.9892 7.57533 14.6121 7.1983C14.2351 6.82127 13.5971 6.82127 13.22 7.1983L7.9996 12.4187C6.78149 13.6368 6.57848 15.638 7.68057 16.9721C8.92768 18.4512 11.1609 18.5383 12.524 17.1751L18.4115 11.2876C20.3256 9.37348 20.5866 5.9802 18.7885 3.95003C16.7583 1.68784 13.249 1.60084 11.1319 3.71801Z" fill="currentColor"/>
</svg>
