<svg viewBox="0 0 46 35" xmlns="http://www.w3.org/2000/svg"><path d="M33.5499 35C28.4387 35 24.3761 30.9363 24.3761 25.9551C24.3761 21.367 27.2593 17.3034 38.2678 0H46L36.9573 17.1723C40.8889 18.6142 42.8547 22.0225 42.8547 25.824C42.8547 30.9363 38.661 35 33.5499 35ZM0 25.9551C0 21.367 2.88319 17.3034 13.8917 0H21.6239C18.6097 5.76779 15.7265 11.4045 12.5812 17.1723C16.5128 18.6142 18.6097 22.0225 18.6097 25.824C18.6097 30.9363 14.416 35 9.17379 35C4.06268 35 0 30.9363 0 25.9551Z" fill="currentColor"/></svg>
