<svg xmlns="http://www.w3.org/2000/svg" fill="none" viewBox="0 0 117 22"><path fill="currentColor" d="M14.708 4.237h-3.254L7.912 14.246 4.036 4.237H.703L6.388 17.72c-.09.203-1.784 4.162-1.784 4.162h3.1l7.003-17.644h.001ZM24.262 10.034a5.291 5.291 0 0 0-.338-1.393 3.493 3.493 0 0 0-.698-1.122 3.264 3.264 0 0 0-1.048-.755 3.26 3.26 0 0 0-1.381-.28c-.966 0-1.762.329-2.39.983-.63.656-1.013 1.511-1.15 2.567h7.005Zm-3.103 7.99c-.982 0-1.899-.17-2.75-.51a6.704 6.704 0 0 1-2.225-1.43 6.642 6.642 0 0 1-1.485-2.208c-.362-.86-.543-1.809-.543-2.847v-.051c0-.97.164-1.88.49-2.733a6.795 6.795 0 0 1 1.385-2.233 6.506 6.506 0 0 1 2.105-1.507c.81-.366 1.706-.55 2.688-.55 1.086 0 2.038.198 2.855.588.818.391 1.5.92 2.043 1.583a6.87 6.87 0 0 1 1.227 2.311 9.193 9.193 0 0 1 .4 3.191c-.01.145-.023.293-.04.447H17.282c.174 1.106.616 1.953 1.332 2.541.714.587 1.58.88 2.596.88.777 0 1.448-.136 2.016-.407.57-.273 1.128-.673 1.68-1.2l1.836 1.607a7.528 7.528 0 0 1-2.34 1.839c-.904.461-1.986.69-3.243.69M31.988 0h-3.152v17.719h3.152V0ZM37.52 0h-3.153v17.719h3.152V0ZM46.256 17.49c.631 0 1.201-.115 1.705-.344.506-.231.939-.54 1.3-.932.358-.391.631-.847.82-1.366.188-.52.284-1.067.284-1.646v-.052c0-.595-.104-1.158-.309-1.684a4.131 4.131 0 0 0-2.17-2.313 4.022 4.022 0 0 0-1.682-.344 4.02 4.02 0 0 0-1.682.344 4.127 4.127 0 0 0-1.297.919c-.359.385-.633.84-.821 1.367a4.899 4.899 0 0 0-.283 1.659v.052c0 .596.104 1.154.308 1.672.206.52.492.98.86 1.379a3.968 3.968 0 0 0 2.968 1.29m-.053 2.68a7.475 7.475 0 0 1-2.881-.549 7.178 7.178 0 0 1-2.299-1.494 6.862 6.862 0 0 1-2.056-4.927v-.051c0-.97.185-1.882.557-2.733a7.056 7.056 0 0 1 1.524-2.235 7.27 7.27 0 0 1 2.3-1.518c.887-.375 1.855-.562 2.909-.562 1.053 0 2.018.183 2.905.55a7.026 7.026 0 0 1 2.3 1.506 6.915 6.915 0 0 1 1.512 2.22c.363.844.543 1.75.543 2.72v.052a6.7 6.7 0 0 1-.556 2.707 7.096 7.096 0 0 1-1.523 2.233 7.187 7.187 0 0 1-2.314 1.519c-.895.374-1.868.561-2.92.561M52.54 4.238h3.204l2.74 9.243 3.024-9.293h2.661l3.049 9.293 2.792-9.243h3.126l-4.47 13.582h-2.791l-3.05-9.216-3.075 9.216h-2.792L52.54 4.238ZM80.836 15.318c.535 0 1.038-.1 1.513-.306a3.743 3.743 0 0 0 1.24-.856c.353-.365.634-.816.84-1.352a5 5 0 0 0 .31-1.8v-.052c0-.646-.105-1.237-.31-1.774a4.136 4.136 0 0 0-.84-1.366 3.735 3.735 0 0 0-2.753-1.174 3.88 3.88 0 0 0-1.523.306 3.734 3.734 0 0 0-1.267.881 4.36 4.36 0 0 0-.866 1.366 4.615 4.615 0 0 0-.323 1.76v.053c0 .647.107 1.238.323 1.775.215.536.504.993.866 1.367a3.78 3.78 0 0 0 1.267.866c.481.206.989.306 1.523.306M81.55 18c-1.117 0-2.044-.238-2.784-.715a7.119 7.119 0 0 1-1.83-1.659v2.093h-3.154V.002h3.154l-.028 6.483a6.788 6.788 0 0 1 1.861-1.8c.74-.485 1.664-.729 2.765-.729.81 0 1.593.153 2.354.461a6.046 6.046 0 0 1 2.026 1.352c.594.597 1.072 1.328 1.435 2.196.362.868.542 1.865.542 2.987v.052c0 1.123-.177 2.119-.53 2.988-.35.867-.824 1.6-1.416 2.196a6.01 6.01 0 0 1-2.038 1.354 6.301 6.301 0 0 1-2.36.459M97.739 12.075a7.962 7.962 0 0 0-1.408-.382 9.191 9.191 0 0 0-1.72-.154c-.982 0-1.748.187-2.3.561-.553.375-.826.886-.826 1.533v.05c0 .646.253 1.14.762 1.48.508.342 1.133.512 1.874.512.517 0 .994-.069 1.433-.205a3.76 3.76 0 0 0 1.151-.574c.327-.246.58-.544.76-.893.184-.35.273-.736.273-1.163v-.766l.001.002Zm-.078 5.643v-1.66c-.464.546-1.059 1.005-1.783 1.379-.724.374-1.602.563-2.636.563-.655 0-1.275-.09-1.86-.27a4.578 4.578 0 0 1-1.538-.79 3.954 3.954 0 0 1-1.06-1.302c-.267-.52-.401-1.12-.401-1.8v-.05c0-.75.14-1.4.414-1.955a3.84 3.84 0 0 1 1.151-1.38c.49-.364 1.076-.636 1.757-.815a8.694 8.694 0 0 1 2.209-.269c.792 0 1.53.052 2.105.154.577.102 1.133.238 1.668.408v-.255c0-.937-.288-1.651-.865-2.146-.578-.492-1.409-.74-2.495-.74-.775 0-1.464.078-2.066.23-.604.154-1.215.358-1.836.613l-.852-2.477c.757-.34 1.532-.613 2.326-.818.791-.203 1.749-.306 2.867-.306 2.033 0 3.542.498 4.523 1.495.982.995 1.473 2.395 1.473 4.198v7.993H97.66ZM105.511 0h-3.152v17.718h3.152V0ZM111.036 0h-3.153v17.718h3.153V0Z"/><path fill="#EAFF01" d="M114.897 17.718a1.723 1.723 0 0 1-1.202-.474 1.592 1.592 0 0 1-.476-1.143v-.013c0-.225.043-.436.129-.634a1.637 1.637 0 0 1 .888-.87c.206-.088.431-.132.675-.132.244 0 .468.043.674.127a1.635 1.635 0 0 1 .884.866c.084.195.127.406.127.632v.01a1.62 1.62 0 0 1-1.021 1.501c-.207.088-.433.13-.678.13Z"/></svg>