<svg width="40" height="41" viewBox="0 0 40 41" fill="none" xmlns="http://www.w3.org/2000/svg">
  <path d="M33.0554 30.8407C32.5096 30.8407 32.002 30.742 31.5337 30.5403C31.0622 30.3407 30.6587 30.0694 30.3168 29.7245C29.977 29.3795 29.7094 28.9749 29.5172 28.5106C29.3261 28.0431 29.2305 27.5527 29.2305 27.0309V27.0006C29.2305 26.4701 29.3292 25.9733 29.5235 25.5068C29.72 25.0447 29.9876 24.6335 30.3306 24.2886C30.6704 23.9393 31.0781 23.6626 31.5475 23.4565C32.0158 23.2515 32.5298 23.1484 33.0841 23.1484C33.6384 23.1484 34.1502 23.2493 34.6195 23.4478C35.0889 23.6496 35.4946 23.9219 35.8354 24.2723C36.1795 24.6205 36.4449 25.0273 36.635 25.4873C36.8272 25.9461 36.9228 26.443 36.9228 26.9734V26.9995C36.9228 27.5213 36.824 28.0148 36.6286 28.4791C36.4343 28.9456 36.1656 29.3535 35.8258 29.7017C35.4818 30.0488 35.0751 30.3276 34.6004 30.5327C34.1289 30.7377 33.6139 30.8386 33.0564 30.8386" fill="#EAFF01"/>
  <path d="M35.3858 0.0712891H27.8787L19.7079 22.7625L10.766 0.0712891H3.07812L16.1931 30.6347C15.9866 31.0963 12.0771 40.0713 12.0771 40.0713H19.2304L35.3858 0.0712891Z" fill="white"/>
</svg>
