<svg xmlns="http://www.w3.org/2000/svg" width="186" height="7344" fill="none"><rect width="186" height="186" fill="#28293A" stroke="#3E3E4E" rx="40"/><path fill="#EAFF01" fill-rule="evenodd" d="m93 71.438-28.5 49.257H121.5L93 71.438Zm5.325-15.367c-2.369-4.095-8.281-4.095-10.65 0l-39.167 67.696c-2.373 4.101.587 9.233 5.325 9.233h78.334c4.738 0 7.698-5.132 5.325-9.233L98.325 56.071Z" clip-rule="evenodd"/><rect width="186" height="186" y="216" fill="#28293A" stroke="#3E3E4E" rx="40"/><path fill="#ADF454" fill-rule="evenodd" d="M65.5 281.5v55h55v-55h-55ZM59.25 269a6.25 6.25 0 0 0-6.25 6.25v67.5a6.25 6.25 0 0 0 6.25 6.25h67.5a6.25 6.25 0 0 0 6.25-6.25v-67.5a6.25 6.25 0 0 0-6.25-6.25h-67.5Z" clip-rule="evenodd"/><rect width="186" height="186" y="432" fill="#28293A" stroke="#3E3E4E" rx="40"/><path fill="#EAFF01" d="M119.111 546.541c-1.092 0-2.107-.198-3.044-.601a7.473 7.473 0 0 1-2.433-1.632 7.536 7.536 0 0 1-1.6-2.427 7.734 7.734 0 0 1-.573-2.96v-.061c0-1.06.197-2.054.586-2.987a7.695 7.695 0 0 1 1.614-2.437 7.667 7.667 0 0 1 2.434-1.664c.937-.41 1.965-.616 3.073-.616 1.109 0 2.132.202 3.071.599a7.485 7.485 0 0 1 4.031 4.079c.384.918.576 1.911.576 2.972v.052a7.555 7.555 0 0 1-.589 2.96 7.718 7.718 0 0 1-1.605 2.445 7.732 7.732 0 0 1-2.451 1.662c-.943.41-1.973.612-3.088.612"/><path fill="#fff" d="M123.77 485h-15.015l-16.341 45.382L74.53 485H59.154l26.23 61.127c-.413.923-8.232 18.873-8.232 18.873H91.46l32.311-80Z"/><rect width="186" height="186" y="648" fill="#28293A" stroke="#3E3E4E" rx="40"/><path fill="#51DBEA" fill-rule="evenodd" d="M93 768.5c15.188 0 27.5-12.312 27.5-27.5s-12.312-27.5-27.5-27.5-27.5 12.312-27.5 27.5 12.312 27.5 27.5 27.5Zm0 12.5c22.091 0 40-17.909 40-40s-17.909-40-40-40-40 17.909-40 40 17.909 40 40 40Z" clip-rule="evenodd"/><rect width="186" height="186" y="864" fill="#28293A" stroke="#3E3E4E" rx="40"/><path fill="#A58EF7" fill-rule="evenodd" d="m93 932.131-27.004 19.553 10.298 31.587h33.412l10.298-31.587L93 932.131Zm3.502-12.207a5.97 5.97 0 0 0-7.004 0L55.47 944.563a5.971 5.971 0 0 0-2.175 6.687l12.99 39.842a5.97 5.97 0 0 0 5.677 4.12h42.078a5.97 5.97 0 0 0 5.677-4.12l12.99-39.842a5.973 5.973 0 0 0-2.175-6.687l-34.03-24.639Z" clip-rule="evenodd"/><rect width="186" height="186" y="1080" fill="#28293A" stroke="#3E3E4E" rx="40"/><path fill="#EAFF01" fill-rule="evenodd" d="m93 1151.44-28.5 49.26H121.5L93 1151.44Zm5.325-15.37c-2.369-4.09-8.281-4.09-10.65 0l-39.167 67.7c-2.373 4.1.587 9.23 5.325 9.23h78.334c4.738 0 7.698-5.13 5.325-9.23l-39.167-67.7Z" clip-rule="evenodd"/><rect width="186" height="186" y="1296" fill="#28293A" stroke="#3E3E4E" rx="40"/><path fill="#ADF454" fill-rule="evenodd" d="M65.5 1361.5v55h55v-55h-55Zm-6.25-12.5c-3.452 0-6.25 2.8-6.25 6.25v67.5c0 3.45 2.798 6.25 6.25 6.25h67.5c3.452 0 6.25-2.8 6.25-6.25v-67.5c0-3.45-2.798-6.25-6.25-6.25h-67.5Z" clip-rule="evenodd"/><rect width="186" height="186" y="1512" fill="#28293A" stroke="#3E3E4E" rx="40"/><path fill="#EAFF01" d="M119.111 1626.54c-1.092 0-2.107-.2-3.044-.6-.943-.4-1.75-.94-2.433-1.63a7.528 7.528 0 0 1-1.6-2.43 7.726 7.726 0 0 1-.573-2.96v-.06c0-1.06.197-2.05.586-2.99a7.708 7.708 0 0 1 4.048-4.1c.937-.41 1.965-.61 3.073-.61 1.109 0 2.132.2 3.071.6.939.4 1.75.94 2.432 1.64.688.7 1.219 1.51 1.599 2.43.384.92.576 1.92.576 2.98v.05c0 1.04-.198 2.03-.589 2.96a7.651 7.651 0 0 1-1.605 2.44 7.63 7.63 0 0 1-2.451 1.66c-.943.41-1.973.62-3.088.62"/><path fill="#fff" d="M123.77 1565h-15.015l-16.341 45.38L74.53 1565H59.154l26.23 61.13c-.413.92-8.232 18.87-8.232 18.87H91.46l32.311-80Z"/><rect width="186" height="186" y="1728" fill="#28293A" stroke="#3E3E4E" rx="40"/><path fill="#51DBEA" fill-rule="evenodd" d="M93 1848.5c15.188 0 27.5-12.31 27.5-27.5s-12.312-27.5-27.5-27.5-27.5 12.31-27.5 27.5 12.312 27.5 27.5 27.5Zm0 12.5c22.091 0 40-17.91 40-40s-17.909-40-40-40-40 17.91-40 40 17.909 40 40 40Z" clip-rule="evenodd"/><rect width="186" height="186" y="1944" fill="#28293A" stroke="#3E3E4E" rx="40"/><path fill="#A58EF7" fill-rule="evenodd" d="m93 2012.13-27.004 19.55 10.298 31.59h33.412l10.298-31.59L93 2012.13Zm3.502-12.21a5.98 5.98 0 0 0-7.004 0l-34.029 24.64a5.978 5.978 0 0 0-2.175 6.69l12.99 39.84a5.967 5.967 0 0 0 5.677 4.12h42.078a5.967 5.967 0 0 0 5.677-4.12l12.99-39.84a5.98 5.98 0 0 0-2.175-6.69l-34.03-24.64Z" clip-rule="evenodd"/><rect width="186" height="186" y="2160" fill="#28293A" stroke="#3E3E4E" rx="40"/><path fill="#EAFF01" fill-rule="evenodd" d="m93 2231.44-28.5 49.26H121.5L93 2231.44Zm5.325-15.37c-2.369-4.09-8.281-4.09-10.65 0l-39.167 67.7c-2.373 4.1.587 9.23 5.325 9.23h78.334c4.738 0 7.698-5.13 5.325-9.23l-39.167-67.7Z" clip-rule="evenodd"/><rect width="186" height="186" y="2376" fill="#28293A" stroke="#3E3E4E" rx="40"/><path fill="#ADF454" fill-rule="evenodd" d="M65.5 2441.5v55h55v-55h-55Zm-6.25-12.5c-3.452 0-6.25 2.8-6.25 6.25v67.5c0 3.45 2.798 6.25 6.25 6.25h67.5c3.452 0 6.25-2.8 6.25-6.25v-67.5c0-3.45-2.798-6.25-6.25-6.25h-67.5Z" clip-rule="evenodd"/><rect width="186" height="186" y="2592" fill="#28293A" stroke="#3E3E4E" rx="40"/><path fill="#EAFF01" d="M119.111 2706.54c-1.092 0-2.107-.2-3.044-.6-.943-.4-1.75-.94-2.433-1.63a7.528 7.528 0 0 1-1.6-2.43 7.763 7.763 0 0 1-.573-2.96v-.06c0-1.06.197-2.06.586-2.99.393-.92.928-1.75 1.614-2.44a7.739 7.739 0 0 1 2.434-1.66 7.597 7.597 0 0 1 3.073-.62c1.109 0 2.132.21 3.071.6.939.41 1.75.95 2.432 1.65.688.7 1.219 1.51 1.599 2.43.384.92.576 1.91.576 2.97v.06c0 1.04-.198 2.03-.589 2.96a7.763 7.763 0 0 1-1.605 2.44 7.63 7.63 0 0 1-2.451 1.66c-.943.41-1.973.61-3.088.61"/><path fill="#fff" d="M123.77 2645h-15.015l-16.341 45.38L74.53 2645H59.154l26.23 61.13c-.413.92-8.232 18.87-8.232 18.87H91.46l32.311-80Z"/><rect width="186" height="186" y="2808" fill="#28293A" stroke="#3E3E4E" rx="40"/><path fill="#51DBEA" fill-rule="evenodd" d="M93 2928.5c15.188 0 27.5-12.31 27.5-27.5s-12.312-27.5-27.5-27.5-27.5 12.31-27.5 27.5 12.312 27.5 27.5 27.5Zm0 12.5c22.091 0 40-17.91 40-40s-17.909-40-40-40-40 17.91-40 40 17.909 40 40 40Z" clip-rule="evenodd"/><rect width="186" height="186" y="3024" fill="#28293A" stroke="#3E3E4E" rx="40"/><path fill="#A58EF7" fill-rule="evenodd" d="m93 3092.13-27.004 19.55 10.298 31.59h33.412l10.298-31.59L93 3092.13Zm3.502-12.21a5.98 5.98 0 0 0-7.004 0l-34.029 24.64a5.978 5.978 0 0 0-2.175 6.69l12.99 39.84a5.967 5.967 0 0 0 5.677 4.12h42.078a5.967 5.967 0 0 0 5.677-4.12l12.99-39.84a5.98 5.98 0 0 0-2.175-6.69l-34.03-24.64Z" clip-rule="evenodd"/><rect width="186" height="186" y="3240" fill="#28293A" stroke="#3E3E4E" rx="40"/><path fill="#EAFF01" fill-rule="evenodd" d="m93 3311.44-28.5 49.26H121.5L93 3311.44Zm5.325-15.37c-2.369-4.09-8.281-4.09-10.65 0l-39.167 67.7c-2.373 4.1.587 9.23 5.325 9.23h78.334c4.738 0 7.698-5.13 5.325-9.23l-39.167-67.7Z" clip-rule="evenodd"/><rect width="186" height="186" y="3456" fill="#28293A" stroke="#3E3E4E" rx="40"/><path fill="#ADF454" fill-rule="evenodd" d="M65.5 3521.5v55h55v-55h-55Zm-6.25-12.5c-3.452 0-6.25 2.8-6.25 6.25v67.5c0 3.45 2.798 6.25 6.25 6.25h67.5c3.452 0 6.25-2.8 6.25-6.25v-67.5c0-3.45-2.798-6.25-6.25-6.25h-67.5Z" clip-rule="evenodd"/><rect width="186" height="186" y="3672" fill="#28293A" stroke="#3E3E4E" rx="40"/><path fill="#EAFF01" d="M119.111 3786.54c-1.092 0-2.107-.2-3.044-.6-.943-.4-1.75-.94-2.433-1.63a7.528 7.528 0 0 1-1.6-2.43 7.763 7.763 0 0 1-.573-2.96v-.06c0-1.06.197-2.06.586-2.99.393-.92.928-1.75 1.614-2.44a7.739 7.739 0 0 1 2.434-1.66 7.597 7.597 0 0 1 3.073-.62c1.109 0 2.132.21 3.071.6.939.41 1.75.95 2.432 1.65.688.7 1.219 1.51 1.599 2.43.384.92.576 1.91.576 2.97v.06c0 1.04-.198 2.03-.589 2.96a7.763 7.763 0 0 1-1.605 2.44 7.63 7.63 0 0 1-2.451 1.66c-.943.41-1.973.61-3.088.61"/><path fill="#fff" d="M123.77 3725h-15.015l-16.341 45.38L74.53 3725H59.154l26.23 61.13c-.413.92-8.232 18.87-8.232 18.87H91.46l32.311-80Z"/><rect width="186" height="186" y="3888" fill="#28293A" stroke="#3E3E4E" rx="40"/><path fill="#51DBEA" fill-rule="evenodd" d="M93 4008.5c15.188 0 27.5-12.31 27.5-27.5s-12.312-27.5-27.5-27.5-27.5 12.31-27.5 27.5 12.312 27.5 27.5 27.5Zm0 12.5c22.091 0 40-17.91 40-40s-17.909-40-40-40-40 17.91-40 40 17.909 40 40 40Z" clip-rule="evenodd"/><rect width="186" height="186" y="4104" fill="#28293A" stroke="#3E3E4E" rx="40"/><path fill="#A58EF7" fill-rule="evenodd" d="m93 4172.13-27.004 19.55 10.298 31.59h33.412l10.298-31.59L93 4172.13Zm3.502-12.21a5.98 5.98 0 0 0-7.004 0l-34.029 24.64a5.978 5.978 0 0 0-2.175 6.69l12.99 39.84a5.967 5.967 0 0 0 5.677 4.12h42.078a5.967 5.967 0 0 0 5.677-4.12l12.99-39.84a5.98 5.98 0 0 0-2.175-6.69l-34.03-24.64Z" clip-rule="evenodd"/><rect width="186" height="186" y="4320" fill="#28293A" stroke="#3E3E4E" rx="40"/><path fill="#EAFF01" fill-rule="evenodd" d="m93 4391.44-28.5 49.26H121.5L93 4391.44Zm5.325-15.37c-2.369-4.09-8.281-4.09-10.65 0l-39.167 67.7c-2.373 4.1.587 9.23 5.325 9.23h78.334c4.738 0 7.698-5.13 5.325-9.23l-39.167-67.7Z" clip-rule="evenodd"/><rect width="186" height="186" y="4536" fill="#28293A" stroke="#3E3E4E" rx="40"/><path fill="#ADF454" fill-rule="evenodd" d="M65.5 4601.5v55h55v-55h-55Zm-6.25-12.5c-3.452 0-6.25 2.8-6.25 6.25v67.5c0 3.45 2.798 6.25 6.25 6.25h67.5c3.452 0 6.25-2.8 6.25-6.25v-67.5c0-3.45-2.798-6.25-6.25-6.25h-67.5Z" clip-rule="evenodd"/><rect width="186" height="186" y="4752" fill="#28293A" stroke="#3E3E4E" rx="40"/><path fill="#EAFF01" d="M119.111 4866.54c-1.092 0-2.107-.2-3.044-.6-.943-.4-1.75-.94-2.433-1.63a7.528 7.528 0 0 1-1.6-2.43 7.763 7.763 0 0 1-.573-2.96v-.06c0-1.06.197-2.06.586-2.99.393-.92.928-1.75 1.614-2.44a7.739 7.739 0 0 1 2.434-1.66 7.597 7.597 0 0 1 3.073-.62c1.109 0 2.132.21 3.071.6.939.41 1.75.95 2.432 1.65.688.7 1.219 1.51 1.599 2.43.384.92.576 1.91.576 2.97v.06c0 1.04-.198 2.03-.589 2.96a7.763 7.763 0 0 1-1.605 2.44 7.63 7.63 0 0 1-2.451 1.66c-.943.41-1.973.61-3.088.61"/><path fill="#fff" d="M123.77 4805h-15.015l-16.341 45.38L74.53 4805H59.154l26.23 61.13c-.413.92-8.232 18.87-8.232 18.87H91.46l32.311-80Z"/><rect width="186" height="186" y="4968" fill="#28293A" stroke="#3E3E4E" rx="40"/><path fill="#51DBEA" fill-rule="evenodd" d="M93 5088.5c15.188 0 27.5-12.31 27.5-27.5s-12.312-27.5-27.5-27.5-27.5 12.31-27.5 27.5 12.312 27.5 27.5 27.5Zm0 12.5c22.091 0 40-17.91 40-40s-17.909-40-40-40-40 17.91-40 40 17.909 40 40 40Z" clip-rule="evenodd"/><rect width="186" height="186" y="5184" fill="#28293A" stroke="#3E3E4E" rx="40"/><path fill="#A58EF7" fill-rule="evenodd" d="m93 5252.13-27.004 19.55 10.298 31.59h33.412l10.298-31.59L93 5252.13Zm3.502-12.21a5.98 5.98 0 0 0-7.004 0l-34.029 24.64a5.978 5.978 0 0 0-2.175 6.69l12.99 39.84a5.967 5.967 0 0 0 5.677 4.12h42.078a5.967 5.967 0 0 0 5.677-4.12l12.99-39.84a5.98 5.98 0 0 0-2.175-6.69l-34.03-24.64Z" clip-rule="evenodd"/><rect width="186" height="186" y="5400" fill="#28293A" stroke="#3E3E4E" rx="40"/><path fill="#EAFF01" fill-rule="evenodd" d="m93 5471.44-28.5 49.26H121.5L93 5471.44Zm5.325-15.37c-2.369-4.09-8.281-4.09-10.65 0l-39.167 67.7c-2.373 4.1.587 9.23 5.325 9.23h78.334c4.738 0 7.698-5.13 5.325-9.23l-39.167-67.7Z" clip-rule="evenodd"/><rect width="186" height="186" y="5616" fill="#28293A" stroke="#3E3E4E" rx="40"/><path fill="#ADF454" fill-rule="evenodd" d="M65.5 5681.5v55h55v-55h-55Zm-6.25-12.5c-3.452 0-6.25 2.8-6.25 6.25v67.5c0 3.45 2.798 6.25 6.25 6.25h67.5c3.452 0 6.25-2.8 6.25-6.25v-67.5c0-3.45-2.798-6.25-6.25-6.25h-67.5Z" clip-rule="evenodd"/><rect width="186" height="186" y="5832" fill="#28293A" stroke="#3E3E4E" rx="40"/><path fill="#EAFF01" d="M119.111 5946.54c-1.092 0-2.107-.2-3.044-.6-.943-.4-1.75-.94-2.433-1.63a7.528 7.528 0 0 1-1.6-2.43 7.763 7.763 0 0 1-.573-2.96v-.06c0-1.06.197-2.06.586-2.99.393-.92.928-1.75 1.614-2.44a7.739 7.739 0 0 1 2.434-1.66 7.597 7.597 0 0 1 3.073-.62c1.109 0 2.132.21 3.071.6.939.41 1.75.95 2.432 1.65.688.7 1.219 1.51 1.599 2.43.384.92.576 1.91.576 2.97v.06c0 1.04-.198 2.03-.589 2.96a7.763 7.763 0 0 1-1.605 2.44 7.63 7.63 0 0 1-2.451 1.66c-.943.41-1.973.61-3.088.61"/><path fill="#fff" d="M123.77 5885h-15.015l-16.341 45.38L74.53 5885H59.154l26.23 61.13c-.413.92-8.232 18.87-8.232 18.87H91.46l32.311-80Z"/><rect width="186" height="186" y="6048" fill="#28293A" stroke="#3E3E4E" rx="40"/><path fill="#51DBEA" fill-rule="evenodd" d="M93 6168.5c15.188 0 27.5-12.31 27.5-27.5s-12.312-27.5-27.5-27.5-27.5 12.31-27.5 27.5 12.312 27.5 27.5 27.5Zm0 12.5c22.091 0 40-17.91 40-40s-17.909-40-40-40-40 17.91-40 40 17.909 40 40 40Z" clip-rule="evenodd"/><rect width="186" height="186" y="6264" fill="#28293A" stroke="#3E3E4E" rx="40"/><path fill="#A58EF7" fill-rule="evenodd" d="m93 6332.13-27.004 19.55 10.298 31.59h33.412l10.298-31.59L93 6332.13Zm3.502-12.21a5.98 5.98 0 0 0-7.004 0l-34.029 24.64a5.978 5.978 0 0 0-2.175 6.69l12.99 39.84a5.967 5.967 0 0 0 5.677 4.12h42.078a5.967 5.967 0 0 0 5.677-4.12l12.99-39.84a5.98 5.98 0 0 0-2.175-6.69l-34.03-24.64Z" clip-rule="evenodd"/><rect width="186" height="186" y="6480" fill="#28293A" stroke="#3E3E4E" rx="40"/><path fill="#EAFF01" fill-rule="evenodd" d="m93 6551.44-28.5 49.26H121.5L93 6551.44Zm5.325-15.37c-2.369-4.09-8.281-4.09-10.65 0l-39.167 67.7c-2.373 4.1.587 9.23 5.325 9.23h78.334c4.738 0 7.698-5.13 5.325-9.23l-39.167-67.7Z" clip-rule="evenodd"/><rect width="186" height="186" y="6696" fill="#28293A" stroke="#3E3E4E" rx="40"/><path fill="#ADF454" fill-rule="evenodd" d="M65.5 6761.5v55h55v-55h-55Zm-6.25-12.5c-3.452 0-6.25 2.8-6.25 6.25v67.5c0 3.45 2.798 6.25 6.25 6.25h67.5c3.452 0 6.25-2.8 6.25-6.25v-67.5c0-3.45-2.798-6.25-6.25-6.25h-67.5Z" clip-rule="evenodd"/><rect width="186" height="186" y="6912" fill="#28293A" stroke="#3E3E4E" rx="40"/><path fill="#EAFF01" d="M119.111 7026.54c-1.092 0-2.107-.2-3.044-.6-.943-.4-1.75-.94-2.433-1.63a7.528 7.528 0 0 1-1.6-2.43 7.763 7.763 0 0 1-.573-2.96v-.06c0-1.06.197-2.06.586-2.99.393-.92.928-1.75 1.614-2.44a7.739 7.739 0 0 1 2.434-1.66 7.597 7.597 0 0 1 3.073-.62c1.109 0 2.132.21 3.071.6.939.41 1.75.95 2.432 1.65.688.7 1.219 1.51 1.599 2.43.384.92.576 1.91.576 2.97v.06c0 1.04-.198 2.03-.589 2.96a7.763 7.763 0 0 1-1.605 2.44 7.63 7.63 0 0 1-2.451 1.66c-.943.41-1.973.61-3.088.61"/><path fill="#fff" d="M123.77 6965h-15.015l-16.341 45.38L74.53 6965H59.154l26.23 61.13c-.413.92-8.232 18.87-8.232 18.87H91.46l32.311-80Z"/><rect width="186" height="186" y="7128" fill="#28293A" stroke="#3E3E4E" rx="40"/><path fill="#51DBEA" fill-rule="evenodd" d="M93 7248.5c15.188 0 27.5-12.31 27.5-27.5s-12.312-27.5-27.5-27.5-27.5 12.31-27.5 27.5 12.312 27.5 27.5 27.5Zm0 12.5c22.091 0 40-17.91 40-40s-17.909-40-40-40-40 17.91-40 40 17.909 40 40 40Z" clip-rule="evenodd"/></svg>