<svg width="186" height="7344" viewBox="0 0 186 7344" fill="none" xmlns="http://www.w3.org/2000/svg">
<rect width="186" height="186" rx="40" fill="#28293A" stroke="#3E3E4E" />
<path fill-rule="evenodd" clip-rule="evenodd" d="M93 71.4376L64.5009 120.695H121.499L93 71.4376ZM98.3253 56.0713C95.956 51.9762 90.044 51.9762 87.6747 56.0713L48.5081 123.767C46.1351 127.868 49.0948 133 53.8334 133H132.167C136.905 133 139.865 127.868 137.492 123.767L98.3253 56.0713Z" fill="#EAFF01"/>
<rect y="216" width="186" height="186" rx="40" fill="#28293A" stroke="#3E3E4E"/>
<path fill-rule="evenodd" clip-rule="evenodd" d="M65.5 281.5V336.5H120.5V281.5H65.5ZM59.25 269C55.7982 269 53 271.798 53 275.25V342.75C53 346.202 55.7982 349 59.25 349H126.75C130.202 349 133 346.202 133 342.75V275.25C133 271.798 130.202 269 126.75 269H59.25Z" fill="#ADF454"/>
<rect y="432" width="186" height="186" rx="40" fill="#28293A" stroke="#3E3E4E"/>
<path d="M119.111 546.541C118.019 546.541 117.004 546.343 116.067 545.94C115.124 545.541 114.317 544.998 113.634 544.308C112.954 543.618 112.419 542.809 112.034 541.881C111.652 540.945 111.461 539.965 111.461 538.921V538.86C111.461 537.8 111.658 536.806 112.047 535.873C112.44 534.949 112.975 534.126 113.661 533.436C114.341 532.738 115.156 532.185 116.095 531.772C117.032 531.362 118.06 531.156 119.168 531.156C120.277 531.156 121.3 531.358 122.239 531.755C123.178 532.159 123.989 532.703 124.671 533.404C125.359 534.1 125.89 534.914 126.27 535.834C126.654 536.752 126.846 537.745 126.846 538.806V538.858C126.846 539.902 126.648 540.889 126.257 541.818C125.869 542.751 125.331 543.566 124.652 544.263C123.964 544.957 123.15 545.515 122.201 545.925C121.258 546.335 120.228 546.537 119.113 546.537" fill="#EAFF01"/>
<path d="M123.77 485H108.755L92.4138 530.382L74.53 485H59.1543L85.3842 546.127C84.9712 547.05 77.1522 565 77.1522 565H91.4588L123.77 485Z" fill="white"/>
<rect y="648" width="186" height="186" rx="40" fill="#28293A" stroke="#3E3E4E"/>
<path fill-rule="evenodd" clip-rule="evenodd" d="M93 768.5C108.188 768.5 120.5 756.188 120.5 741C120.5 725.812 108.188 713.5 93 713.5C77.8122 713.5 65.5 725.812 65.5 741C65.5 756.188 77.8122 768.5 93 768.5ZM93 781C115.091 781 133 763.091 133 741C133 718.909 115.091 701 93 701C70.9086 701 53 718.909 53 741C53 763.091 70.9086 781 93 781Z" fill="#51DBEA"/>
<rect y="864" width="186" height="186" rx="40" fill="#28293A" stroke="#3E3E4E"/>
<path fill-rule="evenodd" clip-rule="evenodd" d="M93 932.131L65.9957 951.684L76.2939 983.271H109.706L120.004 951.684L93 932.131ZM96.5016 919.924C94.4123 918.411 91.5877 918.411 89.4984 919.924L55.4694 944.563C53.3697 946.084 52.4909 948.785 53.2945 951.25L66.2842 991.092C67.0852 993.549 69.3762 995.212 71.9606 995.212H114.039C116.624 995.212 118.915 993.549 119.716 991.092L132.706 951.25C133.509 948.785 132.63 946.084 130.531 944.563L96.5016 919.924Z" fill="#A58EF7"/>
<rect y="1080" width="186" height="186" rx="40" fill="#28293A" stroke="#3E3E4E"/>
<path fill-rule="evenodd" clip-rule="evenodd" d="M93 1151.44L64.5009 1200.7H121.499L93 1151.44ZM98.3253 1136.07C95.956 1131.98 90.044 1131.98 87.6747 1136.07L48.5081 1203.77C46.1351 1207.87 49.0948 1213 53.8334 1213H132.167C136.905 1213 139.865 1207.87 137.492 1203.77L98.3253 1136.07Z" fill="#EAFF01"/>
<rect y="1296" width="186" height="186" rx="40" fill="#28293A" stroke="#3E3E4E"/>
<path fill-rule="evenodd" clip-rule="evenodd" d="M65.5 1361.5V1416.5H120.5V1361.5H65.5ZM59.25 1349C55.7982 1349 53 1351.8 53 1355.25V1422.75C53 1426.2 55.7982 1429 59.25 1429H126.75C130.202 1429 133 1426.2 133 1422.75V1355.25C133 1351.8 130.202 1349 126.75 1349H59.25Z" fill="#ADF454"/>
<rect y="1512" width="186" height="186" rx="40" fill="#28293A" stroke="#3E3E4E"/>
<path d="M119.111 1626.54C118.019 1626.54 117.004 1626.34 116.067 1625.94C115.124 1625.54 114.317 1625 113.634 1624.31C112.954 1623.62 112.419 1622.81 112.034 1621.88C111.652 1620.95 111.461 1619.96 111.461 1618.92V1618.86C111.461 1617.8 111.658 1616.81 112.047 1615.87C112.44 1614.95 112.975 1614.13 113.661 1613.44C114.341 1612.74 115.156 1612.18 116.095 1611.77C117.032 1611.36 118.06 1611.16 119.168 1611.16C120.277 1611.16 121.3 1611.36 122.239 1611.76C123.178 1612.16 123.989 1612.7 124.671 1613.4C125.359 1614.1 125.89 1614.91 126.27 1615.83C126.654 1616.75 126.846 1617.75 126.846 1618.81V1618.86C126.846 1619.9 126.648 1620.89 126.257 1621.82C125.869 1622.75 125.331 1623.57 124.652 1624.26C123.964 1624.96 123.15 1625.51 122.201 1625.92C121.258 1626.33 120.228 1626.54 119.113 1626.54" fill="#EAFF01"/>
<path d="M123.77 1565H108.755L92.4138 1610.38L74.53 1565H59.1543L85.3842 1626.13C84.9712 1627.05 77.1522 1645 77.1522 1645H91.4588L123.77 1565Z" fill="white"/>
<rect y="1728" width="186" height="186" rx="40" fill="#28293A" stroke="#3E3E4E"/>
<path fill-rule="evenodd" clip-rule="evenodd" d="M93 1848.5C108.188 1848.5 120.5 1836.19 120.5 1821C120.5 1805.81 108.188 1793.5 93 1793.5C77.8122 1793.5 65.5 1805.81 65.5 1821C65.5 1836.19 77.8122 1848.5 93 1848.5ZM93 1861C115.091 1861 133 1843.09 133 1821C133 1798.91 115.091 1781 93 1781C70.9086 1781 53 1798.91 53 1821C53 1843.09 70.9086 1861 93 1861Z" fill="#51DBEA"/>
<rect y="1944" width="186" height="186" rx="40" fill="#28293A" stroke="#3E3E4E"/>
<path fill-rule="evenodd" clip-rule="evenodd" d="M93 2012.13L65.9957 2031.68L76.2939 2063.27H109.706L120.004 2031.68L93 2012.13ZM96.5016 1999.92C94.4123 1998.41 91.5877 1998.41 89.4984 1999.92L55.4694 2024.56C53.3697 2026.08 52.4909 2028.79 53.2945 2031.25L66.2842 2071.09C67.0852 2073.55 69.3762 2075.21 71.9606 2075.21H114.039C116.624 2075.21 118.915 2073.55 119.716 2071.09L132.706 2031.25C133.509 2028.79 132.63 2026.08 130.531 2024.56L96.5016 1999.92Z" fill="#A58EF7"/>
<rect y="2160" width="186" height="186" rx="40" fill="#28293A" stroke="#3E3E4E"/>
<path fill-rule="evenodd" clip-rule="evenodd" d="M93 2231.44L64.5009 2280.7H121.499L93 2231.44ZM98.3253 2216.07C95.956 2211.98 90.044 2211.98 87.6747 2216.07L48.5081 2283.77C46.1351 2287.87 49.0948 2293 53.8334 2293H132.167C136.905 2293 139.865 2287.87 137.492 2283.77L98.3253 2216.07Z" fill="#EAFF01"/>
<rect y="2376" width="186" height="186" rx="40" fill="#28293A" stroke="#3E3E4E"/>
<path fill-rule="evenodd" clip-rule="evenodd" d="M65.5 2441.5V2496.5H120.5V2441.5H65.5ZM59.25 2429C55.7982 2429 53 2431.8 53 2435.25V2502.75C53 2506.2 55.7982 2509 59.25 2509H126.75C130.202 2509 133 2506.2 133 2502.75V2435.25C133 2431.8 130.202 2429 126.75 2429H59.25Z" fill="#ADF454"/>
<rect y="2592" width="186" height="186" rx="40" fill="#28293A" stroke="#3E3E4E"/>
<path d="M119.111 2706.54C118.019 2706.54 117.004 2706.34 116.067 2705.94C115.124 2705.54 114.317 2705 113.634 2704.31C112.954 2703.62 112.419 2702.81 112.034 2701.88C111.652 2700.94 111.461 2699.96 111.461 2698.92V2698.86C111.461 2697.8 111.658 2696.8 112.047 2695.87C112.44 2694.95 112.975 2694.12 113.661 2693.43C114.341 2692.74 115.156 2692.18 116.095 2691.77C117.032 2691.36 118.06 2691.15 119.168 2691.15C120.277 2691.15 121.3 2691.36 122.239 2691.75C123.178 2692.16 123.989 2692.7 124.671 2693.4C125.359 2694.1 125.89 2694.91 126.27 2695.83C126.654 2696.75 126.846 2697.74 126.846 2698.8V2698.86C126.846 2699.9 126.648 2700.89 126.257 2701.82C125.869 2702.75 125.331 2703.56 124.652 2704.26C123.964 2704.96 123.15 2705.51 122.201 2705.92C121.258 2706.33 120.228 2706.53 119.113 2706.53" fill="#EAFF01"/>
<path d="M123.77 2645H108.755L92.4138 2690.38L74.53 2645H59.1543L85.3842 2706.13C84.9712 2707.05 77.1522 2725 77.1522 2725H91.4588L123.77 2645Z" fill="white"/>
<rect y="2808" width="186" height="186" rx="40" fill="#28293A" stroke="#3E3E4E"/>
<path fill-rule="evenodd" clip-rule="evenodd" d="M93 2928.5C108.188 2928.5 120.5 2916.19 120.5 2901C120.5 2885.81 108.188 2873.5 93 2873.5C77.8122 2873.5 65.5 2885.81 65.5 2901C65.5 2916.19 77.8122 2928.5 93 2928.5ZM93 2941C115.091 2941 133 2923.09 133 2901C133 2878.91 115.091 2861 93 2861C70.9086 2861 53 2878.91 53 2901C53 2923.09 70.9086 2941 93 2941Z" fill="#51DBEA"/>
<rect y="3024" width="186" height="186" rx="40" fill="#28293A" stroke="#3E3E4E"/>
<path fill-rule="evenodd" clip-rule="evenodd" d="M93 3092.13L65.9957 3111.68L76.2939 3143.27H109.706L120.004 3111.68L93 3092.13ZM96.5016 3079.92C94.4123 3078.41 91.5877 3078.41 89.4984 3079.92L55.4694 3104.56C53.3697 3106.08 52.4909 3108.79 53.2945 3111.25L66.2842 3151.09C67.0852 3153.55 69.3762 3155.21 71.9606 3155.21H114.039C116.624 3155.21 118.915 3153.55 119.716 3151.09L132.706 3111.25C133.509 3108.79 132.63 3106.08 130.531 3104.56L96.5016 3079.92Z" fill="#A58EF7"/>
<rect y="3240" width="186" height="186" rx="40" fill="#28293A" stroke="#3E3E4E"/>
<path fill-rule="evenodd" clip-rule="evenodd" d="M93 3311.44L64.5009 3360.7H121.499L93 3311.44ZM98.3253 3296.07C95.956 3291.98 90.044 3291.98 87.6747 3296.07L48.5081 3363.77C46.1351 3367.87 49.0948 3373 53.8334 3373H132.167C136.905 3373 139.865 3367.87 137.492 3363.77L98.3253 3296.07Z" fill="#EAFF01"/>
<rect y="3456" width="186" height="186" rx="40" fill="#28293A" stroke="#3E3E4E"/>
<path fill-rule="evenodd" clip-rule="evenodd" d="M65.5 3521.5V3576.5H120.5V3521.5H65.5ZM59.25 3509C55.7982 3509 53 3511.8 53 3515.25V3582.75C53 3586.2 55.7982 3589 59.25 3589H126.75C130.202 3589 133 3586.2 133 3582.75V3515.25C133 3511.8 130.202 3509 126.75 3509H59.25Z" fill="#ADF454"/>
<rect y="3672" width="186" height="186" rx="40" fill="#28293A" stroke="#3E3E4E"/>
<path d="M119.111 3786.54C118.019 3786.54 117.004 3786.34 116.067 3785.94C115.124 3785.54 114.317 3785 113.634 3784.31C112.954 3783.62 112.419 3782.81 112.034 3781.88C111.652 3780.94 111.461 3779.96 111.461 3778.92V3778.86C111.461 3777.8 111.658 3776.8 112.047 3775.87C112.44 3774.95 112.975 3774.12 113.661 3773.43C114.341 3772.74 115.156 3772.18 116.095 3771.77C117.032 3771.36 118.06 3771.15 119.168 3771.15C120.277 3771.15 121.3 3771.36 122.239 3771.75C123.178 3772.16 123.989 3772.7 124.671 3773.4C125.359 3774.1 125.89 3774.91 126.27 3775.83C126.654 3776.75 126.846 3777.74 126.846 3778.8V3778.86C126.846 3779.9 126.648 3780.89 126.257 3781.82C125.869 3782.75 125.331 3783.56 124.652 3784.26C123.964 3784.96 123.15 3785.51 122.201 3785.92C121.258 3786.33 120.228 3786.53 119.113 3786.53" fill="#EAFF01"/>
<path d="M123.77 3725H108.755L92.4138 3770.38L74.53 3725H59.1543L85.3842 3786.13C84.9712 3787.05 77.1522 3805 77.1522 3805H91.4588L123.77 3725Z" fill="white"/>
<rect y="3888" width="186" height="186" rx="40" fill="#28293A" stroke="#3E3E4E"/>
<path fill-rule="evenodd" clip-rule="evenodd" d="M93 4008.5C108.188 4008.5 120.5 3996.19 120.5 3981C120.5 3965.81 108.188 3953.5 93 3953.5C77.8122 3953.5 65.5 3965.81 65.5 3981C65.5 3996.19 77.8122 4008.5 93 4008.5ZM93 4021C115.091 4021 133 4003.09 133 3981C133 3958.91 115.091 3941 93 3941C70.9086 3941 53 3958.91 53 3981C53 4003.09 70.9086 4021 93 4021Z" fill="#51DBEA"/>
<rect y="4104" width="186" height="186" rx="40" fill="#28293A" stroke="#3E3E4E"/>
<path fill-rule="evenodd" clip-rule="evenodd" d="M93 4172.13L65.9957 4191.68L76.2939 4223.27H109.706L120.004 4191.68L93 4172.13ZM96.5016 4159.92C94.4123 4158.41 91.5877 4158.41 89.4984 4159.92L55.4694 4184.56C53.3697 4186.08 52.4909 4188.79 53.2945 4191.25L66.2842 4231.09C67.0852 4233.55 69.3762 4235.21 71.9606 4235.21H114.039C116.624 4235.21 118.915 4233.55 119.716 4231.09L132.706 4191.25C133.509 4188.79 132.63 4186.08 130.531 4184.56L96.5016 4159.92Z" fill="#A58EF7"/>
<rect y="4320" width="186" height="186" rx="40" fill="#28293A" stroke="#3E3E4E"/>
<path fill-rule="evenodd" clip-rule="evenodd" d="M93 4391.44L64.5009 4440.7H121.499L93 4391.44ZM98.3253 4376.07C95.956 4371.98 90.044 4371.98 87.6747 4376.07L48.5081 4443.77C46.1351 4447.87 49.0948 4453 53.8334 4453H132.167C136.905 4453 139.865 4447.87 137.492 4443.77L98.3253 4376.07Z" fill="#EAFF01"/>
<rect y="4536" width="186" height="186" rx="40" fill="#28293A" stroke="#3E3E4E"/>
<path fill-rule="evenodd" clip-rule="evenodd" d="M65.5 4601.5V4656.5H120.5V4601.5H65.5ZM59.25 4589C55.7982 4589 53 4591.8 53 4595.25V4662.75C53 4666.2 55.7982 4669 59.25 4669H126.75C130.202 4669 133 4666.2 133 4662.75V4595.25C133 4591.8 130.202 4589 126.75 4589H59.25Z" fill="#ADF454"/>
<rect y="4752" width="186" height="186" rx="40" fill="#28293A" stroke="#3E3E4E"/>
<path d="M119.111 4866.54C118.019 4866.54 117.004 4866.34 116.067 4865.94C115.124 4865.54 114.317 4865 113.634 4864.31C112.954 4863.62 112.419 4862.81 112.034 4861.88C111.652 4860.94 111.461 4859.96 111.461 4858.92V4858.86C111.461 4857.8 111.658 4856.8 112.047 4855.87C112.44 4854.95 112.975 4854.12 113.661 4853.43C114.341 4852.74 115.156 4852.18 116.095 4851.77C117.032 4851.36 118.06 4851.15 119.168 4851.15C120.277 4851.15 121.3 4851.36 122.239 4851.75C123.178 4852.16 123.989 4852.7 124.671 4853.4C125.359 4854.1 125.89 4854.91 126.27 4855.83C126.654 4856.75 126.846 4857.74 126.846 4858.8V4858.86C126.846 4859.9 126.648 4860.89 126.257 4861.82C125.869 4862.75 125.331 4863.56 124.652 4864.26C123.964 4864.96 123.15 4865.51 122.201 4865.92C121.258 4866.33 120.228 4866.53 119.113 4866.53" fill="#EAFF01"/>
<path d="M123.77 4805H108.755L92.4138 4850.38L74.53 4805H59.1543L85.3842 4866.13C84.9712 4867.05 77.1522 4885 77.1522 4885H91.4588L123.77 4805Z" fill="white"/>
<rect y="4968" width="186" height="186" rx="40" fill="#28293A" stroke="#3E3E4E"/>
<path fill-rule="evenodd" clip-rule="evenodd" d="M93 5088.5C108.188 5088.5 120.5 5076.19 120.5 5061C120.5 5045.81 108.188 5033.5 93 5033.5C77.8122 5033.5 65.5 5045.81 65.5 5061C65.5 5076.19 77.8122 5088.5 93 5088.5ZM93 5101C115.091 5101 133 5083.09 133 5061C133 5038.91 115.091 5021 93 5021C70.9086 5021 53 5038.91 53 5061C53 5083.09 70.9086 5101 93 5101Z" fill="#51DBEA"/>
<rect y="5184" width="186" height="186" rx="40" fill="#28293A" stroke="#3E3E4E"/>
<path fill-rule="evenodd" clip-rule="evenodd" d="M93 5252.13L65.9957 5271.68L76.2939 5303.27H109.706L120.004 5271.68L93 5252.13ZM96.5016 5239.92C94.4123 5238.41 91.5877 5238.41 89.4984 5239.92L55.4694 5264.56C53.3697 5266.08 52.4909 5268.79 53.2945 5271.25L66.2842 5311.09C67.0852 5313.55 69.3762 5315.21 71.9606 5315.21H114.039C116.624 5315.21 118.915 5313.55 119.716 5311.09L132.706 5271.25C133.509 5268.79 132.63 5266.08 130.531 5264.56L96.5016 5239.92Z" fill="#A58EF7"/>
<rect y="5400" width="186" height="186" rx="40" fill="#28293A" stroke="#3E3E4E"/>
<path fill-rule="evenodd" clip-rule="evenodd" d="M93 5471.44L64.5009 5520.7H121.499L93 5471.44ZM98.3253 5456.07C95.956 5451.98 90.044 5451.98 87.6747 5456.07L48.5081 5523.77C46.1351 5527.87 49.0948 5533 53.8334 5533H132.167C136.905 5533 139.865 5527.87 137.492 5523.77L98.3253 5456.07Z" fill="#EAFF01"/>
<rect y="5616" width="186" height="186" rx="40" fill="#28293A" stroke="#3E3E4E"/>
<path fill-rule="evenodd" clip-rule="evenodd" d="M65.5 5681.5V5736.5H120.5V5681.5H65.5ZM59.25 5669C55.7982 5669 53 5671.8 53 5675.25V5742.75C53 5746.2 55.7982 5749 59.25 5749H126.75C130.202 5749 133 5746.2 133 5742.75V5675.25C133 5671.8 130.202 5669 126.75 5669H59.25Z" fill="#ADF454"/>
<rect y="5832" width="186" height="186" rx="40" fill="#28293A" stroke="#3E3E4E"/>
<path d="M119.111 5946.54C118.019 5946.54 117.004 5946.34 116.067 5945.94C115.124 5945.54 114.317 5945 113.634 5944.31C112.954 5943.62 112.419 5942.81 112.034 5941.88C111.652 5940.94 111.461 5939.96 111.461 5938.92V5938.86C111.461 5937.8 111.658 5936.8 112.047 5935.87C112.44 5934.95 112.975 5934.12 113.661 5933.43C114.341 5932.74 115.156 5932.18 116.095 5931.77C117.032 5931.36 118.06 5931.15 119.168 5931.15C120.277 5931.15 121.3 5931.36 122.239 5931.75C123.178 5932.16 123.989 5932.7 124.671 5933.4C125.359 5934.1 125.89 5934.91 126.27 5935.83C126.654 5936.75 126.846 5937.74 126.846 5938.8V5938.86C126.846 5939.9 126.648 5940.89 126.257 5941.82C125.869 5942.75 125.331 5943.56 124.652 5944.26C123.964 5944.96 123.15 5945.51 122.201 5945.92C121.258 5946.33 120.228 5946.53 119.113 5946.53" fill="#EAFF01"/>
<path d="M123.77 5885H108.755L92.4138 5930.38L74.53 5885H59.1543L85.3842 5946.13C84.9712 5947.05 77.1522 5965 77.1522 5965H91.4588L123.77 5885Z" fill="white"/>
<rect y="6048" width="186" height="186" rx="40" fill="#28293A" stroke="#3E3E4E"/>
<path fill-rule="evenodd" clip-rule="evenodd" d="M93 6168.5C108.188 6168.5 120.5 6156.19 120.5 6141C120.5 6125.81 108.188 6113.5 93 6113.5C77.8122 6113.5 65.5 6125.81 65.5 6141C65.5 6156.19 77.8122 6168.5 93 6168.5ZM93 6181C115.091 6181 133 6163.09 133 6141C133 6118.91 115.091 6101 93 6101C70.9086 6101 53 6118.91 53 6141C53 6163.09 70.9086 6181 93 6181Z" fill="#51DBEA"/>
<rect y="6264" width="186" height="186" rx="40" fill="#28293A" stroke="#3E3E4E"/>
<path fill-rule="evenodd" clip-rule="evenodd" d="M93 6332.13L65.9957 6351.68L76.2939 6383.27H109.706L120.004 6351.68L93 6332.13ZM96.5016 6319.92C94.4123 6318.41 91.5877 6318.41 89.4984 6319.92L55.4694 6344.56C53.3697 6346.08 52.4909 6348.79 53.2945 6351.25L66.2842 6391.09C67.0852 6393.55 69.3762 6395.21 71.9606 6395.21H114.039C116.624 6395.21 118.915 6393.55 119.716 6391.09L132.706 6351.25C133.509 6348.79 132.63 6346.08 130.531 6344.56L96.5016 6319.92Z" fill="#A58EF7"/>
<rect y="6480" width="186" height="186" rx="40" fill="#28293A" stroke="#3E3E4E"/>
<path fill-rule="evenodd" clip-rule="evenodd" d="M93 6551.44L64.5009 6600.7H121.499L93 6551.44ZM98.3253 6536.07C95.956 6531.98 90.044 6531.98 87.6747 6536.07L48.5081 6603.77C46.1351 6607.87 49.0948 6613 53.8334 6613H132.167C136.905 6613 139.865 6607.87 137.492 6603.77L98.3253 6536.07Z" fill="#EAFF01"/>
<rect y="6696" width="186" height="186" rx="40" fill="#28293A" stroke="#3E3E4E"/>
<path fill-rule="evenodd" clip-rule="evenodd" d="M65.5 6761.5V6816.5H120.5V6761.5H65.5ZM59.25 6749C55.7982 6749 53 6751.8 53 6755.25V6822.75C53 6826.2 55.7982 6829 59.25 6829H126.75C130.202 6829 133 6826.2 133 6822.75V6755.25C133 6751.8 130.202 6749 126.75 6749H59.25Z" fill="#ADF454"/>
<rect y="6912" width="186" height="186" rx="40" fill="#28293A" stroke="#3E3E4E"/>
<path d="M119.111 7026.54C118.019 7026.54 117.004 7026.34 116.067 7025.94C115.124 7025.54 114.317 7025 113.634 7024.31C112.954 7023.62 112.419 7022.81 112.034 7021.88C111.652 7020.94 111.461 7019.96 111.461 7018.92V7018.86C111.461 7017.8 111.658 7016.8 112.047 7015.87C112.44 7014.95 112.975 7014.12 113.661 7013.43C114.341 7012.74 115.156 7012.18 116.095 7011.77C117.032 7011.36 118.06 7011.15 119.168 7011.15C120.277 7011.15 121.3 7011.36 122.239 7011.75C123.178 7012.16 123.989 7012.7 124.671 7013.4C125.359 7014.1 125.89 7014.91 126.27 7015.83C126.654 7016.75 126.846 7017.74 126.846 7018.8V7018.86C126.846 7019.9 126.648 7020.89 126.257 7021.82C125.869 7022.75 125.331 7023.56 124.652 7024.26C123.964 7024.96 123.15 7025.51 122.201 7025.92C121.258 7026.33 120.228 7026.53 119.113 7026.53" fill="#EAFF01"/>
<path d="M123.77 6965H108.755L92.4138 7010.38L74.53 6965H59.1543L85.3842 7026.13C84.9712 7027.05 77.1522 7045 77.1522 7045H91.4588L123.77 6965Z" fill="white"/>
<rect y="7128" width="186" height="186" rx="40" fill="#28293A" stroke="#3E3E4E"/>
<path fill-rule="evenodd" clip-rule="evenodd" d="M93 7248.5C108.188 7248.5 120.5 7236.19 120.5 7221C120.5 7205.81 108.188 7193.5 93 7193.5C77.8122 7193.5 65.5 7205.81 65.5 7221C65.5 7236.19 77.8122 7248.5 93 7248.5ZM93 7261C115.091 7261 133 7243.09 133 7221C133 7198.91 115.091 7181 93 7181C70.9086 7181 53 7198.91 53 7221C53 7243.09 70.9086 7261 93 7261Z" fill="#51DBEA"/>
</svg>
