<?xml version="1.0" encoding="utf-8"?><svg xmlns="http://www.w3.org/2000/svg" xmlns:xlink="http://www.w3.org/1999/xlink"><symbol viewBox="0 0 12 12" id="arrow-ne" xmlns="http://www.w3.org/2000/svg"><path fill="currentColor" d="m.293 10.293 10-10 1.414 1.414-10 10-1.414-1.414Z"/><path fill="currentColor" d="M10 2H1V0h10a1 1 0 0 1 1 1v10h-2V2Z"/></symbol><symbol viewBox="0 0 17 17" fill="none" id="arrow-s" xmlns="http://www.w3.org/2000/svg"><path stroke="currentColor" d="M8.486 15.556V1.414M15.557 8.485l-7.071 7.071-7.071-7.07" stroke-width="2" stroke-linejoin="round"/></symbol><symbol viewBox="0 0 7 11" fill="none" id="chevron-right" xmlns="http://www.w3.org/2000/svg"><path d="M4.07 5.5.487 1.915 1.901.501l4.291 4.292a1 1 0 0 1 0 1.414l-4.291 4.292L.486 9.084 4.071 5.5Z" fill="currentColor"/></symbol><symbol viewBox="0 0 14 14" fill="none" id="clock" xmlns="http://www.w3.org/2000/svg"><path d="M7 0C3.15 0 0 3.15 0 7s3.15 7 7 7 7-3.15 7-7-3.15-7-7-7Zm0 12.6c-3.08 0-5.6-2.52-5.6-5.6 0-3.08 2.52-5.6 5.6-5.6 3.08 0 5.6 2.52 5.6 5.6 0 3.08-2.52 5.6-5.6 5.6Z" fill="currentColor"/><path d="M7.697 6.72V3.5c0-.42-.28-.7-.7-.7-.42 0-.7.28-.7.7V7c0 .21.07.35.21.49l1.47 1.47c.42.35.84.14.98 0 .28-.28.28-.7 0-.98l-1.26-1.26Z" fill="currentColor"/></symbol><symbol viewBox="0 0 10 10" fill="none" id="cursor" xmlns="http://www.w3.org/2000/svg"><path fill="currentColor" d="M9.655 4.318 5.698 5.553a.221.221 0 0 0-.145.145L4.318 9.655a.499.499 0 0 1-.941.025L.029.668A.5.5 0 0 1 .67.03l9.01 3.348a.499.499 0 0 1-.024.94Z"/></symbol><symbol fill="none" viewBox="0 0 500 500" id="favicon" xmlns="http://www.w3.org/2000/svg"><rect width="500" height="500" rx="100" fill="#1C1D2C"/><path d="M341.82 321.615c-3.63 0-7.005-.656-10.119-1.998-3.136-1.328-5.818-3.13-8.093-5.425-2.26-2.294-4.039-4.984-5.316-8.072-1.272-3.109-1.907-6.37-1.907-9.84v-.202c0-3.527.656-6.832 1.948-9.934 1.307-3.073 3.086-5.807 5.368-8.1 2.258-2.324 4.971-4.163 8.092-5.533 3.114-1.364 6.531-2.049 10.218-2.049 3.686 0 7.089.671 10.211 1.99 3.121 1.343 5.819 3.153 8.085 5.483 2.289 2.315 4.054 5.021 5.318 8.079 1.278 3.052 1.913 6.356 1.913 9.883v.174c0 3.469-.656 6.753-1.956 9.84-1.292 3.102-3.078 5.814-5.338 8.13-2.288 2.309-4.993 4.162-8.149 5.525-3.136 1.364-6.561 2.035-10.268 2.035" fill="#EAFF01"/><path d="M357.308 117h-49.922L253.05 267.897 193.586 117h-51.125l87.215 203.247c-1.373 3.07-27.372 62.753-27.372 62.753h47.57l107.434-266Z" fill="#fff"/></symbol><symbol viewBox="0 0 216 73" fill="none" id="google" xmlns="http://www.w3.org/2000/svg"><path d="M91.924 37.436c0 10.133-7.933 17.6-17.669 17.6s-17.67-7.467-17.67-17.6c0-10.204 7.934-17.6 17.67-17.6s17.67 7.396 17.67 17.6Zm-7.735 0c0-6.332-4.597-10.664-9.934-10.664-5.336 0-9.934 4.332-9.934 10.664 0 6.269 4.598 10.665 9.934 10.665 5.337 0 9.934-4.404 9.934-10.665Z" fill="#EA4335"/><path d="M130.041 37.436c0 10.133-7.933 17.6-17.669 17.6s-17.669-7.467-17.669-17.6c0-10.196 7.933-17.6 17.669-17.6s17.669 7.396 17.669 17.6Zm-7.734 0c0-6.332-4.598-10.664-9.935-10.664-5.336 0-9.934 4.332-9.934 10.664 0 6.269 4.598 10.665 9.934 10.665 5.337 0 9.935-4.404 9.935-10.665Z" fill="#FBBC05"/><path d="M166.571 20.9v31.596c0 12.998-7.672 18.306-16.74 18.306-8.537 0-13.675-5.705-15.613-10.37l6.734-2.802c1.199 2.865 4.138 6.245 8.871 6.245 5.805 0 9.402-3.579 9.402-10.315v-2.532h-.27c-1.731 2.135-5.066 4-9.275 4-8.807 0-16.875-7.665-16.875-17.528 0-9.935 8.068-17.663 16.875-17.663 4.201 0 7.536 1.865 9.275 3.936h.27v-2.865h7.346V20.9Zm-6.798 16.6c0-6.197-4.137-10.728-9.402-10.728-5.337 0-9.808 4.53-9.808 10.728 0 6.133 4.471 10.6 9.808 10.6 5.265 0 9.402-4.467 9.402-10.6Z" fill="#4285F4"/><path d="M178.677 2.38v51.577h-7.544V2.38h7.544Z" fill="#34A853"/><path d="m208.08 43.229 6.004 3.999c-1.938 2.864-6.608 7.8-14.676 7.8-10.006 0-17.478-7.729-17.478-17.6 0-10.465 7.536-17.599 16.613-17.599 9.14 0 13.611 7.268 15.072 11.196l.802 2-23.546 9.744c1.803 3.53 4.606 5.332 8.537 5.332 3.939 0 6.671-1.936 8.672-4.872Zm-18.479-6.332 15.739-6.53c-.865-2.198-3.47-3.73-6.535-3.73-3.931 0-9.403 3.468-9.204 10.26Z" fill="#EA4335"/><path d="M28.028 32.858v-7.467h25.181c.246 1.302.373 2.841.373 4.507 0 5.602-1.532 12.53-6.472 17.465-4.804 4.999-10.943 7.665-19.075 7.665C12.963 55.028.29 42.76.29 27.7.29 12.64 12.963.373 28.035.373c8.339 0 14.279 3.27 18.742 7.53l-5.273 5.269c-3.2-3-7.536-5.332-13.476-5.332-11.007 0-19.615 8.863-19.615 19.86 0 10.998 8.608 19.861 19.615 19.861 7.139 0 11.205-2.864 13.81-5.467 2.112-2.11 3.501-5.126 4.05-9.244l-17.86.008Z" fill="#4285F4"/></symbol><symbol viewBox="0 0 28 28" id="logo-figma" xmlns="http://www.w3.org/2000/svg"><path fill="currentColor" d="M21.364 9.62a5.239 5.239 0 0 0 2.37-4.381A5.245 5.245 0 0 0 18.493 0H9.506a5.245 5.245 0 0 0-5.24 5.239c0 1.83.944 3.443 2.37 4.38A5.237 5.237 0 0 0 4.266 14c0 1.83.944 3.444 2.37 4.381a5.236 5.236 0 0 0-2.37 4.38C4.267 25.652 6.63 28 9.535 28c2.935 0 5.324-2.376 5.324-5.295v-4.831a5.214 5.214 0 0 0 3.523 1.364h.113c2.889 0 5.24-2.35 5.24-5.238 0-1.83-.944-3.444-2.37-4.38Zm-6.506-7.904h3.636a3.527 3.527 0 0 1 3.523 3.523 3.527 3.527 0 0 1-3.523 3.522h-3.636V1.716ZM5.983 5.24a3.527 3.527 0 0 1 3.523-3.523h3.636v7.045H9.506A3.527 3.527 0 0 1 5.983 5.24Zm0 8.761a3.527 3.527 0 0 1 3.523-3.522h3.636v7.045H9.483A3.527 3.527 0 0 1 5.983 14Zm7.159 8.705c0 1.973-1.619 3.579-3.608 3.579-1.958 0-3.551-1.58-3.551-3.522a3.527 3.527 0 0 1 3.523-3.524h3.636v3.467Zm5.352-5.182h-.113A3.527 3.527 0 0 1 14.858 14a3.526 3.526 0 0 1 3.523-3.522h.113A3.527 3.527 0 0 1 22.017 14a3.527 3.527 0 0 1-3.523 3.523Z"/></symbol><symbol fill="none" viewBox="0 0 28 28" id="logo-figma-hover" xmlns="http://www.w3.org/2000/svg"><path d="M9.558 27.247c2.452 0 4.442-1.978 4.442-4.416v-4.415H9.558c-2.452 0-4.442 1.978-4.442 4.415 0 2.438 1.99 4.416 4.442 4.416Z" fill="#0ACF83"/><path d="M5.116 14c0-2.438 1.99-4.416 4.442-4.416H14v8.832H9.558c-2.452 0-4.442-1.979-4.442-4.416Z" fill="#A259FF"/><path d="M5.116 5.169c0-2.438 1.99-4.416 4.442-4.416H14v8.831H9.558c-2.452 0-4.442-1.978-4.442-4.415Z" fill="#F24E1E"/><path d="M14 .753h4.442c2.452 0 4.442 1.978 4.442 4.416 0 2.437-1.99 4.415-4.442 4.415H14V.753Z" fill="#FF7262"/><path d="M22.884 14c0 2.438-1.99 4.416-4.442 4.416S14 16.437 14 14c0-2.438 1.99-4.416 4.442-4.416s4.442 1.979 4.442 4.416Z" fill="#1ABCFE"/></symbol><symbol viewBox="0 0 272 92" id="logo-google" xmlns="http://www.w3.org/2000/svg"><path fill="#EA4335" d="M115.75 47.18c0 12.77-9.99 22.18-22.25 22.18s-22.25-9.41-22.25-22.18C71.25 34.32 81.24 25 93.5 25s22.25 9.32 22.25 22.18zm-9.74 0c0-7.98-5.79-13.44-12.51-13.44S80.99 39.2 80.99 47.18c0 7.9 5.79 13.44 12.51 13.44s12.51-5.55 12.51-13.44z"/><path fill="#FBBC05" d="M163.75 47.18c0 12.77-9.99 22.18-22.25 22.18s-22.25-9.41-22.25-22.18c0-12.85 9.99-22.18 22.25-22.18s22.25 9.32 22.25 22.18zm-9.74 0c0-7.98-5.79-13.44-12.51-13.44s-12.51 5.46-12.51 13.44c0 7.9 5.79 13.44 12.51 13.44s12.51-5.55 12.51-13.44z"/><path fill="#4285F4" d="M209.75 26.34v39.82c0 16.38-9.66 23.07-21.08 23.07-10.75 0-17.22-7.19-19.66-13.07l8.48-3.53c1.51 3.61 5.21 7.87 11.17 7.87 7.31 0 11.84-4.51 11.84-13v-3.19h-.34c-2.18 2.69-6.38 5.04-11.68 5.04-11.09 0-21.25-9.66-21.25-22.09 0-12.52 10.16-22.26 21.25-22.26 5.29 0 9.49 2.35 11.68 4.96h.34v-3.61h9.25zm-8.56 20.92c0-7.81-5.21-13.52-11.84-13.52-6.72 0-12.35 5.71-12.35 13.52 0 7.73 5.63 13.36 12.35 13.36 6.63 0 11.84-5.63 11.84-13.36z"/><path fill="#34A853" d="M225 3v65h-9.5V3h9.5z"/><path fill="#EA4335" d="m262.02 54.48 7.56 5.04c-2.44 3.61-8.32 9.83-18.48 9.83-12.6 0-22.01-9.74-22.01-22.18 0-13.19 9.49-22.18 20.92-22.18 11.51 0 17.14 9.16 18.98 14.11l1.01 2.52-29.65 12.28c2.27 4.45 5.8 6.72 10.75 6.72 4.96 0 8.4-2.44 10.92-6.14zm-23.27-7.98 19.82-8.23c-1.09-2.77-4.37-4.7-8.23-4.7-4.95 0-11.84 4.37-11.59 12.93z"/><path fill="#4285F4" d="M35.29 41.41V32H67c.31 1.64.47 3.58.47 5.68 0 7.06-1.93 15.79-8.15 22.01-6.05 6.3-13.78 9.66-24.02 9.66C16.32 69.35.36 53.89.36 34.91.36 15.93 16.32.47 35.3.47c10.5 0 17.98 4.12 23.6 9.49l-6.64 6.64c-4.03-3.78-9.49-6.72-16.97-6.72-13.86 0-24.7 11.17-24.7 25.03 0 13.86 10.84 25.03 24.7 25.03 8.99 0 14.11-3.61 17.39-6.89 2.66-2.66 4.41-6.46 5.1-11.65l-22.49.01z"/></symbol><symbol viewBox="0 0 28 28" id="logo-laravel" xmlns="http://www.w3.org/2000/svg"><path fill="currentColor" fill-rule="evenodd" clip-rule="evenodd" d="M27.584 6.334c.01.038.015.076.015.115v6.01a.438.438 0 0 1-.22.38l-5.044 2.904V21.5a.44.44 0 0 1-.22.38l-10.529 6.062c-.024.013-.05.022-.077.031-.01.004-.019.01-.03.012a.443.443 0 0 1-.224 0c-.012-.003-.023-.01-.034-.014-.024-.009-.05-.016-.073-.03L.621 21.88a.439.439 0 0 1-.22-.38V3.47c0-.04.005-.078.015-.116.003-.012.01-.024.015-.036.008-.023.016-.047.028-.068.008-.014.02-.026.03-.04.013-.017.024-.035.04-.05.012-.013.028-.022.042-.033.016-.013.03-.027.049-.038L5.884.06a.44.44 0 0 1 .438 0l5.264 3.03h.002c.017.011.032.025.048.038.014.01.03.02.043.032.015.016.026.034.039.052.01.013.022.025.03.039.012.022.02.045.028.068.004.012.012.024.015.037.01.037.016.076.016.115V14.73l4.386-2.526V6.448c0-.038.006-.077.016-.114.003-.013.01-.024.015-.037.009-.023.016-.046.028-.068.009-.014.02-.026.03-.039.013-.017.024-.035.04-.05.012-.013.028-.023.042-.034.017-.013.03-.027.048-.037l5.265-3.031a.439.439 0 0 1 .439 0l5.264 3.03c.018.012.033.025.05.038.013.01.029.02.041.033.016.016.027.034.04.051.01.013.022.025.03.04.012.02.019.044.028.067.005.013.012.024.015.037Zm-.862 5.871V7.207L24.88 8.268l-2.545 1.465v4.998l4.387-2.526Zm-5.264 9.041v-5l-2.503 1.429-7.149 4.08v5.048l9.652-5.557ZM1.278 4.228v17.018l9.65 5.556v-5.047l-5.041-2.853-.002-.001-.002-.001c-.017-.01-.031-.024-.047-.037-.014-.01-.03-.02-.042-.031v-.002c-.015-.014-.025-.03-.037-.046-.01-.015-.024-.027-.033-.043v-.001c-.01-.017-.016-.037-.023-.055-.007-.016-.017-.032-.021-.05-.006-.02-.007-.043-.009-.064-.002-.017-.006-.033-.006-.05V6.754L3.12 5.288l-1.842-1.06ZM6.104.945 1.718 3.47l4.385 2.524 4.385-2.525L6.103.945ZM8.384 16.7l2.545-1.465V4.228l-1.842 1.06-2.545 1.466v11.008L8.385 16.7ZM21.898 3.924 17.51 6.45l4.386 2.524 4.385-2.525-4.385-2.524Zm-.44 5.81-2.544-1.466-1.842-1.06v4.997l2.544 1.465 1.843 1.061V9.733Zm-10.09 11.262 6.432-3.672 3.216-1.835-4.382-2.523-5.046 2.904-4.598 2.648 4.378 2.478Z"/></symbol><symbol fill="#DC4F3D" viewBox="0 0 28 28" id="logo-laravel-hover" xmlns="http://www.w3.org/2000/svg"><path fill-rule="evenodd" clip-rule="evenodd" d="M27.584 6.334c.01.038.015.076.015.115v6.01a.438.438 0 0 1-.22.38l-5.044 2.904V21.5a.44.44 0 0 1-.22.38l-10.529 6.062c-.024.013-.05.022-.077.031-.01.004-.019.01-.03.012a.443.443 0 0 1-.224 0c-.012-.003-.023-.01-.034-.014-.024-.009-.05-.016-.073-.03L.621 21.88a.439.439 0 0 1-.22-.38V3.47c0-.04.005-.078.015-.116.003-.012.01-.024.015-.036.008-.023.016-.047.028-.068.008-.014.02-.026.03-.04.013-.017.024-.035.04-.05.012-.013.028-.022.042-.033.016-.013.03-.027.049-.038L5.884.06a.44.44 0 0 1 .438 0l5.264 3.03h.002c.017.011.032.025.048.038.014.01.03.02.043.032.015.016.026.034.039.052.01.013.022.025.03.039.012.022.02.045.028.068.004.012.012.024.015.037.01.037.016.076.016.115V14.73l4.386-2.526V6.448c0-.038.006-.077.016-.114.003-.013.01-.024.015-.037.009-.023.016-.046.028-.068.009-.014.02-.026.03-.039.013-.017.024-.035.04-.05.012-.013.028-.023.042-.034.017-.013.03-.027.048-.037l5.265-3.031a.439.439 0 0 1 .439 0l5.264 3.03c.018.012.033.025.05.038.013.01.029.02.041.033.016.016.027.034.04.051.01.013.022.025.03.04.012.02.019.044.028.067.005.013.012.024.015.037Zm-.862 5.871V7.207L24.88 8.268l-2.545 1.465v4.998l4.387-2.526Zm-5.264 9.041v-5l-2.503 1.429-7.149 4.08v5.048l9.652-5.557ZM1.278 4.228v17.018l9.65 5.556v-5.047l-5.041-2.853-.002-.001-.002-.001c-.017-.01-.031-.024-.047-.037-.014-.01-.03-.02-.042-.031v-.002c-.015-.014-.025-.03-.037-.046-.01-.015-.024-.027-.033-.043v-.001c-.01-.017-.016-.037-.023-.055-.007-.016-.017-.032-.021-.05-.006-.02-.007-.043-.009-.064-.002-.017-.006-.033-.006-.05V6.754L3.12 5.288l-1.842-1.06ZM6.104.945 1.718 3.47l4.385 2.524 4.385-2.525L6.103.945ZM8.384 16.7l2.545-1.465V4.228l-1.842 1.06-2.545 1.466v11.008L8.385 16.7ZM21.898 3.924 17.51 6.45l4.386 2.524 4.385-2.525-4.385-2.524Zm-.44 5.81-2.544-1.466-1.842-1.06v4.997l2.544 1.465 1.843 1.061V9.733Zm-10.09 11.262 6.432-3.672 3.216-1.835-4.382-2.523-5.046 2.904-4.598 2.648 4.378 2.478Z"/></symbol><symbol viewBox="0 0 28 28" id="logo-woo" xmlns="http://www.w3.org/2000/svg"><path fill="currentColor" d="M2.4 4.426c.326-.442.815-.675 1.466-.721 1.187-.093 1.862.465 2.025 1.675.721 4.863 1.512 8.982 2.35 12.356l5.096-9.703c.465-.884 1.047-1.35 1.745-1.396 1.024-.07 1.652.582 1.908 1.954.582 3.095 1.327 5.725 2.21 7.958.606-5.91 1.63-10.168 3.073-12.798.349-.651.86-.977 1.535-1.024.536-.046 1.024.117 1.466.466.442.349.675.791.722 1.326a2.02 2.02 0 0 1-.233 1.117c-.908 1.675-1.652 4.491-2.257 8.4-.582 3.793-.791 6.748-.652 8.866.047.582-.046 1.094-.279 1.536-.28.512-.698.79-1.233.837-.605.047-1.233-.232-1.838-.86-2.165-2.211-3.886-5.515-5.143-9.913a436.35 436.35 0 0 0-3.35 6.701c-1.373 2.63-2.537 3.98-3.514 4.05-.629.046-1.164-.49-1.63-1.607-1.186-3.048-2.466-8.935-3.839-17.66-.093-.606.047-1.141.372-1.56Z"/></symbol><symbol fill="#7956AD" viewBox="0 0 28 28" id="logo-woo-hover" xmlns="http://www.w3.org/2000/svg"><path d="M2.4 4.426c.326-.442.815-.675 1.466-.721 1.187-.093 1.862.465 2.025 1.675.721 4.863 1.512 8.982 2.35 12.356l5.096-9.703c.465-.884 1.047-1.35 1.745-1.396 1.024-.07 1.652.582 1.908 1.954.582 3.095 1.327 5.725 2.21 7.958.606-5.91 1.63-10.168 3.073-12.798.349-.651.86-.977 1.535-1.024.536-.046 1.024.117 1.466.466.442.349.675.791.722 1.326a2.02 2.02 0 0 1-.233 1.117c-.908 1.675-1.652 4.491-2.257 8.4-.582 3.793-.791 6.748-.652 8.866.047.582-.046 1.094-.279 1.536-.28.512-.698.79-1.233.837-.605.047-1.233-.232-1.838-.86-2.165-2.211-3.886-5.515-5.143-9.913a436.35 436.35 0 0 0-3.35 6.701c-1.373 2.63-2.537 3.98-3.514 4.05-.629.046-1.164-.49-1.63-1.607-1.186-3.048-2.466-8.935-3.839-17.66-.093-.606.047-1.141.372-1.56Z"/></symbol><symbol viewBox="0 0 28 28" id="logo-wp" xmlns="http://www.w3.org/2000/svg"><path fill="currentColor" d="M14.006 0C21.724 0 28 6.264 28 13.973c0 3.72-1.475 7.288-4.1 9.918A13.986 13.986 0 0 1 14 28a13.986 13.986 0 0 1-9.9-4.109A14.041 14.041 0 0 1 0 13.973C0 6.264 6.276 0 14.006 0Zm.22 15.074-3.786 10.95c2.538.746 5.245.677 7.742-.196a1.098 1.098 0 0 1-.085-.183l-3.871-10.571ZM2.503 8.858a12.576 12.576 0 0 0-.324 9.438A12.544 12.544 0 0 0 8.51 25.29L2.503 8.858Zm22.542-.917c.061.403.085.832.085 1.296 0 1.273-.244 2.704-.952 4.503L20.33 24.825a12.55 12.55 0 0 0 5.786-7.481c.881-3.155.496-6.53-1.072-9.403ZM14.006 1.43C9.61 1.432 5.74 3.684 3.48 7.097c1.39.047 2.782-.006 4.164-.159.684-.036.757.955.086 1.04 0 0-.684.074-1.441.123l4.579 13.593 2.76-8.247-1.954-5.37c-.684-.038-1.331-.123-1.331-.123-.672-.037-.599-1.065.085-1.028 0 0 2.076.16 3.31.16 1.318.011 3.358-.148 3.358-.148.671-.036.757.955.085 1.04 0 0-.684.074-1.44.123l4.542 13.507 1.257-4.197c.564-1.284.89-2.66.965-4.062a6.616 6.616 0 0 0-1.038-3.462c-.647-1.04-1.245-1.909-1.245-2.936 0-1.163.879-2.24 2.124-2.24h.159a12.54 12.54 0 0 0-8.499-3.29v.012Z"/></symbol><symbol fill="#21759B" viewBox="0 0 28 28" id="logo-wp-hover" xmlns="http://www.w3.org/2000/svg"><path d="M1.404 14c0 4.985 2.898 9.294 7.099 11.335L2.495 8.874A12.547 12.547 0 0 0 1.405 14ZM22.503 13.364c0-1.557-.56-2.635-1.04-3.474-.638-1.037-1.236-1.916-1.236-2.953 0-1.158.878-2.236 2.115-2.236.056 0 .109.007.163.01A12.55 12.55 0 0 0 14 1.405 12.58 12.58 0 0 0 3.476 7.082c.295.009.574.015.81.015 1.318 0 3.357-.16 3.357-.16.68-.04.76.957.081 1.038 0 0-.682.08-1.442.12l4.587 13.643 2.757-8.267-1.963-5.377c-.678-.04-1.32-.12-1.32-.12-.68-.04-.6-1.077.079-1.037 0 0 2.08.16 3.318.16 1.317 0 3.356-.16 3.356-.16.68-.04.76.957.081 1.037 0 0-.684.08-1.441.12l4.551 13.54 1.257-4.198c.544-1.742.959-2.994.959-4.072Z"/><path d="m14.22 15.101-3.778 10.982a12.594 12.594 0 0 0 7.74-.201 1.114 1.114 0 0 1-.09-.174l-3.871-10.607ZM25.052 7.957c.054.4.084.832.084 1.295 0 1.278-.238 2.715-.957 4.511L20.33 24.887c3.745-2.184 6.264-6.24 6.264-10.887 0-2.19-.56-4.25-1.543-6.043Z"/><path d="M14 0C6.28 0 0 6.28 0 14s6.28 14 14 14c7.719 0 14-6.28 14-14S21.72 0 14 0Zm0 27.358C6.634 27.358.64 21.366.64 14 .641 6.634 6.634.642 14 .642 21.365.642 27.357 6.634 27.357 14c0 7.366-5.992 13.358-13.357 13.358Z"/></symbol><symbol viewBox="0 0 22 22" id="outline-info-basket" xmlns="http://www.w3.org/2000/svg"><path fill="currentColor" d="M21.356 8.282a2.747 2.747 0 0 0-2.079-.949h-.081C18.738 3.215 15.239 0 11 0S3.262 3.215 2.804 7.333H2.75a2.747 2.747 0 0 0-2.722 3.139l.973 6.805C1.385 19.97 3.726 22 6.445 22h9.138c2.72 0 5.06-2.03 5.444-4.722L22 10.472a2.745 2.745 0 0 0-.644-2.19ZM11 1.833c3.226 0 5.896 2.396 6.343 5.5H4.657c.447-3.104 3.117-5.5 6.343-5.5Zm8.213 15.185a3.686 3.686 0 0 1-3.63 3.149H6.445a3.685 3.685 0 0 1-3.63-3.15l-.972-6.804a.904.904 0 0 1 .214-.73.903.903 0 0 1 .693-.316h16.527c.27 0 .517.112.694.316a.901.901 0 0 1 .214.73l-.972 6.805Zm-4.546-2.351c0 .506-.411.916-.917.916h-5.5a.917.917 0 0 1 0-1.833h5.5c.506 0 .917.41.917.917Z"/></symbol><symbol fill="currentColor" viewBox="0 0 22 22" id="outline-info-globe" xmlns="http://www.w3.org/2000/svg"><path d="M11 0a11 11 0 1 0 11 11A11.012 11.012 0 0 0 11 0Zm9.167 11a9.11 9.11 0 0 1-1.524 5.049l-1.093-1.094a.458.458 0 0 1-.133-.323v-.882a2.75 2.75 0 0 0-2.75-2.75h-2.75a.917.917 0 0 1-.917-.917v-.458a.459.459 0 0 1 .458-.458 2.292 2.292 0 0 0 2.292-2.292v-.917a.459.459 0 0 1 .458-.458h1.264a2.307 2.307 0 0 0 1.62-.671l.346-.346A9.139 9.139 0 0 1 20.167 11Zm-18.289.883 2.895 2.895a2.73 2.73 0 0 0 1.945.805h2.449a.917.917 0 0 1 .916.917v3.62a9.181 9.181 0 0 1-8.205-8.237Zm10.039 8.237V16.5a2.75 2.75 0 0 0-2.75-2.75H6.718a.916.916 0 0 1-.649-.269L1.983 9.395A9.146 9.146 0 0 1 16 3.328l-.205.205a.465.465 0 0 1-.324.134h-1.264a2.292 2.292 0 0 0-2.291 2.291v.917a.458.458 0 0 1-.459.458 2.292 2.292 0 0 0-2.291 2.292v.458a2.75 2.75 0 0 0 2.75 2.75h2.75a.917.917 0 0 1 .916.917v.882c.002.607.243 1.189.671 1.62l1.226 1.225a9.14 9.14 0 0 1-5.563 2.643Z"/></symbol><symbol viewBox="0 0 22 22" id="outline-info-inspector" xmlns="http://www.w3.org/2000/svg"><path fill="currentColor" d="M15.125 15.583a3.208 3.208 0 0 0-2.965 1.993 4.296 4.296 0 0 0-2.32 0 3.203 3.203 0 1 0 .177 1.863c.316-.113.648-.177.983-.19.335.012.667.076.983.19a3.208 3.208 0 1 0 3.142-3.856Zm-8.25 4.583a1.375 1.375 0 1 1 0-2.75 1.375 1.375 0 0 1 0 2.75Zm8.25 0a1.375 1.375 0 1 1 0-2.75 1.375 1.375 0 0 1 0 2.75ZM18.31 6.952C18.067-.439 14.025.024 13.846.005A.846.846 0 0 0 13.75 0a4.134 4.134 0 0 0-2.215.75.933.933 0 0 1-1.07 0A4.138 4.138 0 0 0 8.25 0a.847.847 0 0 0-.092.005c-.177.019-4.216-.444-4.464 6.947C2.47 7.362 0 8.389 0 10c0 3.382 5.678 3.666 11 3.666S22 13.382 22 10c0-1.61-2.469-2.638-3.69-3.048ZM8.3 1.838c.4.043.783.185 1.114.414a2.774 2.774 0 0 0 3.173 0 2.42 2.42 0 0 1 1.105-.414c.408.097 2.667-.116 2.802 5.286A12.106 12.106 0 0 1 11 8.167a12.115 12.115 0 0 1-5.494-1.042c.136-5.448 2.43-5.2 2.794-5.287Zm2.7 9.995c-7.576 0-9.167-.997-9.178-1.758a5.537 5.537 0 0 1 2.622-1.443A13.344 13.344 0 0 0 11 10a13.344 13.344 0 0 0 6.556-1.368A6.26 6.26 0 0 1 20.166 10c0 .836-1.59 1.833-9.166 1.833Z"/></symbol><symbol fill="currentColor" viewBox="0 0 22 22" id="outline-info-link" xmlns="http://www.w3.org/2000/svg"><path fill-rule="evenodd" clip-rule="evenodd" d="M20.116 1.889a6.396 6.396 0 0 0-4.555-1.89 6.4 6.4 0 0 0-4.553 1.886L8.013 4.876A.917.917 0 0 0 9.31 6.173l2.993-2.99a4.577 4.577 0 0 1 3.257-1.35A4.608 4.608 0 0 1 18.817 9.7l-2.99 2.99a.917.917 0 1 0 1.297 1.297l2.99-2.988a6.45 6.45 0 0 0 .002-9.11ZM12.69 15.826l-2.99 2.99A4.608 4.608 0 0 1 3.184 12.3l2.99-2.992a.917.917 0 0 0-1.298-1.296l-2.988 2.992A6.442 6.442 0 1 0 11 20.112l2.99-2.99a.916.916 0 0 0-1.296-1.296h-.003Zm-5.088-2.725 5.5-5.5a.916.916 0 0 1 1.295 1.296l-5.5 5.5a.915.915 0 0 1-1.575-.645.917.917 0 0 1 .28-.651Z"/></symbol><symbol fill="currentColor" viewBox="0 0 22 22" id="outline-info-migration" xmlns="http://www.w3.org/2000/svg"><path d="M6.417 0h-2.75A3.667 3.667 0 0 0 0 3.667v2.75a3.667 3.667 0 0 0 3.667 3.666h2.75a3.667 3.667 0 0 0 3.666-3.666v-2.75A3.667 3.667 0 0 0 6.417 0ZM8.25 6.417A1.833 1.833 0 0 1 6.417 8.25h-2.75a1.833 1.833 0 0 1-1.834-1.833v-2.75a1.833 1.833 0 0 1 1.834-1.834h2.75A1.833 1.833 0 0 1 8.25 3.667v2.75ZM6.417 11.917h-2.75A3.666 3.666 0 0 0 0 15.583v2.75A3.666 3.666 0 0 0 3.667 22h2.75a3.667 3.667 0 0 0 3.666-3.667v-2.75a3.666 3.666 0 0 0-3.666-3.666Zm1.833 6.416a1.834 1.834 0 0 1-1.833 1.834h-2.75a1.833 1.833 0 0 1-1.834-1.834v-2.75a1.833 1.833 0 0 1 1.834-1.833h2.75a1.833 1.833 0 0 1 1.833 1.833v2.75ZM20.434 17.461l-2.102 2.1V2.413l2.102 2.1a.917.917 0 0 0 1.296-1.298L19.36.848a2.75 2.75 0 0 0-3.887 0l-2.371 2.367a.918.918 0 0 0 1.296 1.298l2.102-2.1v17.148l-2.102-2.1a.918.918 0 0 0-1.565.65.918.918 0 0 0 .269.648l2.371 2.367a2.75 2.75 0 0 0 3.887 0l2.371-2.367a.92.92 0 0 0 0-1.297.918.918 0 0 0-1.296 0Z"/></symbol><symbol viewBox="0 0 22 22" id="outline-info-paper" xmlns="http://www.w3.org/2000/svg"><path fill="currentColor" d="M13.75 5.5a.917.917 0 0 1 0 1.833H6.417a.917.917 0 1 1 0-1.833h7.333Zm7.065 16.231a.916.916 0 0 1-1.296 0l-2.207-2.206a4.087 4.087 0 0 1-4.479-.053 4.125 4.125 0 1 1 6.417-3.43 4.085 4.085 0 0 1-.642 2.187l2.207 2.206a.917.917 0 0 1 0 1.296Zm-5.69-3.398a2.292 2.292 0 1 0 0-4.584 2.292 2.292 0 0 0 0 4.584ZM11 20.167H5.5a2.75 2.75 0 0 1-2.75-2.75V4.583a2.75 2.75 0 0 1 2.75-2.75h11a.917.917 0 0 1 .917.917v7.333a.917.917 0 1 0 1.833 0V2.75A2.75 2.75 0 0 0 16.5 0h-11A4.589 4.589 0 0 0 .917 4.583v12.834A4.589 4.589 0 0 0 5.5 22H11a.917.917 0 0 0 0-1.833Z"/></symbol><symbol fill="currentColor" viewBox="0 0 22 22" id="outline-info-speech" xmlns="http://www.w3.org/2000/svg"><path fill-rule="evenodd" clip-rule="evenodd" d="M18.333 0H3.667A3.667 3.667 0 0 0 0 3.667v11a3.666 3.666 0 0 0 3.667 3.667h2.658l4.08 3.449a.916.916 0 0 0 1.184 0l4.086-3.45h2.658A3.667 3.667 0 0 0 22 14.668v-11A3.667 3.667 0 0 0 18.333 0Zm1.834 14.667a1.834 1.834 0 0 1-1.834 1.833h-2.658c-.433 0-.853.154-1.183.434L11 19.883l-3.49-2.95a1.834 1.834 0 0 0-1.185-.433H3.667a1.833 1.833 0 0 1-1.834-1.833v-11a1.833 1.833 0 0 1 1.834-1.834h14.666a1.833 1.833 0 0 1 1.834 1.834v11ZM6.417 10.45H11a.917.917 0 0 1 0 1.833H6.417a.917.917 0 0 1 0-1.833Zm0-1.834h9.166a.917.917 0 1 0 0-1.833H6.417a.917.917 0 0 0 0 1.833Z"/></symbol><symbol viewBox="0 0 11 14" fill="none" id="play" xmlns="http://www.w3.org/2000/svg"><path d="M10.725 6.506a.581.581 0 0 1 0 .988l-9.9 5.929c-.367.22-.825-.055-.825-.494V1.07C0 .632.458.358.825.577l9.9 5.929Z" fill="currentColor"/></symbol><symbol viewBox="0 0 32 32" id="shape-circle" xmlns="http://www.w3.org/2000/svg"><path fill="currentColor" fill-rule="evenodd" clip-rule="evenodd" d="M16 27c6.075 0 11-4.925 11-11S22.075 5 16 5 5 9.925 5 16s4.925 11 11 11Zm0 5c8.837 0 16-7.163 16-16S24.837 0 16 0 0 7.163 0 16s7.163 16 16 16Z"/></symbol><symbol viewBox="0 0 34 32" id="shape-pentagon" xmlns="http://www.w3.org/2000/svg"><path fill="currentColor" fill-rule="evenodd" clip-rule="evenodd" d="M17 5.587 5.693 13.774 10.005 27h13.99l4.312-13.226L17 5.587ZM18.466.475a2.5 2.5 0 0 0-2.932 0L1.285 10.792a2.5 2.5 0 0 0-.91 2.8l5.438 16.683A2.5 2.5 0 0 0 8.19 32h17.62a2.5 2.5 0 0 0 2.377-1.725l5.439-16.683a2.5 2.5 0 0 0-.911-2.8L18.466.475Z"/></symbol><symbol viewBox="0 0 32 32" id="shape-square" xmlns="http://www.w3.org/2000/svg"><path fill="currentColor" fill-rule="evenodd" clip-rule="evenodd" d="M5 5v22h22V5H5ZM2.5 0A2.5 2.5 0 0 0 0 2.5v27A2.5 2.5 0 0 0 2.5 32h27a2.5 2.5 0 0 0 2.5-2.5v-27A2.5 2.5 0 0 0 29.5 0h-27Z"/></symbol><symbol viewBox="0 0 37 32" id="shape-triangle" xmlns="http://www.w3.org/2000/svg"><path fill="currentColor" fill-rule="evenodd" clip-rule="evenodd" d="M18.5 7.375 6.869 27.078H30.13L18.5 7.375Zm2.173-6.146c-.967-1.639-3.38-1.639-4.346 0L.34 28.307C-.627 29.947.581 32 2.515 32h31.97c1.934 0 3.142-2.053 2.174-3.693L20.673 1.229Z"/></symbol><symbol viewBox="0 0 20 19" fill="none" id="star" xmlns="http://www.w3.org/2000/svg"><path d="M9.049.927c.3-.921 1.603-.921 1.902 0l1.519 4.674a1 1 0 0 0 .95.69h4.915c.969 0 1.371 1.24.588 1.81l-3.976 2.888a1 1 0 0 0-.363 1.118l1.518 4.674c.3.922-.755 1.688-1.539 1.118l-3.975-2.888a1 1 0 0 0-1.176 0l-3.976 2.888c-.783.57-1.838-.197-1.538-1.118l1.518-4.674a1 1 0 0 0-.363-1.118L1.077 8.101c-.783-.57-.38-1.81.588-1.81h4.914a1 1 0 0 0 .951-.69L9.05.927Z" fill="currentColor"/></symbol><symbol preserveAspectRatio="none" viewBox="0 0 405 37" id="underline" xmlns="http://www.w3.org/2000/svg"><path fill="url(#bda)" d="M399.049 16.284s5.596.77 4.777 2.974c-.559 1.503-6.473.535-7.151.725-3.029 1.044-122.137-5.478-191.18-3.391L6.623 23.398c-13.555.073-.507-2.887-.507-2.887 25.653-4.034 51.96-8.337 121.413-9.608 47.645-1.754 136.217-2.02 154.302-1.171 26.993.896 83.578 2.843 117.218 6.552Z"/><defs><linearGradient id="bda" x1=".824" x2="403.696" y1="11.824" y2="25.211" gradientUnits="userSpaceOnUse"><stop stop-color="#EAFF01"/><stop offset=".5" stop-color="#ADF454"/><stop offset="1" stop-color="#51DBEA"/></linearGradient></defs></symbol><symbol fill="none" viewBox="0 0 117 22" id="yellowball" xmlns="http://www.w3.org/2000/svg"><path fill="currentColor" d="M14.708 4.237h-3.254L7.912 14.246 4.036 4.237H.703L6.388 17.72c-.09.203-1.784 4.162-1.784 4.162h3.1l7.003-17.644h.001Zm9.554 5.797a5.291 5.291 0 0 0-.338-1.393 3.493 3.493 0 0 0-.698-1.122 3.264 3.264 0 0 0-1.048-.755 3.26 3.26 0 0 0-1.381-.28c-.966 0-1.762.329-2.39.983-.63.656-1.013 1.511-1.15 2.567h7.005Zm-3.103 7.99c-.982 0-1.899-.17-2.75-.51a6.704 6.704 0 0 1-2.225-1.43 6.642 6.642 0 0 1-1.485-2.208c-.362-.86-.543-1.809-.543-2.847v-.051c0-.97.164-1.88.49-2.733a6.795 6.795 0 0 1 1.385-2.233 6.506 6.506 0 0 1 2.105-1.507c.81-.366 1.706-.55 2.688-.55 1.086 0 2.038.198 2.855.588.818.391 1.5.92 2.043 1.583a6.87 6.87 0 0 1 1.227 2.311 9.193 9.193 0 0 1 .4 3.191c-.01.145-.023.293-.04.447H17.282c.174 1.106.616 1.953 1.332 2.541.714.587 1.58.88 2.596.88.777 0 1.448-.136 2.016-.407.57-.273 1.128-.673 1.68-1.2l1.836 1.607a7.528 7.528 0 0 1-2.34 1.839c-.904.461-1.986.69-3.243.69M31.988 0h-3.152v17.719h3.152V0Zm5.532 0h-3.153v17.719h3.152V0Zm8.736 17.49c.631 0 1.201-.115 1.705-.344a4 4 0 0 0 1.3-.932c.358-.391.631-.847.82-1.366.188-.52.284-1.067.284-1.646v-.052c0-.595-.104-1.158-.309-1.684a4.131 4.131 0 0 0-2.17-2.313 4.022 4.022 0 0 0-1.682-.344 4.02 4.02 0 0 0-1.682.344 4.127 4.127 0 0 0-1.297.919c-.359.385-.633.84-.821 1.367a4.899 4.899 0 0 0-.283 1.659v.052c0 .596.104 1.154.308 1.672.206.52.492.98.86 1.379a3.968 3.968 0 0 0 2.968 1.29m-.053 2.68a7.475 7.475 0 0 1-2.881-.549 7.178 7.178 0 0 1-2.299-1.494 6.862 6.862 0 0 1-2.056-4.927v-.051c0-.97.185-1.882.557-2.733a7.056 7.056 0 0 1 1.524-2.235 7.27 7.27 0 0 1 2.3-1.518c.887-.375 1.855-.562 2.909-.562 1.053 0 2.018.183 2.905.55a7.026 7.026 0 0 1 2.3 1.506 6.915 6.915 0 0 1 1.512 2.22c.363.844.543 1.75.543 2.72v.052a6.7 6.7 0 0 1-.556 2.707 7.096 7.096 0 0 1-1.523 2.233 7.187 7.187 0 0 1-2.314 1.519c-.895.374-1.868.561-2.92.561M52.54 4.238h3.204l2.74 9.243 3.024-9.293h2.661l3.049 9.293 2.792-9.243h3.126l-4.47 13.582h-2.791l-3.05-9.216-3.075 9.216h-2.792L52.54 4.238Zm28.296 11.08c.535 0 1.038-.1 1.513-.306a3.743 3.743 0 0 0 1.24-.856c.353-.365.634-.816.84-1.352a5 5 0 0 0 .31-1.8v-.052c0-.646-.105-1.237-.31-1.774a4.136 4.136 0 0 0-.84-1.366 3.735 3.735 0 0 0-2.753-1.174 3.88 3.88 0 0 0-1.523.306 3.734 3.734 0 0 0-1.267.881 4.36 4.36 0 0 0-.866 1.366 4.615 4.615 0 0 0-.323 1.76v.053c0 .647.107 1.238.323 1.775.215.536.504.993.866 1.367a3.78 3.78 0 0 0 1.267.866c.481.206.989.306 1.523.306M81.55 18c-1.117 0-2.044-.238-2.784-.715a7.119 7.119 0 0 1-1.83-1.659v2.093h-3.154V.002h3.154l-.028 6.483a6.788 6.788 0 0 1 1.861-1.8c.74-.485 1.664-.729 2.765-.729.81 0 1.593.153 2.354.461a6.046 6.046 0 0 1 2.026 1.352c.594.597 1.072 1.328 1.435 2.196.362.868.542 1.865.542 2.987v.052c0 1.123-.177 2.119-.53 2.988-.35.867-.824 1.6-1.416 2.196a6.01 6.01 0 0 1-2.038 1.354 6.301 6.301 0 0 1-2.36.459m16.192-5.926a7.962 7.962 0 0 0-1.408-.382 9.191 9.191 0 0 0-1.72-.154c-.982 0-1.748.187-2.3.561-.553.375-.826.886-.826 1.533v.05c0 .646.253 1.14.762 1.48.508.342 1.133.512 1.874.512.517 0 .994-.069 1.433-.205a3.76 3.76 0 0 0 1.151-.574c.327-.246.58-.544.76-.893.184-.35.273-.736.273-1.163v-.766l.001.002Zm-.078 5.643v-1.66c-.464.546-1.059 1.005-1.783 1.379-.724.374-1.602.563-2.636.563a6.29 6.29 0 0 1-1.86-.27 4.578 4.578 0 0 1-1.538-.79 3.954 3.954 0 0 1-1.06-1.302c-.267-.52-.401-1.12-.401-1.8v-.05c0-.75.14-1.4.414-1.955a3.84 3.84 0 0 1 1.151-1.38c.49-.364 1.076-.636 1.757-.815a8.694 8.694 0 0 1 2.209-.269c.792 0 1.53.052 2.105.154a12.94 12.94 0 0 1 1.668.408v-.255c0-.937-.288-1.651-.865-2.146-.578-.492-1.409-.74-2.495-.74-.775 0-1.464.078-2.066.23-.604.154-1.215.358-1.836.613l-.852-2.477a14.54 14.54 0 0 1 2.326-.818c.791-.203 1.749-.306 2.867-.306 2.033 0 3.542.498 4.523 1.495.982.995 1.473 2.395 1.473 4.198v7.993H97.66ZM105.511 0h-3.152v17.718h3.152V0Zm5.525 0h-3.153v17.718h3.153V0Z"/><path fill="#EAFF01" d="M114.897 17.718a1.723 1.723 0 0 1-1.202-.474 1.592 1.592 0 0 1-.476-1.143v-.013c0-.225.043-.436.129-.634a1.637 1.637 0 0 1 .888-.87 1.7 1.7 0 0 1 .675-.132c.244 0 .468.043.674.127a1.635 1.635 0 0 1 .884.866c.084.195.127.406.127.632v.01a1.62 1.62 0 0 1-1.021 1.501c-.207.088-.433.13-.678.13Z"/></symbol></svg>