<svg viewBox="0 0 14 14" fill="none" xmlns="http://www.w3.org/2000/svg">
<path d="M7 0C3.15 0 0 3.15 0 7C0 10.85 3.15 14 7 14C10.85 14 14 10.85 14 7C14 3.15 10.85 0 7 0ZM7 12.6C3.92 12.6 1.4 10.08 1.4 7C1.4 3.92 3.92 1.4 7 1.4C10.08 1.4 12.6 3.92 12.6 7C12.6 10.08 10.08 12.6 7 12.6Z" fill="currentColor"/>
<path d="M7.69688 6.7198V3.4998C7.69688 3.0798 7.41688 2.7998 6.99688 2.7998C6.57688 2.7998 6.29688 3.0798 6.29688 3.4998V6.9998C6.29688 7.2098 6.36688 7.3498 6.50688 7.4898L7.97687 8.9598C8.39687 9.3098 8.81688 9.0998 8.95688 8.9598C9.23688 8.6798 9.23688 8.2598 8.95688 7.9798L7.69688 6.7198Z" fill="currentColor"/>
</svg>
