<svg width="500" height="500" viewBox="0 0 500 500" fill="none" xmlns="http://www.w3.org/2000/svg">
<rect width="500" height="500" rx="100" fill="#1C1D2C"/>
<path d="M341.82 321.615C338.19 321.615 334.815 320.959 331.701 319.617C328.565 318.289 325.883 316.487 323.608 314.192C321.348 311.898 319.569 309.208 318.292 306.12C317.02 303.011 316.385 299.75 316.385 296.28V296.078C316.385 292.551 317.041 289.246 318.333 286.144C319.64 283.071 321.419 280.337 323.701 278.044C325.959 275.72 328.672 273.881 331.793 272.511C334.907 271.147 338.324 270.462 342.011 270.462C345.697 270.462 349.1 271.133 352.222 272.452C355.343 273.795 358.041 275.605 360.307 277.935C362.596 280.25 364.361 282.956 365.625 286.014C366.903 289.066 367.538 292.37 367.538 295.897V296.071C367.538 299.54 366.882 302.824 365.582 305.911C364.29 309.013 362.504 311.725 360.244 314.041C357.956 316.35 355.251 318.203 352.095 319.566C348.959 320.93 345.534 321.601 341.827 321.601" fill="#EAFF01"/>
<path d="M357.308 117H307.386L253.05 267.897L193.586 117H142.461L229.676 320.247C228.303 323.317 202.304 383 202.304 383H249.874L357.308 117Z" fill="white"/>
</svg>
