<svg viewBox="0 0 216 73" fill="none" xmlns="http://www.w3.org/2000/svg">
<path d="M91.9242 37.4363C91.9242 47.569 83.9909 55.0356 74.2551 55.0356C64.5192 55.0356 56.5859 47.569 56.5859 37.4363C56.5859 27.2321 64.5192 19.8369 74.2551 19.8369C83.9909 19.8369 91.9242 27.2321 91.9242 37.4363ZM84.1895 37.4363C84.1895 31.1043 79.5915 26.7719 74.2551 26.7719C68.9186 26.7719 64.3206 31.1043 64.3206 37.4363C64.3206 43.7047 68.9186 48.1006 74.2551 48.1006C79.5915 48.1006 84.1895 43.6968 84.1895 37.4363Z" fill="#EA4335"/>
<path d="M130.041 37.4363C130.041 47.569 122.108 55.0356 112.372 55.0356C102.636 55.0356 94.7031 47.569 94.7031 37.4363C94.7031 27.2401 102.636 19.8369 112.372 19.8369C122.108 19.8369 130.041 27.2321 130.041 37.4363ZM122.307 37.4363C122.307 31.1043 117.709 26.7719 112.372 26.7719C107.036 26.7719 102.438 31.1043 102.438 37.4363C102.438 43.7047 107.036 48.1006 112.372 48.1006C117.709 48.1006 122.307 43.6968 122.307 37.4363Z" fill="#FBBC05"/>
<path d="M166.571 20.9002V52.4965C166.571 65.4937 158.899 70.802 149.831 70.802C141.294 70.802 136.156 65.0969 134.218 60.4313L140.952 57.6303C142.151 60.4947 145.09 63.875 149.823 63.875C155.628 63.875 159.225 60.2964 159.225 53.5597V51.0285H158.955C157.224 53.163 153.889 55.0277 149.68 55.0277C140.873 55.0277 132.805 47.3627 132.805 37.4997C132.805 27.5654 140.873 19.8369 149.68 19.8369C153.881 19.8369 157.216 21.7016 158.955 23.7726H159.225V20.9081H166.571V20.9002ZM159.773 37.4997C159.773 31.3027 155.636 26.7719 150.371 26.7719C145.034 26.7719 140.563 31.3027 140.563 37.4997C140.563 43.6333 145.034 48.1006 150.371 48.1006C155.636 48.1006 159.773 43.6333 159.773 37.4997Z" fill="#4285F4"/>
<path d="M178.677 2.38086V53.9569H171.133V2.38086H178.677Z" fill="#34A853"/>
<path d="M208.08 43.2288L214.084 47.2279C212.146 50.0924 207.476 55.0278 199.408 55.0278C189.402 55.0278 181.93 47.2993 181.93 37.4284C181.93 26.9625 189.466 19.8291 198.543 19.8291C207.683 19.8291 212.154 27.0974 213.615 31.0251L214.417 33.0246L190.871 42.7686C192.674 46.2995 195.477 48.1007 199.408 48.1007C203.347 48.1007 206.079 46.1646 208.08 43.2288ZM189.601 36.8968L205.34 30.3665C204.475 28.1686 201.87 26.6371 198.805 26.6371C194.874 26.6371 189.402 30.1046 189.601 36.8968Z" fill="#EA4335"/>
<path d="M28.0276 32.858V25.3914H53.2091C53.4552 26.6927 53.5823 28.2321 53.5823 29.8984C53.5823 35.5003 52.0497 42.4274 47.1102 47.3628C42.3058 52.3617 36.1673 55.0278 28.0355 55.0278C12.9632 55.0278 0.289062 42.7607 0.289062 27.7004C0.289062 12.6402 12.9632 0.373047 28.0355 0.373047C36.3738 0.373047 42.3138 3.64218 46.7767 7.90315L41.5038 13.1719C38.3035 10.1725 33.9676 7.83968 28.0276 7.83968C17.0211 7.83968 8.41289 16.7028 8.41289 27.7004C8.41289 38.698 17.0211 47.5612 28.0276 47.5612C35.1667 47.5612 39.2326 44.6967 41.8373 42.0941C43.9497 39.9835 45.3394 36.9683 45.8873 32.8501L28.0276 32.858Z" fill="#4285F4"/>
</svg>
