<svg width="22" height="22" fill="currentColor" viewBox="0 0 22 22" xmlns="http://www.w3.org/2000/svg">
  <path d="M11 0C8.82441 0 6.69767 0.645139 4.88873 1.85383C3.07979 3.06253 1.66989 4.7805 0.83733 6.79048C0.00476615 8.80047 -0.213071 11.0122 0.211367 13.146C0.635804 15.2798 1.68345 17.2398 3.22183 18.7782C4.76021 20.3166 6.72022 21.3642 8.85401 21.7886C10.9878 22.2131 13.1995 21.9952 15.2095 21.1627C17.2195 20.3301 18.9375 18.9202 20.1462 17.1113C21.3549 15.3023 22 13.1756 22 11C21.9968 8.08359 20.8369 5.28753 18.7747 3.22531C16.7125 1.16309 13.9164 0.00315432 11 0ZM20.1667 11C20.1678 12.7964 19.6377 14.553 18.6432 16.049L17.5505 14.9554C17.4648 14.8695 17.4167 14.7532 17.4167 14.6318V13.75C17.4167 13.0207 17.1269 12.3212 16.6112 11.8055C16.0955 11.2897 15.396 11 14.6667 11H11.9167C11.6736 11 11.4404 10.9034 11.2685 10.7315C11.0966 10.5596 11 10.3264 11 10.0833V9.625C11 9.50344 11.0483 9.38686 11.1342 9.30091C11.2202 9.21496 11.3368 9.16667 11.4583 9.16667C12.0661 9.16667 12.649 8.92522 13.0788 8.49545C13.5086 8.06568 13.75 7.48279 13.75 6.875V5.95833C13.75 5.83678 13.7983 5.7202 13.8842 5.63424C13.9702 5.54829 14.0868 5.5 14.2083 5.5H15.4724C16.0796 5.49827 16.6616 5.25717 17.0922 4.829L17.4378 4.48342C18.3023 5.33415 18.9889 6.34851 19.4574 7.46732C19.926 8.58614 20.1671 9.78704 20.1667 11ZM1.87826 11.8828L4.77309 14.7776C5.02783 15.034 5.33095 15.2372 5.66486 15.3755C5.99878 15.5139 6.35683 15.5845 6.71825 15.5833H9.16667C9.40979 15.5833 9.64294 15.6799 9.81485 15.8518C9.98676 16.0237 10.0833 16.2569 10.0833 16.5V20.1199C7.97518 19.9047 6.00637 18.9669 4.51086 17.4655C3.01534 15.9642 2.08522 13.9917 1.87826 11.8828ZM11.9167 20.1199V16.5C11.9167 15.7707 11.6269 15.0712 11.1112 14.5555C10.5955 14.0397 9.89602 13.75 9.16667 13.75H6.71825C6.59773 13.7501 6.47837 13.7264 6.36701 13.6803C6.25565 13.6342 6.15446 13.5667 6.06925 13.4814L1.98276 9.39492C2.24508 7.90368 2.87351 6.5009 3.81167 5.31243C4.74982 4.12396 5.96834 3.18698 7.3579 2.58556C8.74746 1.98414 10.2646 1.7371 11.7732 1.86659C13.2818 1.99609 14.7346 2.49807 16.0013 3.3275L15.796 3.53283C15.7097 3.61793 15.5936 3.66595 15.4724 3.66667H14.2083C13.6006 3.66667 13.0177 3.90811 12.5879 4.33788C12.1581 4.76765 11.9167 5.35055 11.9167 5.95833V6.875C11.9167 6.99656 11.8684 7.11314 11.7824 7.19909C11.6965 7.28504 11.5799 7.33333 11.4583 7.33333C10.8506 7.33333 10.2677 7.57478 9.83788 8.00455C9.40811 8.43432 9.16667 9.01721 9.16667 9.625V10.0833C9.16667 10.8127 9.4564 11.5122 9.97213 12.0279C10.4879 12.5436 11.1873 12.8333 11.9167 12.8333H14.6667C14.9098 12.8333 15.1429 12.9299 15.3149 13.1018C15.4868 13.2737 15.5833 13.5069 15.5833 13.75V14.6318C15.5851 15.239 15.8262 15.821 16.2543 16.2516L17.4799 17.4772C15.9871 18.9752 14.021 19.9091 11.9167 20.1199Z" />
</svg>

