<svg width="22" height="22" fill="currentColor" viewBox="0 0 22 22" xmlns="http://www.w3.org/2000/svg">
<path d="M6.41667 0H3.66667C2.69421 0 1.76158 0.386308 1.07394 1.07394C0.386308 1.76158 0 2.69421 0 3.66667L0 6.41667C0 7.38913 0.386308 8.32176 1.07394 9.00939C1.76158 9.69702 2.69421 10.0833 3.66667 10.0833H6.41667C7.38913 10.0833 8.32176 9.69702 9.00939 9.00939C9.69702 8.32176 10.0833 7.38913 10.0833 6.41667V3.66667C10.0833 2.69421 9.69702 1.76158 9.00939 1.07394C8.32176 0.386308 7.38913 0 6.41667 0ZM8.25 6.41667C8.25 6.9029 8.05684 7.36921 7.71303 7.71303C7.36921 8.05684 6.9029 8.25 6.41667 8.25H3.66667C3.18044 8.25 2.71412 8.05684 2.3703 7.71303C2.02649 7.36921 1.83333 6.9029 1.83333 6.41667V3.66667C1.83333 3.18044 2.02649 2.71412 2.3703 2.3703C2.71412 2.02649 3.18044 1.83333 3.66667 1.83333H6.41667C6.9029 1.83333 7.36921 2.02649 7.71303 2.3703C8.05684 2.71412 8.25 3.18044 8.25 3.66667V6.41667Z" />
<path d="M6.41667 11.9166H3.66667C2.69421 11.9166 1.76158 12.3029 1.07394 12.9906C0.386308 13.6782 0 14.6108 0 15.5833L0 18.3333C0 19.3058 0.386308 20.2384 1.07394 20.926C1.76158 21.6136 2.69421 22 3.66667 22H6.41667C7.38913 22 8.32176 21.6136 9.00939 20.926C9.69702 20.2384 10.0833 19.3058 10.0833 18.3333V15.5833C10.0833 14.6108 9.69702 13.6782 9.00939 12.9906C8.32176 12.3029 7.38913 11.9166 6.41667 11.9166ZM8.25 18.3333C8.25 18.8195 8.05684 19.2858 7.71303 19.6297C7.36921 19.9735 6.9029 20.1666 6.41667 20.1666H3.66667C3.18044 20.1666 2.71412 19.9735 2.3703 19.6297C2.02649 19.2858 1.83333 18.8195 1.83333 18.3333V15.5833C1.83333 15.0971 2.02649 14.6307 2.3703 14.2869C2.71412 13.9431 3.18044 13.75 3.66667 13.75H6.41667C6.9029 13.75 7.36921 13.9431 7.71303 14.2869C8.05684 14.6307 8.25 15.0971 8.25 15.5833V18.3333Z" />
<path d="M20.4341 17.4614L18.3322 19.5605V2.41337L20.4341 4.51254C20.5193 4.59764 20.6204 4.66514 20.7317 4.71118C20.8429 4.75722 20.9621 4.78089 21.0825 4.78085C21.2029 4.78081 21.3222 4.75705 21.4334 4.71093C21.5446 4.66482 21.6457 4.59725 21.7308 4.51208C21.8159 4.42691 21.8834 4.32581 21.9294 4.21456C21.9754 4.10331 21.9991 3.98407 21.9991 3.86367C21.999 3.74327 21.9753 3.62405 21.9292 3.51283C21.883 3.40161 21.8155 3.30056 21.7303 3.21545L19.3589 0.847704C18.8433 0.332719 18.1443 0.043457 17.4155 0.043457C16.6868 0.043457 15.9878 0.332719 15.4722 0.847704L13.1008 3.21545C13.0156 3.30056 12.9481 3.40161 12.9019 3.51283C12.8558 3.62405 12.8321 3.74327 12.832 3.86367C12.832 3.98407 12.8557 4.10331 12.9017 4.21456C12.9477 4.32581 13.0152 4.42691 13.1003 4.51208C13.1854 4.59725 13.2865 4.66482 13.3977 4.71093C13.5089 4.75705 13.6282 4.78081 13.7486 4.78085C13.869 4.78089 13.9882 4.75722 14.0994 4.71118C14.2107 4.66514 14.3118 4.59764 14.397 4.51254L16.4989 2.41337V19.5605L14.397 17.4614C14.3118 17.3763 14.2107 17.3088 14.0994 17.2627C13.9882 17.2167 13.869 17.193 13.7486 17.1931C13.6282 17.1931 13.5089 17.2169 13.3977 17.263C13.2865 17.3091 13.1854 17.3767 13.1003 17.4618C13.0152 17.547 12.9477 17.6481 12.9017 17.7593C12.8557 17.8706 12.832 17.9898 12.832 18.1102C12.8321 18.2306 12.8558 18.3499 12.9019 18.4611C12.9481 18.5723 13.0156 18.6733 13.1008 18.7585L15.4722 21.1262C15.9878 21.6412 16.6868 21.9305 17.4155 21.9305C18.1443 21.9305 18.8433 21.6412 19.3589 21.1262L21.7303 18.7585C21.8155 18.6733 21.883 18.5723 21.9292 18.4611C21.9753 18.3499 21.999 18.2306 21.9991 18.1102C21.9991 17.9898 21.9754 17.8706 21.9294 17.7593C21.8834 17.6481 21.8159 17.547 21.7308 17.4618C21.6457 17.3767 21.5446 17.3091 21.4334 17.263C21.3222 17.2169 21.2029 17.1931 21.0825 17.1931C20.9621 17.193 20.8429 17.2167 20.7317 17.2627C20.6204 17.3088 20.5193 17.3763 20.4341 17.4614Z" />
</svg>
