<svg width="22" height="22" fill="currentColor" viewBox="0 0 22 22" xmlns="http://www.w3.org/2000/svg">
  <path fill-rule="evenodd" clip-rule="evenodd" d="M18.3334 0.00012207H3.66667C2.69421 0.00012207 1.76158 0.386431 1.07394 1.07407C0.386309 1.7617 0 2.69433 0 3.66679V14.6668C0 15.6393 0.386309 16.5719 1.07394 17.2595C1.76158 17.9472 2.69421 18.3335 3.66667 18.3335H6.32501L10.4051 21.7829C10.5706 21.923 10.7804 21.9998 10.9973 21.9998C11.2141 21.9998 11.4239 21.923 11.5894 21.7829L15.675 18.3335H18.3334C19.3058 18.3335 20.2384 17.9472 20.9261 17.2595C21.6137 16.5719 22 15.6393 22 14.6668V3.66679C22 2.69433 21.6137 1.7617 20.9261 1.07407C20.2384 0.386431 19.3058 0.00012207 18.3334 0.00012207ZM20.1667 14.6668C20.1667 15.153 19.9735 15.6194 19.6297 15.9632C19.2859 16.307 18.8196 16.5001 18.3334 16.5001H15.675C15.2417 16.5003 14.8224 16.6539 14.4916 16.9337L11 19.8826L7.51026 16.9337C7.17894 16.6535 6.75895 16.4998 6.32501 16.5001H3.66667C3.18044 16.5001 2.71412 16.307 2.37031 15.9632C2.02649 15.6194 1.83334 15.153 1.83334 14.6668V3.66679C1.83334 3.18056 2.02649 2.71425 2.37031 2.37043C2.71412 2.02661 3.18044 1.83346 3.66667 1.83346H18.3334C18.8196 1.83346 19.2859 2.02661 19.6297 2.37043C19.9735 2.71425 20.1667 3.18056 20.1667 3.66679V14.6668ZM6.41667 10.4497H11C11.2431 10.4497 11.4763 10.5463 11.6482 10.7182C11.8201 10.8901 11.9167 11.1233 11.9167 11.3664C11.9167 11.6095 11.8201 11.8427 11.6482 12.0146C11.4763 12.1865 11.2431 12.2831 11 12.2831H6.41667C6.17356 12.2831 5.9404 12.1865 5.76849 12.0146C5.59658 11.8427 5.5 11.6095 5.5 11.3664C5.5 11.1233 5.59658 10.8901 5.76849 10.7182C5.9404 10.5463 6.17356 10.4497 6.41667 10.4497ZM6.41667 8.61638H15.5833C15.8265 8.61638 16.0596 8.51981 16.2315 8.3479C16.4034 8.17599 16.5 7.94283 16.5 7.69972C16.5 7.4566 16.4034 7.22344 16.2315 7.05153C16.0596 6.87963 15.8265 6.78305 15.5833 6.78305H6.41667C6.17356 6.78305 5.9404 6.87963 5.76849 7.05153C5.59658 7.22344 5.5 7.4566 5.5 7.69972C5.5 7.94283 5.59658 8.17599 5.76849 8.3479C5.9404 8.51981 6.17356 8.61638 6.41667 8.61638Z" />
</svg>
