<svg width="50" height="50" viewBox="0 0 50 50" xmlns="http://www.w3.org/2000/svg">
  <path d="M13.4003 15.426C13.7261 14.9839 14.2148 14.7512 14.8663 14.7047C16.0531 14.6116 16.7279 15.1701 16.8908 16.3801C17.6121 21.2435 18.4033 25.3621 19.2411 28.7363L24.337 19.0329C24.8024 18.1487 25.3841 17.6833 26.0822 17.6368C27.1061 17.567 27.7344 18.2185 27.9903 19.5914C28.572 22.6863 29.3167 25.3157 30.2009 27.5495C30.8059 21.639 31.8298 17.3809 33.2726 14.7513C33.6216 14.0997 34.1335 13.774 34.8084 13.7274C35.3436 13.6809 35.8322 13.8438 36.2743 14.1928C36.7164 14.5418 36.9491 14.984 36.9957 15.5191C37.0189 15.938 36.9491 16.287 36.763 16.6361C35.8555 18.3115 35.1109 21.1272 34.5059 25.0362C33.9242 28.8292 33.7148 31.7844 33.8544 33.9019C33.9009 34.4837 33.8078 34.9956 33.5751 35.4377C33.2959 35.9496 32.877 36.2289 32.3419 36.2754C31.7369 36.3219 31.1086 36.0427 30.5036 35.4144C28.3395 33.2038 26.6176 29.8997 25.3611 25.5016C23.8486 28.48 22.7318 30.714 22.0104 32.2033C20.6375 34.8326 19.4741 36.1823 18.4967 36.2521C17.8684 36.2986 17.3332 35.7634 16.8678 34.6465C15.6811 31.5981 14.4012 25.711 13.0283 16.9851C12.9352 16.38 13.0748 15.8449 13.4006 15.426L13.4003 15.426Z" />
</svg>
