<svg width="50" height="50" viewBox="0 0 50 50" xmlns="http://www.w3.org/2000/svg">
  <path d="M32.3637 20.6195C33.7899 19.6822 34.7333 18.0684 34.7333 16.2385C34.7333 13.3499 32.3828 11 29.4942 11H20.5058C17.6172 11 15.2667 13.3499 15.2667 16.2385C15.2667 18.0684 16.2101 19.6822 17.6363 20.6195C16.2101 21.5563 15.2667 23.1702 15.2667 25C15.2667 26.8298 16.2101 28.4437 17.6363 29.381C16.2101 30.3173 15.2667 31.9316 15.2667 33.7615C15.2667 36.6501 17.6298 39 20.5337 39C23.4693 39 25.858 36.6244 25.858 33.7046V28.8735C26.7888 29.7217 28.0253 30.2385 29.3805 30.2385H29.4942C32.3828 30.2385 34.7333 27.8886 34.7333 25C34.7333 23.1702 33.7899 21.5563 32.3637 20.6195ZM25.858 12.7161H29.4942C31.4367 12.7161 33.0172 14.296 33.0172 16.2385C33.0172 18.181 31.4367 19.7615 29.4942 19.7615H25.858V12.7161ZM16.9828 16.2385C16.9828 14.296 18.5633 12.7161 20.5058 12.7161H24.142V19.7615H20.5058C18.5633 19.7615 16.9828 18.181 16.9828 16.2385ZM16.9828 25C16.9828 23.0575 18.5633 21.4776 20.5058 21.4776H24.142V28.523H20.4834C18.5512 28.5109 16.9828 26.9348 16.9828 25ZM24.142 33.7046C24.142 35.6783 22.5232 37.2839 20.5337 37.2839C18.5759 37.2839 16.9828 35.704 16.9828 33.7615C16.9828 31.819 18.5633 30.2385 20.5058 30.2385H24.142V33.7046ZM29.4942 28.523H29.3805C27.438 28.523 25.858 26.9425 25.858 25C25.858 23.0575 27.438 21.4776 29.3805 21.4776H29.4942C31.4367 21.4776 33.0172 23.0575 33.0172 25C33.0172 26.9425 31.4367 28.523 29.4942 28.523Z" />
</svg>
