<svg width="50" height="50" viewBox="0 0 50 50" xmlns="http://www.w3.org/2000/svg">
  <path d="M25.0061 11C32.7235 11 39 17.2644 39 24.9725C39 28.6928 37.525 32.2608 34.8995 34.8914C32.274 37.5221 28.713 39 25 39C21.287 39 17.726 37.5221 15.1005 34.8914C12.475 32.2608 11 28.6928 11 24.9725C11 17.2644 17.2765 11 25.0061 11ZM25.2259 26.0736L21.4405 37.024C23.9783 37.7696 26.6853 37.7012 29.1823 36.8283C29.1482 36.7699 29.1196 36.7084 29.0968 36.6447L25.2259 26.0736ZM13.5033 19.8582C12.1732 22.8418 12.0567 26.2276 13.1786 29.2959C14.3005 32.3642 16.5722 34.8733 19.5111 36.2899L13.5033 19.8582ZM36.0449 18.9406C36.106 19.3443 36.1304 19.7726 36.1304 20.2375C36.1304 21.5099 35.8862 22.9414 35.1779 24.74L31.3314 35.825C34.1604 34.1832 36.2368 31.4985 37.1174 28.3439C37.9981 25.1893 37.6132 21.8147 36.0449 18.9406ZM25.0061 12.4315C20.6101 12.4315 16.7392 14.6828 14.4802 18.0964C15.8702 18.1427 17.2617 18.0896 18.6441 17.9373C19.328 17.9006 19.4012 18.8916 18.7296 18.9773C18.7296 18.9773 18.0458 19.0507 17.2887 19.0996L21.8679 32.6928L24.6276 24.4464L22.6738 19.0752C21.99 19.0385 21.3428 18.9528 21.3428 18.9528C20.6712 18.9161 20.7444 17.8884 21.4283 17.9251C21.4283 17.9251 23.5041 18.0841 24.7375 18.0841C26.0563 18.0964 28.0955 17.9373 28.0955 17.9373C28.7671 17.9006 28.8526 18.8916 28.181 18.9773C28.181 18.9773 27.4972 19.0507 26.7401 19.0996L31.2826 32.6072L32.5403 28.4105C33.104 27.126 33.4308 25.7497 33.505 24.3485C33.4871 23.1201 33.1276 21.921 32.4671 20.886C31.8199 19.846 31.2215 18.9773 31.2215 17.9495C31.2215 16.7872 32.1007 15.7105 33.3463 15.7105H33.505C31.1834 13.5856 28.1505 12.4111 25.0061 12.4193V12.4315Z" />
</svg>
