<svg width="22" height="22" viewBox="0 0 22 22" xmlns="http://www.w3.org/2000/svg">
<path fill="currentColor" d="M21.3556 8.28208C20.8331 7.67892 20.076 7.33333 19.2775 7.33333H19.1959C18.7376 3.21475 15.2387 0 11 0C6.76137 0 3.26245 3.21475 2.80412 7.33333H2.75003C1.95162 7.33333 1.19445 7.67892 0.671951 8.28208C0.150368 8.88433 -0.0852152 9.68275 0.0284514 10.472L1.00103 17.2773C1.38512 19.9696 3.72628 21.9991 6.44512 21.9991H15.5834C18.3022 21.9991 20.6434 19.9687 21.0274 17.2773L22 10.472C22.1137 9.68275 21.8781 8.88525 21.3556 8.28208ZM11 1.83333C14.2258 1.83333 16.896 4.22858 17.3434 7.33333H4.6567C5.10403 4.22858 7.77428 1.83333 11 1.83333ZM19.2134 17.0179C18.9567 18.8127 17.3965 20.1667 15.5834 20.1667H6.44512C4.63195 20.1667 3.07178 18.8127 2.81512 17.0179L1.84253 10.2126C1.80403 9.94583 1.88103 9.68642 2.05703 9.48292C2.23395 9.2785 2.47962 9.16667 2.75003 9.16667H19.2775C19.547 9.16667 19.7936 9.27942 19.9705 9.48292C20.1474 9.68642 20.2235 9.94583 20.185 10.2126L19.2134 17.0179ZM14.6667 14.6667C14.6667 15.1727 14.256 15.5833 13.75 15.5833H8.25003C7.74403 15.5833 7.33337 15.1727 7.33337 14.6667C7.33337 14.1607 7.74403 13.75 8.25003 13.75H13.75C14.256 13.75 14.6667 14.1607 14.6667 14.6667Z" />
</svg>
