<svg width="28" height="28" viewBox="0 0 28 28" xmlns="http://www.w3.org/2000/svg">
  <path d="M21.3637 9.61953C22.7899 8.68219 23.7333 7.06836 23.7333 5.23852C23.7333 2.34992 21.3828 0 18.4942 0H9.50578C6.61719 0 4.26672 2.34992 4.26672 5.23852C4.26672 7.06836 5.21008 8.68219 6.63633 9.61953C5.21008 10.5563 4.26672 12.1702 4.26672 14C4.26672 15.8298 5.21008 17.4437 6.63633 18.381C5.21008 19.3173 4.26672 20.9316 4.26672 22.7615C4.26672 25.6501 6.62977 28 9.53367 28C12.4693 28 14.858 25.6244 14.858 22.7046V17.8735C15.7888 18.7217 17.0253 19.2385 18.3805 19.2385H18.4942C21.3828 19.2385 23.7333 16.8886 23.7333 14C23.7333 12.1702 22.7899 10.5563 21.3637 9.61953ZM14.858 1.71609H18.4942C20.4367 1.71609 22.0172 3.29602 22.0172 5.23852C22.0172 7.18102 20.4367 8.76149 18.4942 8.76149H14.858V1.71609ZM5.98281 5.23852C5.98281 3.29602 7.56328 1.71609 9.50578 1.71609H13.142V8.76149H9.50578C7.56328 8.76149 5.98281 7.18102 5.98281 5.23852ZM5.98281 14C5.98281 12.0575 7.56328 10.4776 9.50578 10.4776H13.142V17.523H9.48336C7.55125 17.5109 5.98281 15.9348 5.98281 14ZM13.142 22.7046C13.142 24.6783 11.5232 26.2839 9.53367 26.2839C7.57586 26.2839 5.98281 24.704 5.98281 22.7615C5.98281 20.819 7.56328 19.2385 9.50578 19.2385H13.142V22.7046ZM18.4942 17.523H18.3805C16.438 17.523 14.858 15.9425 14.858 14C14.858 12.0575 16.438 10.4776 18.3805 10.4776H18.4942C20.4367 10.4776 22.0172 12.0575 22.0172 14C22.0172 15.9425 20.4367 17.523 18.4942 17.523Z" />
</svg>
