<svg width="50" height="50" viewBox="0 0 50 50" xmlns="http://www.w3.org/2000/svg">
<path d="M29.1248 29.5831C28.4886 29.5839 27.8671 29.7737 27.3391 30.1286C26.811 30.4834 26.4004 30.9872 26.1594 31.5759C25.401 31.3633 24.5987 31.3633 23.8403 31.5759C23.5477 30.8665 23.01 30.2857 22.3252 29.9393C21.6404 29.5929 20.854 29.5038 20.1091 29.6885C19.3641 29.8731 18.7103 30.319 18.2665 30.9451C17.8227 31.5712 17.6185 32.3359 17.691 33.0999C17.7636 33.8639 18.108 34.5765 18.6617 35.1079C19.2154 35.6393 19.9415 35.9543 20.7078 35.9954C21.4741 36.0365 22.2298 35.8011 22.8372 35.332C23.4445 34.863 23.8633 34.1914 24.0172 33.4395C24.3329 33.3255 24.6644 33.2615 24.9999 33.2498C25.3353 33.2614 25.6668 33.3254 25.9825 33.4395C26.1051 34.0338 26.3937 34.5811 26.8148 35.018C27.2358 35.4548 27.7722 35.7633 28.3616 35.9076C28.9509 36.052 29.5691 36.0262 30.1444 35.8333C30.7197 35.6405 31.2285 35.2884 31.6118 34.8181C31.9951 34.3477 32.2372 33.7782 32.3099 33.1758C32.3825 32.5734 32.2829 31.9628 32.0226 31.4147C31.7622 30.8666 31.3517 30.4036 30.8388 30.0794C30.3259 29.7553 29.7316 29.5832 29.1248 29.5831ZM20.8749 34.1664C20.603 34.1664 20.3371 34.0858 20.111 33.9347C19.8849 33.7836 19.7087 33.5689 19.6046 33.3176C19.5005 33.0664 19.4733 32.7899 19.5264 32.5232C19.5794 32.2565 19.7104 32.0115 19.9027 31.8192C20.0949 31.6269 20.3399 31.4959 20.6067 31.4429C20.8734 31.3898 21.1499 31.417 21.4011 31.5211C21.6523 31.6252 21.8671 31.8014 22.0182 32.0275C22.1693 32.2536 22.2499 32.5195 22.2499 32.7914C22.2499 33.1561 22.105 33.5058 21.8472 33.7637C21.5893 34.0216 21.2396 34.1664 20.8749 34.1664ZM29.1248 34.1664C28.8529 34.1664 28.587 34.0858 28.3609 33.9347C28.1348 33.7836 27.9586 33.5689 27.8545 33.3176C27.7504 33.0664 27.7232 32.7899 27.7762 32.5232C27.8293 32.2565 27.9603 32.0115 28.1525 31.8192C28.3448 31.6269 28.5898 31.4959 28.8566 31.4429C29.1233 31.3898 29.3997 31.417 29.651 31.5211C29.9022 31.6252 30.117 31.8014 30.2681 32.0275C30.4191 32.2536 30.4998 32.5195 30.4998 32.7914C30.4998 33.1561 30.3549 33.5058 30.0971 33.7637C29.8392 34.0216 29.4895 34.1664 29.1248 34.1664ZM32.3102 20.952C32.0664 13.561 28.0248 14.0238 27.8461 14.0055C27.8141 14.0018 27.782 14 27.7498 14C26.9548 14.0316 26.1858 14.2919 25.5352 14.7498C25.3784 14.8595 25.1917 14.9183 25.0003 14.9183C24.809 14.9183 24.6222 14.8595 24.4655 14.7498C23.8144 14.292 23.0452 14.0317 22.2499 14C22.2193 14.0002 22.1887 14.002 22.1582 14.0055C21.9804 14.0238 17.9416 13.561 17.6941 20.952C16.4686 21.3617 14 22.3893 14 23.9999C14 27.3823 19.6778 27.6665 24.9999 27.6665C30.322 27.6665 35.9997 27.3823 35.9997 23.9999C35.9997 22.3893 33.5312 21.3617 32.3102 20.952ZM22.3003 15.8379C22.7003 15.881 23.0832 16.0234 23.414 16.2522C23.8794 16.5766 24.433 16.7506 25.0003 16.7506C25.5676 16.7506 26.1212 16.5766 26.5866 16.2522C26.9152 16.025 27.295 15.8826 27.6921 15.8379C28.1 15.9351 30.3586 15.7215 30.4934 21.1243C28.7686 21.8956 26.8873 22.2526 24.9999 22.1666C23.1125 22.2525 21.2313 21.8959 19.5063 21.1252C19.642 15.6766 21.9364 15.925 22.3003 15.8379ZM24.9999 25.8332C17.4237 25.8332 15.8333 24.8359 15.8223 24.075C16.5472 23.3626 17.4542 22.8634 18.4439 22.6322C20.4775 23.638 22.7338 24.1087 24.9999 23.9999C27.2659 24.1087 29.5223 23.638 31.5558 22.6322C32.5224 22.8738 33.4174 23.3427 34.1664 23.9999C34.1664 24.8359 32.576 25.8332 24.9999 25.8332Z" />
</svg>
