<svg width="28" height="28" viewBox="0 0 28 28" xmlns="http://www.w3.org/2000/svg">
<path fill="currentColor" d="M2.40034 4.42604C2.72611 3.98393 3.21478 3.75122 3.86632 3.70469C5.05305 3.61161 5.72787 4.17008 5.89076 5.38009C6.61211 10.2435 7.40327 14.3621 8.24107 17.7363L13.337 8.03294C13.8024 7.14869 14.3841 6.68331 15.0822 6.63677C16.1061 6.56696 16.7344 7.2185 16.9903 8.59141C17.572 11.6863 18.3167 14.3157 19.2009 16.5495C19.8059 10.639 20.8298 6.38086 22.2726 3.75127C22.6216 3.09973 23.1335 2.77396 23.8084 2.7274C24.3436 2.68087 24.8322 2.84375 25.2743 3.19279C25.7164 3.54184 25.9491 3.98395 25.9957 4.51915C26.019 4.938 25.9491 5.28703 25.763 5.63608C24.8555 7.31148 24.1109 10.1272 23.5059 14.0362C22.9242 17.8292 22.7148 20.7844 22.8544 22.9019C22.9009 23.4837 22.8078 23.9956 22.5751 24.4377C22.2959 24.9496 21.877 25.2289 21.3419 25.2754C20.7369 25.3219 20.1086 25.0427 19.5036 24.4144C17.3395 22.2038 15.6176 18.8997 14.3611 14.5016C12.8486 17.48 11.7318 19.714 11.0104 21.2033C9.63753 23.8326 8.47407 25.1823 7.49669 25.2521C6.86841 25.2986 6.33321 24.7634 5.86782 23.6465C4.68109 20.5981 3.40124 14.711 2.02831 5.98506C1.93523 5.38005 2.07458 4.8449 2.40034 4.42604Z" />
</svg>
