<svg width="50" height="50" viewBox="0 0 50 50" xmlns="http://www.w3.org/2000/svg">
  <path d="M38.5841 17.3343C38.5942 17.3717 38.5994 17.4101 38.5995 17.4488V23.4589C38.5995 23.5361 38.5791 23.6119 38.5404 23.6786C38.5018 23.7454 38.4462 23.8007 38.3793 23.8391L33.3349 26.7434V32.4999C33.3349 32.6565 33.2516 32.8011 33.1157 32.88L22.586 38.9416C22.5619 38.9553 22.5356 38.9641 22.5093 38.9734C22.4994 38.9767 22.4901 38.9827 22.4797 38.9855C22.4061 39.0048 22.3287 39.0048 22.2551 38.9855C22.2431 38.9822 22.2321 38.9756 22.2206 38.9712C22.1965 38.9625 22.1713 38.9548 22.1483 38.9416L11.6207 32.88C11.5539 32.8416 11.4983 32.7862 11.4596 32.7195C11.421 32.6528 11.4006 32.577 11.4005 32.4999V14.4695C11.4005 14.4301 11.406 14.3917 11.4159 14.3545C11.4192 14.3419 11.4268 14.3304 11.4312 14.3178C11.4394 14.2948 11.4471 14.2712 11.4591 14.2498C11.4674 14.2356 11.4794 14.2241 11.4893 14.211C11.5019 14.1934 11.5134 14.1753 11.5282 14.16C11.5408 14.1474 11.5572 14.1381 11.5714 14.1271C11.5873 14.114 11.6016 14.0998 11.6196 14.0893L16.8842 11.0585C16.9509 11.0202 17.0265 11 17.1034 11C17.1803 11 17.2558 11.0202 17.3225 11.0585L22.5865 14.0893H22.5876C22.6051 14.1003 22.6199 14.114 22.6358 14.1266C22.6501 14.1376 22.666 14.1474 22.6785 14.1595C22.6939 14.1753 22.7048 14.1934 22.718 14.211C22.7273 14.2241 22.7399 14.2356 22.7476 14.2498C22.7602 14.2718 22.7673 14.2948 22.7761 14.3178C22.7804 14.3304 22.7881 14.3419 22.7914 14.355C22.8015 14.3923 22.8066 14.4308 22.8067 14.4695V25.7311L27.1933 23.2053V17.4483C27.1933 17.4099 27.1987 17.371 27.2086 17.3343C27.2124 17.3212 27.2196 17.3097 27.2239 17.2971C27.2327 17.2741 27.2404 17.2505 27.2524 17.2292C27.2606 17.2149 27.2727 17.2034 27.282 17.1903C27.2951 17.1727 27.3061 17.1547 27.3214 17.1393C27.334 17.1267 27.3499 17.1174 27.3642 17.1065C27.3806 17.0933 27.3948 17.0791 27.4124 17.0687L32.6775 14.0379C32.7442 13.9994 32.8197 13.9792 32.8966 13.9792C32.9735 13.9792 33.0491 13.9994 33.1157 14.0379L38.3798 17.0687C38.3984 17.0796 38.4127 17.0933 38.4291 17.1059C38.4428 17.1169 38.4587 17.1267 38.4713 17.1388C38.4866 17.1547 38.4976 17.1727 38.5107 17.1903C38.5206 17.2034 38.5326 17.2149 38.5403 17.2292C38.5529 17.2505 38.56 17.2741 38.5688 17.2971C38.5737 17.3097 38.5808 17.3212 38.5841 17.3343ZM37.7219 23.2053V18.2075L35.8798 19.268L33.3349 20.7332V25.7311L37.7225 23.2053H37.7219ZM32.4579 32.2463V27.2451L29.9546 28.6748L22.8062 32.7546V37.8028L32.4579 32.2463ZM12.2781 15.2282V32.2463L21.9287 37.8023V32.7551L16.887 29.9018L16.8853 29.9007L16.8832 29.8996C16.8662 29.8898 16.8519 29.8755 16.836 29.8635C16.8223 29.8525 16.8065 29.8437 16.7944 29.8317L16.7933 29.83C16.7791 29.8164 16.7692 29.7994 16.7572 29.784C16.7462 29.7692 16.7331 29.7566 16.7243 29.7413L16.7237 29.7397C16.7139 29.7232 16.7079 29.7035 16.7007 29.6849C16.6936 29.6685 16.6843 29.6531 16.6799 29.6356C16.6745 29.6148 16.6734 29.5923 16.6712 29.5709C16.669 29.5545 16.6646 29.5381 16.6646 29.5217V29.5206V17.7539L14.1202 16.2881L12.2781 15.2282ZM17.1039 11.9448L12.7179 14.4695L17.1028 16.9942L21.4882 14.469L17.1028 11.9448H17.1039ZM19.3848 27.7009L21.9292 26.2361V15.2282L20.0871 16.2886L17.5421 17.7539V28.7619L19.3848 27.7009ZM32.8966 14.9241L28.5112 17.4488L32.8966 19.9735L37.2815 17.4483L32.8966 14.9241ZM32.4579 20.7332L29.9129 19.268L28.0708 18.2075V23.2053L30.6152 24.6701L32.4579 25.7311V20.7332ZM22.3669 31.9959L28.7993 28.3237L32.0147 26.4887L27.6326 23.9656L22.5871 26.8704L17.9885 29.5178L22.3669 31.9959Z" />
</svg>
