<svg width="22" height="22" viewBox="0 0 22 22" xmlns="http://www.w3.org/2000/svg">
<path fill="currentColor" d="M15.1249 15.5831C14.4888 15.5839 13.8672 15.7737 13.3392 16.1286C12.8112 16.4834 12.4006 16.9872 12.1596 17.5759C11.4011 17.3633 10.5988 17.3633 9.84043 17.5759C9.5478 16.8665 9.01014 16.2857 8.32533 15.9393C7.64053 15.5929 6.85409 15.5038 6.10919 15.6885C5.36428 15.8731 4.71042 16.319 4.26663 16.9451C3.82285 17.5712 3.61863 18.3359 3.69116 19.0999C3.76369 19.8639 4.10814 20.5765 4.66182 21.1079C5.2155 21.6393 5.94159 21.9543 6.70793 21.9954C7.47427 22.0365 8.2299 21.8011 8.83729 21.332C9.44468 20.863 9.86344 20.1914 10.0173 19.4395C10.333 19.3255 10.6646 19.2615 11 19.2498C11.3354 19.2614 11.667 19.3254 11.9827 19.4395C12.1052 20.0338 12.3938 20.5811 12.8149 21.018C13.236 21.4548 13.7723 21.7633 14.3617 21.9076C14.951 22.052 15.5692 22.0262 16.1446 21.8333C16.7199 21.6405 17.2287 21.2884 17.612 20.8181C17.9953 20.3477 18.2373 19.7782 18.31 19.1758C18.3827 18.5734 18.2831 17.9628 18.0227 17.4147C17.7623 16.8666 17.3519 16.4036 16.8389 16.0794C16.326 15.7553 15.7317 15.5832 15.1249 15.5831ZM6.87505 20.1664C6.6031 20.1664 6.33727 20.0858 6.11115 19.9347C5.88504 19.7836 5.7088 19.5689 5.60473 19.3176C5.50066 19.0664 5.47343 18.7899 5.52649 18.5232C5.57954 18.2565 5.7105 18.0115 5.90279 17.8192C6.09509 17.6269 6.34008 17.4959 6.6068 17.4429C6.87352 17.3898 7.14999 17.417 7.40123 17.5211C7.65248 17.6252 7.86722 17.8014 8.01831 18.0275C8.16939 18.2536 8.25003 18.5195 8.25003 18.7914C8.25003 19.1561 8.10517 19.5058 7.84731 19.7637C7.58945 20.0216 7.23972 20.1664 6.87505 20.1664ZM15.1249 20.1664C14.853 20.1664 14.5872 20.0858 14.361 19.9347C14.1349 19.7836 13.9587 19.5689 13.8546 19.3176C13.7506 19.0664 13.7233 18.7899 13.7764 18.5232C13.8294 18.2565 13.9604 18.0115 14.1527 17.8192C14.345 17.6269 14.59 17.4959 14.8567 17.4429C15.1234 17.3898 15.3999 17.417 15.6511 17.5211C15.9024 17.6252 16.1171 17.8014 16.2682 18.0275C16.4193 18.2536 16.4999 18.5195 16.4999 18.7914C16.4999 19.1561 16.3551 19.5058 16.0972 19.7637C15.8393 20.0216 15.4896 20.1664 15.1249 20.1664ZM18.3103 6.95198C18.0665 -0.439006 14.025 0.023833 13.8462 0.00549993C13.8143 0.00184076 13.7821 4.47512e-06 13.75 0C12.955 0.0315777 12.186 0.291938 11.5353 0.749824C11.3785 0.859502 11.1918 0.918326 11.0005 0.918326C10.8091 0.918326 10.6224 0.859502 10.4656 0.749824C9.81455 0.292006 9.04529 0.0316613 8.25003 0C8.2194 0.000174351 8.1888 0.00201036 8.15837 0.00549993C7.98054 0.023833 3.94175 -0.439006 3.69426 6.95198C2.46869 7.36173 0.000137329 8.3893 0.000137329 9.99986C0.000137329 13.3823 5.6779 13.6665 11 13.6665C16.3221 13.6665 21.9999 13.3823 21.9999 9.99986C21.9999 8.3893 19.5313 7.36173 18.3103 6.95198ZM8.30045 1.83789C8.70043 1.88099 9.08329 2.02342 9.41419 2.25222C9.87954 2.57663 10.4332 2.75056 11.0005 2.75056C11.5677 2.75056 12.1214 2.57663 12.5867 2.25222C12.9154 2.02497 13.2952 1.88262 13.6922 1.83789C14.1001 1.93506 16.3588 1.72155 16.4935 7.12432C14.7688 7.89564 12.8874 8.25257 11 8.16655C9.11268 8.25252 7.23142 7.89592 5.50648 7.12523C5.64215 1.67663 7.93654 1.92498 8.30045 1.83789ZM11 11.8332C3.42384 11.8332 1.83345 10.8359 1.82245 10.075C2.54733 9.36257 3.45434 8.8634 4.44408 8.63221C6.47759 9.63799 8.73396 10.1087 11 9.99986C13.266 10.1087 15.5224 9.63799 17.5559 8.63221C18.5226 8.87383 19.4176 9.34271 20.1665 9.99986C20.1665 10.8359 18.5762 11.8332 11 11.8332Z" />
</svg>
