<svg width="22" height="22" viewBox="0 0 22 22" xmlns="http://www.w3.org/2000/svg">
  <path d="M13.7501 5.5C13.9932 5.5 14.2264 5.59658 14.3983 5.76849C14.5702 5.94039 14.6668 6.17355 14.6668 6.41667C14.6668 6.65978 14.5702 6.89294 14.3983 7.06485C14.2264 7.23676 13.9932 7.33333 13.7501 7.33333H6.41676C6.17365 7.33333 5.94049 7.23676 5.76858 7.06485C5.59667 6.89294 5.5001 6.65978 5.5001 6.41667C5.5001 6.17355 5.59667 5.94039 5.76858 5.76849C5.94049 5.59658 6.17365 5.5 6.41676 5.5H13.7501ZM20.8148 21.7314C20.6429 21.9033 20.4098 21.9998 20.1668 21.9998C19.9237 21.9998 19.6906 21.9033 19.5187 21.7314L17.3123 19.525C16.6588 19.942 15.9003 20.1646 15.1251 20.1667C14.3092 20.1667 13.5117 19.9247 12.8334 19.4715C12.155 19.0182 11.6263 18.374 11.3141 17.6202C11.0019 16.8665 10.9202 16.0371 11.0794 15.2369C11.2385 14.4367 11.6314 13.7017 12.2083 13.1249C12.7852 12.548 13.5202 12.1551 14.3203 11.9959C15.1205 11.8368 15.9499 11.9185 16.7037 12.2307C17.4574 12.5429 18.1016 13.0716 18.5549 13.7499C19.0082 14.4283 19.2501 15.2258 19.2501 16.0417C19.248 16.8168 19.0255 17.5754 18.6084 18.2288L20.8148 20.4352C20.9867 20.6071 21.0832 20.8403 21.0832 21.0833C21.0832 21.3264 20.9867 21.5595 20.8148 21.7314ZM15.1251 18.3333C15.5783 18.3333 16.0214 18.1989 16.3983 17.9471C16.7751 17.6953 17.0689 17.3374 17.2423 16.9186C17.4158 16.4999 17.4612 16.0391 17.3727 15.5946C17.2843 15.15 17.066 14.7417 16.7455 14.4212C16.4251 14.1007 16.0167 13.8825 15.5722 13.794C15.1276 13.7056 14.6669 13.751 14.2481 13.9244C13.8294 14.0979 13.4715 14.3916 13.2196 14.7685C12.9678 15.1453 12.8334 15.5884 12.8334 16.0417C12.8334 16.6495 13.0749 17.2323 13.5046 17.6621C13.9344 18.0919 14.5173 18.3333 15.1251 18.3333ZM11.0001 20.1667H5.5001C4.77075 20.1667 4.07128 19.8769 3.55555 19.3612C3.03983 18.8455 2.7501 18.146 2.7501 17.4167V4.58333C2.7501 3.85399 3.03983 3.15452 3.55555 2.63879C4.07128 2.12306 4.77075 1.83333 5.5001 1.83333H16.5001C16.7432 1.83333 16.9764 1.92991 17.1483 2.10182C17.3202 2.27373 17.4168 2.50688 17.4168 2.75V10.0833C17.4168 10.3264 17.5133 10.5596 17.6852 10.7315C17.8572 10.9034 18.0903 11 18.3334 11C18.5765 11 18.8097 10.9034 18.9816 10.7315C19.1535 10.5596 19.2501 10.3264 19.2501 10.0833V2.75C19.2501 2.02065 18.9604 1.32118 18.4446 0.805456C17.9289 0.289731 17.2294 0 16.5001 0L5.5001 0C4.28497 0.00145554 3.12002 0.484808 2.2608 1.34403C1.40157 2.20326 0.918219 3.3682 0.916763 4.58333V17.4167C0.918219 18.6318 1.40157 19.7967 2.2608 20.656C3.12002 21.5152 4.28497 21.9985 5.5001 22H11.0001C11.2432 22 11.4764 21.9034 11.6483 21.7315C11.8202 21.5596 11.9168 21.3264 11.9168 21.0833C11.9168 20.8402 11.8202 20.6071 11.6483 20.4352C11.4764 20.2632 11.2432 20.1667 11.0001 20.1667Z" />
</svg>
